<?xml version="1.0" encoding="UTF-8" standalone="no"?>
<!-- Created with Inkscape (http://www.inkscape.org/) -->

<svg
   xmlns:dc="http://purl.org/dc/elements/1.1/"
   xmlns:cc="http://creativecommons.org/ns#"
   xmlns:rdf="http://www.w3.org/1999/02/22-rdf-syntax-ns#"
   xmlns:svg="http://www.w3.org/2000/svg"
   xmlns="http://www.w3.org/2000/svg"
   xmlns:sodipodi="http://sodipodi.sourceforge.net/DTD/sodipodi-0.dtd"
   xmlns:inkscape="http://www.inkscape.org/namespaces/inkscape"
   width="41"
   height="16"
   id="svg3797"
   version="1.1"
   inkscape:version="0.92.2 (5c3e80d, 2017-08-06)"
   sodipodi:docname="file_las_3d.svg"
   inkscape:export-filename="D:\dev\workspaces\potree\develop\resources\icons\point.png"
   inkscape:export-xdpi="90"
   inkscape:export-ydpi="90">
  <defs
     id="defs3799" />
  <sodipodi:namedview
     id="base"
     pagecolor="#ffffff"
     bordercolor="#666666"
     borderopacity="1.0"
     inkscape:pageopacity="0.0"
     inkscape:pageshadow="2"
     inkscape:zoom="5.5989008"
     inkscape:cx="28.841832"
     inkscape:cy="14.080185"
     inkscape:current-layer="layer1"
     showgrid="true"
     inkscape:grid-bbox="true"
     inkscape:document-units="px"
     inkscape:window-width="1600"
     inkscape:window-height="1137"
     inkscape:window-x="2552"
     inkscape:window-y="-8"
     inkscape:window-maximized="1">
    <inkscape:grid
       type="xygrid"
       id="grid3805"
       empspacing="5"
       visible="true"
       enabled="true"
       snapvisiblegridlinesonly="true" />
  </sodipodi:namedview>
  <metadata
     id="metadata3802">
    <rdf:RDF>
      <cc:Work
         rdf:about="">
        <dc:format>image/svg+xml</dc:format>
        <dc:type
           rdf:resource="http://purl.org/dc/dcmitype/StillImage" />
        <dc:title />
      </cc:Work>
    </rdf:RDF>
  </metadata>
  <g
     id="layer1"
     inkscape:label="Layer 1"
     inkscape:groupmode="layer"
     transform="translate(0,-16)">
    <path
       transform="translate(0.5625,0.56832228)"
       style="font-size:9px;font-style:normal;font-variant:normal;font-weight:bold;font-stretch:normal;text-align:start;line-height:125%;letter-spacing:0px;word-spacing:0px;writing-mode:lr-tb;text-anchor:start;fill:#000000;fill-opacity:1;stroke:none;font-family:Sans;-inkscape-font-specification:Sans Bold"
       d="m 16.90625,19.1875 c -0.665893,9e-6 -1.265087,0.136807 -1.75,0.34375 -0.484589,0.206819 -1.016796,0.543759 -1.375,1.09375 -0.292337,0.448871 -0.413822,0.972509 -0.4375,1.5 l -0.8125,-2.03125 A 1.2611202,1.2611202 0 0 0 11.375,19.3125 l -1.375,0 a 1.2611202,1.2611202 0 0 0 -1.1875,0.78125 l -1.78125,4.5625 -1.78125,0 0,-4.03125 A 1.2611202,1.2611202 0 0 0 4,19.375 l -1.3125,0 a 1.2611202,1.2611202 0 0 0 -1.25,1.25 l 0,6.375 a 1.2611202,1.2611202 0 0 0 1.25,1.25 l 4.53125,0 a 1.2611202,1.2611202 0 0 0 0.09375,0 1.2611202,1.2611202 0 0 0 0.03125,0 1.2611202,1.2611202 0 0 0 0.09375,0 1.2611202,1.2611202 0 0 0 0.0625,0 l 1.375,0 a 1.2611202,1.2611202 0 0 0 1.1875,-0.8125 l 0.25,-0.65625 0.8125,0 0.25,0.65625 a 1.2611202,1.2611202 0 0 0 1.1875,0.8125 l 1.40625,0 a 1.2611202,1.2611202 0 0 0 0.9375,-0.40625 C 15.538957,28.188876 16.232691,28.375 17,28.375 c 0.699679,0 1.348334,-0.110561 1.90625,-0.34375 0.356565,-0.149035 0.575329,-0.429477 0.84375,-0.6875 0.26903,0.776919 0.593046,1.541218 1.0625,2.25 a 1.2611202,1.2611202 0 0 0 1.0625,0.5625 l 0.84375,0 A 1.2611202,1.2611202 0 0 0 23.875,28.375 c -0.153104,-0.332304 -0.217535,-0.494008 -0.3125,-0.71875 0.549186,0.376102 1.181465,0.71875 1.90625,0.71875 0.796159,0 1.524616,-0.316214 2.125,-0.78125 A 1.2611202,1.2611202 0 0 0 28.6875,28.25 l 2.4375,0 c 0.540269,0 1.018875,-0.02542 1.53125,-0.1875 0.560243,-0.179622 1.042735,-0.458435 1.40625,-0.8125 0.08593,-0.0834 0.109838,-0.220504 0.1875,-0.3125 -0.03142,0.102705 -0.06259,0.225424 -0.09375,0.3125 -0.09304,0.259951 -0.24692,0.649266 -0.46875,1.125 a 1.2611202,1.2611202 0 0 0 1.15625,1.78125 l 0.84375,0 a 1.2611202,1.2611202 0 0 0 1.0625,-0.5625 c 0.568478,-0.862636 0.990686,-1.760897 1.25,-2.6875 0.221071,-0.800554 0.312496,-1.57953 0.3125,-2.3125 -4e-6,-0.877401 -0.150993,-1.735561 -0.4375,-2.5625 -0.28436,-0.820713 -0.682376,-1.593274 -1.1875,-2.3125 A 1.2611202,1.2611202 0 0 0 35.65625,19.1875 l -0.8125,0 A 1.2611202,1.2611202 0 0 0 33.625,20.09375 c -0.319812,-0.233998 -0.618209,-0.512527 -1,-0.625 -0.477175,-0.139163 -0.959002,-0.156243 -1.5625,-0.15625 l -2.375,0 a 1.2611202,1.2611202 0 0 0 -1.15625,0.75 c -0.584368,-0.486319 -1.318032,-0.781242 -2.09375,-0.78125 -0.483013,8e-6 -0.997221,0.04663 -1.5,0.28125 -0.0798,0.03724 -0.113039,0.112469 -0.1875,0.15625 A 1.2611202,1.2611202 0 0 0 22.71875,19.1875 l -0.84375,0 a 1.2611202,1.2611202 0 0 0 -1.03125,0.53125 c -0.260179,0.372532 -0.429441,0.789604 -0.625,1.1875 -0.168274,-0.326788 -0.368625,-0.625512 -0.65625,-0.875 -0.733792,-0.636461 -1.663898,-0.843741 -2.65625,-0.84375 z M 31.375,22.90625 c -0.08017,-0.07572 -0.03104,-0.06392 0.03125,0.125 0.03381,0.102561 0.09375,0.367336 0.09375,0.75 -4e-6,0.382673 -0.07885,0.660954 -0.125,0.8125 -0.03566,0.117065 0.03402,0.0248 0.03125,0.03125 0.0048,-0.002 -0.112998,-0.0042 -0.15625,0 l 0,-1.6875 c 0.0037,-2.11e-4 0.101665,0.0018 0.09375,0 0.144429,0.03133 0.142784,0.07408 0.03125,-0.03125 z m -8.3125,0.53125 a 1.2611202,1.2611202 0 0 0 0.1875,0.03125 l 0.5,0.09375 -0.0625,0.34375 a 1.2611202,1.2611202 0 0 0 0,0.09375 L 23.25,24.03125 A 1.2611202,1.2611202 0 0 0 23,24.09375 c 0.02154,-0.220213 0.02072,-0.439548 0.0625,-0.65625 z"
       id="path3786" />
    <g
       style="font-size:9px;font-style:normal;font-variant:normal;font-weight:bold;font-stretch:normal;text-align:start;line-height:125%;letter-spacing:0px;word-spacing:0px;writing-mode:lr-tb;text-anchor:start;fill:#ffffff;fill-opacity:1;stroke:none;font-family:Sans;-inkscape-font-specification:Sans Bold"
       id="text3003">
      <path
         d="m 3.2524414,27.568336 0,-6.389648 1.3007813,0 0,5.304199 3.234375,0 0,1.085449 z"
         style=""
         id="path3789" />
      <path
         d="m 14.528809,27.568336 -1.415039,0 -0.5625,-1.463378 -2.5751958,0 -0.5317383,1.463378 -1.3798828,0 2.5092769,-6.442382 1.375489,0 z m -2.39502,-2.548828 -0.887695,-2.390625 -0.870117,2.390625 z"
         style=""
         id="path3791" />
      <path
         d="m 14.893555,25.472145 1.265625,-0.123047 c 0.07617,0.424807 0.230711,0.736818 0.463623,0.936035 0.232908,0.19922 0.547116,0.298829 0.942627,0.298828 0.418942,1e-6 0.734615,-0.08862 0.947021,-0.265869 0.212398,-0.177244 0.318599,-0.38452 0.318604,-0.621826 -5e-6,-0.152342 -0.04468,-0.28198 -0.134034,-0.388916 -0.08936,-0.106931 -0.245365,-0.199949 -0.468017,-0.279053 -0.152347,-0.05273 -0.499515,-0.146481 -1.041504,-0.28125 -0.697268,-0.172848 -1.186525,-0.38525 -1.467773,-0.637207 -0.395509,-0.354488 -0.593263,-0.786616 -0.593262,-1.296386 -10e-7,-0.32812 0.09302,-0.635005 0.279053,-0.920655 0.186034,-0.285638 0.4541,-0.503167 0.804199,-0.652588 0.350095,-0.149407 0.772702,-0.224114 1.267822,-0.224121 0.80859,7e-6 1.417232,0.177253 1.825928,0.531739 0.408686,0.354498 0.623285,0.827642 0.643799,1.419433 l -1.300782,0.05713 c -0.05567,-0.33105 -0.175052,-0.569087 -0.358154,-0.714111 -0.183109,-0.145014 -0.457767,-0.217524 -0.823975,-0.217529 -0.377932,5e-6 -0.67383,0.07764 -0.887695,0.23291 -0.137697,0.09961 -0.206545,0.232915 -0.206543,0.399902 -2e-6,0.152348 0.06445,0.282719 0.19336,0.391113 0.16406,0.1377 0.562497,0.281255 1.195312,0.430664 0.632809,0.149418 1.100826,0.303959 1.404053,0.463623 0.303218,0.159672 0.540522,0.377933 0.711914,0.654786 0.171381,0.276858 0.257074,0.618898 0.25708,1.026123 -6e-6,0.369142 -0.102545,0.714845 -0.307617,1.037109 -0.205083,0.322266 -0.495122,0.561768 -0.870117,0.718506 -0.375004,0.156738 -0.842289,0.235107 -1.401856,0.235107 -0.814455,0 -1.439943,-0.188232 -1.876465,-0.564697 -0.436524,-0.376464 -0.697266,-0.925047 -0.782226,-1.645752 z"
         style=""
         id="path3793" />
      <path
         d="m 23.273926,29.462379 -0.848145,0 C 21.977538,28.78562 21.636229,28.082496 21.401855,27.353004 21.16748,26.623513 21.050292,25.917459 21.050293,25.23484 c -1e-6,-0.846676 0.145019,-1.647945 0.435059,-2.403808 0.251952,-0.656245 0.571287,-1.261225 0.958007,-1.814942 l 0.84375,0 c -0.401369,0.887701 -0.677492,1.642828 -0.828369,2.265381 -0.15088,0.622563 -0.22632,1.282474 -0.226318,1.979737 -2e-6,0.48047 0.04468,0.972657 0.134033,1.476562 0.08935,0.503907 0.211668,0.98291 0.366943,1.437012 0.102537,0.298827 0.282713,0.728026 0.540528,1.287597 z"
         style=""
         id="path3795" />
      <path
         d="m 23.924316,25.858864 1.195313,-0.14502 c 0.03808,0.304689 0.140623,0.537599 0.307617,0.698731 0.16699,0.161134 0.369139,0.2417 0.606445,0.241699 0.254881,10e-7 0.46948,-0.09668 0.643799,-0.290039 0.174313,-0.193358 0.261471,-0.4541 0.261475,-0.782227 -4e-6,-0.310544 -0.0835,-0.556638 -0.250488,-0.738281 -0.166996,-0.181638 -0.370609,-0.272458 -0.61084,-0.272461 -0.158206,3e-6 -0.34717,0.03076 -0.566895,0.09228 l 0.136231,-1.006347 c 0.333982,0.0088 0.588864,-0.06372 0.764648,-0.21753 0.175778,-0.153804 0.263669,-0.358149 0.263672,-0.613037 -3e-6,-0.216792 -0.06446,-0.389643 -0.193359,-0.518554 -0.128909,-0.128901 -0.300296,-0.193354 -0.514161,-0.19336 -0.210939,6e-6 -0.391115,0.07325 -0.540527,0.219727 -0.149416,0.146489 -0.240236,0.360356 -0.272461,0.641601 l -1.138183,-0.193359 c 0.0791,-0.389643 0.198485,-0.700922 0.358154,-0.933838 0.159667,-0.232904 0.382323,-0.416009 0.667969,-0.549316 0.285642,-0.133295 0.60571,-0.199945 0.960205,-0.199952 0.606442,7e-6 1.09277,0.193366 1.458984,0.580079 0.301754,0.316411 0.452632,0.673833 0.452637,1.072265 -5e-6,0.565434 -0.309086,1.016606 -0.927246,1.353516 0.369137,0.0791 0.664302,0.256351 0.885498,0.531738 0.221187,0.275393 0.331782,0.607913 0.331787,0.997559 -5e-6,0.565431 -0.206548,1.047364 -0.619629,1.445801 -0.41309,0.398437 -0.927249,0.597656 -1.542481,0.597656 -0.583009,0 -1.066407,-0.167725 -1.450195,-0.503174 -0.38379,-0.335449 -0.606446,-0.774169 -0.667969,-1.316162 z"
         style=""
         id="path3797" />
      <path
         d="m 29.246094,21.125954 2.377441,0 c 0.536129,6e-6 0.94482,0.04102 1.226074,0.123047 0.377925,0.111334 0.701656,0.309088 0.971192,0.593261 0.269526,0.284185 0.474603,0.632085 0.615234,1.043701 0.140619,0.411626 0.210932,0.919194 0.210938,1.522706 -6e-6,0.530276 -0.06592,0.987306 -0.197754,1.371093 -0.161139,0.468752 -0.391119,0.848146 -0.689942,1.138184 -0.225591,0.219727 -0.530278,0.391113 -0.914062,0.51416 -0.287113,0.09082 -0.670902,0.13623 -1.151367,0.13623 l -2.447754,0 z m 1.300781,1.089843 0,4.26709 0.971191,0 c 0.363278,10e-7 0.625485,-0.02051 0.786621,-0.06152 0.210934,-0.05273 0.385983,-0.142089 0.525147,-0.268067 0.139156,-0.125975 0.252681,-0.33325 0.340576,-0.621826 0.08789,-0.288572 0.131831,-0.681882 0.131836,-1.179931 -5e-6,-0.498044 -0.04395,-0.880367 -0.131836,-1.146973 -0.08789,-0.266597 -0.210942,-0.474605 -0.36914,-0.624023 -0.158208,-0.149409 -0.358891,-0.250484 -0.602051,-0.303223 -0.181644,-0.04101 -0.537601,-0.06152 -1.067871,-0.06152 z"
         style=""
         id="path3799" />
      <path
         d="m 35.402832,29.462379 c 0.243164,-0.521485 0.41455,-0.921387 0.51416,-1.199707 0.09961,-0.27832 0.191894,-0.599121 0.276856,-0.962402 0.08496,-0.363281 0.147948,-0.708251 0.188964,-1.034912 0.04102,-0.326659 0.06152,-0.661375 0.06152,-1.00415 -10e-7,-0.697263 -0.07471,-1.357174 -0.224121,-1.979737 -0.149415,-0.622553 -0.424806,-1.37768 -0.826172,-2.265381 l 0.839355,0 c 0.442382,0.629889 0.785887,1.297857 1.030518,2.003907 0.244627,0.706058 0.366941,1.422366 0.366943,2.148925 -2e-6,0.612307 -0.09668,1.268556 -0.290039,1.96875 -0.219728,0.785156 -0.581544,1.560058 -1.085449,2.324707 z"
         style=""
         id="path3801" />
    </g>
  </g>
</svg>
