<?xml version="1.0" encoding="UTF-8" standalone="no"?>
<!-- Created with Inkscape (http://www.inkscape.org/) -->

<svg
   xmlns:dc="http://purl.org/dc/elements/1.1/"
   xmlns:cc="http://creativecommons.org/ns#"
   xmlns:rdf="http://www.w3.org/1999/02/22-rdf-syntax-ns#"
   xmlns:svg="http://www.w3.org/2000/svg"
   xmlns="http://www.w3.org/2000/svg"
   xmlns:sodipodi="http://sodipodi.sourceforge.net/DTD/sodipodi-0.dtd"
   xmlns:inkscape="http://www.inkscape.org/namespaces/inkscape"
   width="42"
   height="16"
   id="svg3797"
   version="1.1"
   inkscape:version="0.92.2 (5c3e80d, 2017-08-06)"
   sodipodi:docname="file_csv_2d.svg"
   inkscape:export-filename="D:\dev\workspaces\potree\develop\resources\icons\point.png"
   inkscape:export-xdpi="90"
   inkscape:export-ydpi="90">
  <defs
     id="defs3799" />
  <sodipodi:namedview
     id="base"
     pagecolor="#ffffff"
     bordercolor="#666666"
     borderopacity="1.0"
     inkscape:pageopacity="0.0"
     inkscape:pageshadow="2"
     inkscape:zoom="5.5989008"
     inkscape:cx="37.553698"
     inkscape:cy="-22.077233"
     inkscape:current-layer="layer1"
     showgrid="true"
     inkscape:grid-bbox="true"
     inkscape:document-units="px"
     inkscape:window-width="1600"
     inkscape:window-height="1137"
     inkscape:window-x="2552"
     inkscape:window-y="-8"
     inkscape:window-maximized="1">
    <inkscape:grid
       type="xygrid"
       id="grid3805"
       empspacing="5"
       visible="true"
       enabled="true"
       snapvisiblegridlinesonly="true" />
  </sodipodi:namedview>
  <metadata
     id="metadata3802">
    <rdf:RDF>
      <cc:Work
         rdf:about="">
        <dc:format>image/svg+xml</dc:format>
        <dc:type
           rdf:resource="http://purl.org/dc/dcmitype/StillImage" />
        <dc:title />
      </cc:Work>
    </rdf:RDF>
  </metadata>
  <g
     id="layer1"
     inkscape:label="Layer 1"
     inkscape:groupmode="layer"
     transform="translate(0,-16)">
    <path
       style="font-size:9px;font-style:normal;font-variant:normal;font-weight:normal;font-stretch:normal;text-align:start;line-height:125%;letter-spacing:0px;word-spacing:0px;writing-mode:lr-tb;text-anchor:start;fill:#000000;fill-opacity:1;stroke:none;font-family:Sans;-inkscape-font-specification:Sans"
       d="m 6.4551648,18.888338 c -1.2012608,9e-6 -2.338575,0.469909 -3.125,1.3125 -0.8291855,0.88842 -1.1562505,2.094747 -1.15625,3.375 -5e-7,1.236177 0.3535462,2.398198 1.15625,3.25 0.773331,0.820639 1.8828758,1.3125 3.0625,1.3125 0.9281513,0 1.8013636,-0.274737 2.46875,-0.78125 0.228838,-0.17368 0.2888222,-0.495964 0.46875,-0.71875 0.1502067,0.212386 0.2676978,0.45161 0.46875,0.625 0.7384272,0.636834 1.7074482,0.875 2.7187502,0.875 0.7032,0 1.336063,-0.118494 1.875,-0.34375 0.585238,-0.244614 1.1182,-0.667899 1.46875,-1.21875 0.150193,-0.236023 0.161619,-0.536978 0.25,-0.8125 l 0.5,1.40625 a 1.2928111,1.2928111 0 0 0 1.21875,0.84375 l 1.375,0 a 1.2928111,1.2928111 0 0 0 1.21875,-0.84375 l 0.53125,-1.46875 c 0.06718,0.40534 0.05592,0.809199 0.1875,1.21875 0.272929,0.849496 0.676977,1.666712 1.1875,2.4375 a 1.2928111,1.2928111 0 0 0 1.0625,0.5625 l 0.84375,0 a 1.2928111,1.2928111 0 0 0 1.1875,-1.8125 c -0.01816,-0.03941 -0.01405,-0.05555 -0.03125,-0.09375 l 3.71875,0 a 1.2928111,1.2928111 0 0 0 0.5,-0.09375 1.2928111,1.2928111 0 0 0 0.03125,0 1.2928111,1.2928111 0 0 0 0.5625,0.09375 l 2.46875,0 c 0.541772,0 1.00768,-0.03177 1.5,-0.1875 a 1.2928111,1.2928111 0 0 0 0.03125,0 c 0.54525,-0.174816 1.027775,-0.413426 1.4375,-0.8125 -0.06944,0.187981 -0.206301,0.597923 -0.4375,1.09375 a 1.2928111,1.2928111 0 0 0 1.15625,1.8125 l 0.84375,0 a 1.2928111,1.2928111 0 0 0 1.09375,-0.5625 c 0.570101,-0.865098 0.989692,-1.788592 1.25,-2.71875 0.221768,-0.803076 0.312496,-1.576498 0.3125,-2.3125 -3e-6,-0.844125 -0.107542,-1.731596 -0.40625,-2.59375 -0.285358,-0.823594 -0.6808,-1.591029 -1.1875,-2.3125 a 1.2928111,1.2928111 0 0 0 -1.0625,-0.53125 l -0.84375,0 a 1.2928111,1.2928111 0 0 0 -1.21875,0.875 c -0.306194,-0.213402 -0.578353,-0.487948 -0.9375,-0.59375 -0.506805,-0.147805 -1.019809,-0.156243 -1.625,-0.15625 l -2.375,0 a 1.2928111,1.2928111 0 0 0 -1.09375,0.625 c -0.611152,-0.436902 -1.334902,-0.656243 -2.0625,-0.65625 -0.588718,6e-6 -1.130297,0.238062 -1.65625,0.5 a 1.2928111,1.2928111 0 0 0 -1.125,-0.59375 l -0.875,0 a 1.2928111,1.2928111 0 0 0 -1,0.46875 1.2928111,1.2928111 0 0 0 -0.875,-0.34375 l -1.375,0 a 1.2928111,1.2928111 0 0 0 -1.21875,0.875 l -0.375,1.125 -0.375,-1.125 a 1.2928111,1.2928111 0 0 0 -1.21875,-0.875 l -1.4375,0 a 1.2928111,1.2928111 0 0 0 -0.96875,0.40625 c -0.641447,-0.354099 -1.352874,-0.531243 -2.125,-0.53125 -0.670185,9e-6 -1.261699,0.135361 -1.75,0.34375 -0.433166,0.184872 -0.8957622,0.516246 -1.2500002,0.96875 -0.065336,-0.07449 -0.082925,-0.181072 -0.15625,-0.25 -0.7397803,-0.700133 -1.7478402,-1.062491 -2.8125,-1.0625 z m -0.0625,3.6875 c 0.1266079,2e-6 0.062178,-2.58e-4 0.0625,0 0.015573,0.01246 0.00578,-0.04917 0.03125,0.0625 a 1.2928111,1.2928111 0 0 0 0.46875,0.75 1.2928111,1.2928111 0 0 0 -0.40625,0.6875 c -0.071195,0.309783 -0.1480369,0.364077 -0.125,0.34375 -0.028938,0.02553 -0.025978,0.03125 -0.0625,0.03125 -0.127629,0 -0.025302,0.02389 -0.125,-0.09375 0.015505,0.0183 -0.1562515,-0.213476 -0.15625,-0.875 -1.4e-6,-0.610235 0.1665648,-0.891663 0.125,-0.84375 0.067094,-0.07734 -0.00631,-0.0625 0.1875,-0.0625 z m 26.4062502,0.125 c 0.0031,-3.25e-4 0.102411,0.002 0.09375,0 0.0014,0.0021 0.0081,-0.0078 0.03125,0.0625 0.0039,0.01191 0.0625,0.316162 0.0625,0.75 -4e-6,0.433846 -0.07353,0.746096 -0.09375,0.8125 -0.0025,-3.55e-4 -0.07368,-0.002 -0.09375,0 l 0,-1.625 z m -23.6250002,0.65625 c 0.02498,0.04663 0.066585,0.07977 0.09375,0.125 l -0.28125,-0.09375 0.1875,-0.03125 z m 15.4375002,0.0625 a 1.2928111,1.2928111 0 0 0 0.1875,0.03125 l 0.5,0.0625 c -0.313672,0.320367 -0.599765,0.617253 -0.8125,0.90625 -1e-6,-0.370828 0.08068,-0.672895 0.125,-1 z"
       id="path3847"
       inkscape:connector-curvature="0" />
    <g
       style="font-size:9px;font-style:normal;font-variant:normal;font-weight:normal;font-stretch:normal;text-align:start;line-height:125%;letter-spacing:0px;word-spacing:0px;writing-mode:lr-tb;text-anchor:start;fill:#ffffff;fill-opacity:1;stroke:none;font-family:Sans;-inkscape-font-specification:Sans"
       id="text3859"
       transform="translate(0,-0.26790972)">
      <path
         d="m 7.8169379,24.631348 1.2612305,0.399902 c -0.1933652,0.703126 -0.5148981,1.225343 -0.9645996,1.56665 -0.4497117,0.341309 -1.0202677,0.511963 -1.7116699,0.511963 -0.8554713,0 -1.5585956,-0.292236 -2.109375,-0.876709 -0.550782,-0.584471 -0.8261723,-1.383542 -0.8261719,-2.397217 -4e-7,-1.072261 0.2768548,-1.905024 0.8305664,-2.498291 0.5537091,-0.593255 1.2817357,-0.889886 2.184082,-0.889892 0.7880817,6e-6 1.4282178,0.232916 1.9204102,0.69873 0.2929631,0.275397 0.5126894,0.670904 0.6591797,1.186524 L 7.7729926,22.640625 C 7.6968161,22.306645 7.5378807,22.042974 7.296186,21.849609 7.0544827,21.656255 6.7607819,21.559576 6.4150825,21.55957 c -0.477542,6e-6 -0.8649928,0.171392 -1.1623536,0.51416 -0.2973652,0.342778 -0.4460466,0.897954 -0.4460449,1.665528 -1.7e-6,0.814455 0.1464825,1.394533 0.4394531,1.740234 0.2929663,0.345704 0.6738253,0.518556 1.1425782,0.518555 0.3456994,1e-6 0.6430624,-0.109862 0.8920898,-0.32959 0.249019,-0.219725 0.4277297,-0.565428 0.5361328,-1.037109 z"
         style="font-weight:bold;fill:#ffffff;font-family:Sans;-inkscape-font-specification:Sans Bold"
         id="path3871"
         inkscape:connector-curvature="0" />
      <path
         d="m 9.869184,24.903809 1.265625,-0.123047 c 0.07617,0.424806 0.230711,0.736818 0.463623,0.936035 0.232908,0.19922 0.547117,0.298829 0.942627,0.298828 0.418942,1e-6 0.734615,-0.08862 0.947022,-0.265869 0.212398,-0.177245 0.318599,-0.38452 0.318603,-0.621826 -4e-6,-0.152342 -0.04468,-0.281981 -0.134033,-0.388916 -0.08936,-0.106932 -0.245365,-0.199949 -0.468018,-0.279053 -0.152347,-0.05273 -0.499515,-0.146482 -1.041504,-0.28125 -0.697267,-0.172849 -1.186525,-0.385251 -1.467773,-0.637207 -0.395509,-0.354488 -0.593262,-0.786617 -0.593262,-1.296387 0,-0.32812 0.09302,-0.635004 0.279053,-0.920654 0.186034,-0.285639 0.4541,-0.503168 0.804199,-0.652588 0.350096,-0.149408 0.772703,-0.224115 1.267822,-0.224121 0.80859,6e-6 1.417232,0.177252 1.825928,0.531738 0.408686,0.354498 0.623286,0.827642 0.643799,1.419434 l -1.300781,0.05713 c -0.05567,-0.33105 -0.175053,-0.569087 -0.358155,-0.714112 -0.183109,-0.145014 -0.457767,-0.217523 -0.823974,-0.217529 -0.377932,6e-6 -0.673831,0.07764 -0.887696,0.23291 -0.137697,0.09962 -0.206544,0.232915 -0.206542,0.399903 -2e-6,0.152348 0.06445,0.282719 0.193359,0.391113 0.16406,0.137699 0.562497,0.281254 1.195312,0.430664 0.632809,0.149418 1.100826,0.303959 1.404053,0.463623 0.303218,0.159671 0.540522,0.377933 0.711914,0.654785 0.171381,0.276858 0.257075,0.618899 0.25708,1.026123 -5e-6,0.369142 -0.102544,0.714845 -0.307617,1.03711 -0.205083,0.322266 -0.495122,0.561767 -0.870117,0.718505 -0.375004,0.156739 -0.842289,0.235108 -1.401856,0.235108 -0.814455,0 -1.439943,-0.188233 -1.876464,-0.564697 C 10.214886,26.173098 9.9541445,25.624514 9.869184,24.90381 z"
         style="font-weight:bold;fill:#ffffff;font-family:Sans;-inkscape-font-specification:Sans Bold"
         id="path3873"
         inkscape:connector-curvature="0" />
      <path
         d="m 17.854047,27 -2.302734,-6.442383 1.410644,0 1.630372,4.768067 1.577636,-4.768067 1.379883,0 L 19.242719,27 z"
         style="font-weight:bold;fill:#ffffff;font-family:Sans;-inkscape-font-specification:Sans Bold"
         id="path3875"
         inkscape:connector-curvature="0" />
      <path
         d="m 24.261274,28.894043 -0.848145,0 c -0.448243,-0.676759 -0.789552,-1.379883 -1.023925,-2.109375 -0.234376,-0.729491 -0.351563,-1.435545 -0.351563,-2.118164 0,-0.846677 0.145019,-1.647945 0.435059,-2.403809 0.251952,-0.656244 0.571287,-1.261224 0.958007,-1.814941 l 0.84375,0 c -0.401369,0.887701 -0.677492,1.642827 -0.828369,2.265381 -0.15088,0.622562 -0.22632,1.282473 -0.226318,1.979736 -2e-6,0.480471 0.04468,0.972658 0.134033,1.476563 0.08935,0.503906 0.211668,0.98291 0.366944,1.437011 0.102536,0.298828 0.282712,0.728026 0.540527,1.287598 z"
         style="font-weight:bold;fill:#ffffff;font-family:Sans;-inkscape-font-specification:Sans Bold"
         id="path3877"
         inkscape:connector-curvature="0" />
      <path
         d="m 29.12602,25.853027 0,1.146973 -4.328613,0 c 0.04687,-0.433593 0.187499,-0.844482 0.421875,-1.232666 0.234374,-0.388182 0.697264,-0.903074 1.388672,-1.544678 0.556638,-0.518551 0.897946,-0.870113 1.023925,-1.054687 0.169919,-0.254879 0.25488,-0.506832 0.254883,-0.75586 -3e-6,-0.275385 -0.07398,-0.487055 -0.221924,-0.635009 -0.147952,-0.147944 -0.352297,-0.221919 -0.613037,-0.221924 -0.257815,5e-6 -0.462892,0.07764 -0.615234,0.23291 -0.152346,0.155278 -0.240236,0.413091 -0.263672,0.773437 l -1.230469,-0.123046 c 0.07324,-0.679683 0.303222,-1.167475 0.689942,-1.463379 0.386717,-0.295892 0.870115,-0.443842 1.450195,-0.443848 0.635739,6e-6 1.13525,0.171393 1.498535,0.51416 0.363277,0.342779 0.544917,0.769048 0.544922,1.278809 -5e-6,0.290043 -0.05201,0.566166 -0.156006,0.828369 -0.104008,0.262211 -0.268803,0.536868 -0.494385,0.823974 -0.149417,0.190433 -0.418948,0.464359 -0.808593,0.821778 -0.389652,0.357424 -0.636477,0.594728 -0.740479,0.711914 -0.104006,0.117189 -0.188235,0.231446 -0.252685,0.342773 z"
         style="font-weight:bold;fill:#ffffff;font-family:Sans;-inkscape-font-specification:Sans Bold"
         id="path3879"
         inkscape:connector-curvature="0" />
      <path
         d="m 30.233442,20.557617 2.377441,0 c 0.536129,7e-6 0.94482,0.04102 1.226074,0.123047 0.377926,0.111334 0.701656,0.309088 0.971192,0.593262 0.269526,0.284185 0.474604,0.632085 0.615234,1.043701 0.140619,0.411625 0.210932,0.919193 0.210938,1.522705 -6e-6,0.530276 -0.06592,0.987307 -0.197754,1.371094 -0.161139,0.468751 -0.391119,0.848145 -0.689942,1.138183 -0.22559,0.219727 -0.530278,0.391114 -0.914062,0.514161 C 33.54545,26.95459 33.161661,27 32.681196,27 l -2.447754,0 z m 1.300781,1.089844 0,4.26709 0.971191,0 c 0.363278,1e-6 0.625485,-0.02051 0.786622,-0.06152 0.210933,-0.05273 0.385982,-0.142088 0.525146,-0.268066 0.139156,-0.125975 0.252681,-0.33325 0.340576,-0.621826 0.08789,-0.288572 0.131831,-0.681882 0.131836,-1.179932 -5e-6,-0.498043 -0.04395,-0.880367 -0.131836,-1.146973 -0.0879,-0.266596 -0.210942,-0.474604 -0.36914,-0.624023 -0.158208,-0.149409 -0.358891,-0.250483 -0.602051,-0.303223 -0.181644,-0.04101 -0.537601,-0.06152 -1.067871,-0.06152 z"
         style="font-weight:bold;fill:#ffffff;font-family:Sans;-inkscape-font-specification:Sans Bold"
         id="path3881"
         inkscape:connector-curvature="0" />
      <path
         d="m 36.39018,28.894043 c 0.243164,-0.521486 0.41455,-0.921388 0.51416,-1.199707 0.09961,-0.278321 0.191894,-0.599121 0.276856,-0.962402 0.08496,-0.363281 0.147948,-0.708251 0.188965,-1.034913 0.04101,-0.326658 0.06152,-0.661375 0.06152,-1.00415 -10e-7,-0.697263 -0.07471,-1.357174 -0.224121,-1.979736 -0.149415,-0.622554 -0.424805,-1.37768 -0.826172,-2.265381 l 0.839356,0 c 0.442381,0.629889 0.785886,1.297857 1.030517,2.003906 0.244627,0.706059 0.366941,1.422367 0.366943,2.148926 -2e-6,0.612306 -0.09668,1.268556 -0.290039,1.96875 -0.219728,0.785156 -0.581544,1.560057 -1.085449,2.324707 z"
         style="font-weight:bold;fill:#ffffff;font-family:Sans;-inkscape-font-specification:Sans Bold"
         id="path3883"
         inkscape:connector-curvature="0" />
    </g>
  </g>
</svg>
