<?xml version="1.0" encoding="UTF-8" standalone="no"?>
<!-- Created with Inkscape (http://www.inkscape.org/) -->

<svg
   xmlns:dc="http://purl.org/dc/elements/1.1/"
   xmlns:cc="http://creativecommons.org/ns#"
   xmlns:rdf="http://www.w3.org/1999/02/22-rdf-syntax-ns#"
   xmlns:svg="http://www.w3.org/2000/svg"
   xmlns="http://www.w3.org/2000/svg"
   xmlns:sodipodi="http://sodipodi.sourceforge.net/DTD/sodipodi-0.dtd"
   xmlns:inkscape="http://www.inkscape.org/namespaces/inkscape"
   width="30"
   height="16"
   id="svg3797"
   version="1.1"
   inkscape:version="0.48.5 r10040"
   sodipodi:docname="file_geojson.svg"
   inkscape:export-filename="D:\dev\workspaces\potree\develop\resources\icons\point.png"
   inkscape:export-xdpi="90"
   inkscape:export-ydpi="90">
  <defs
     id="defs3799" />
  <sodipodi:namedview
     id="base"
     pagecolor="#ffffff"
     bordercolor="#666666"
     borderopacity="1.0"
     inkscape:pageopacity="0.0"
     inkscape:pageshadow="2"
     inkscape:zoom="22.395603"
     inkscape:cx="30.265484"
     inkscape:cy="1.3590001"
     inkscape:current-layer="layer1"
     showgrid="true"
     inkscape:grid-bbox="true"
     inkscape:document-units="px"
     inkscape:window-width="1920"
     inkscape:window-height="1018"
     inkscape:window-x="-8"
     inkscape:window-y="-8"
     inkscape:window-maximized="1">
    <inkscape:grid
       type="xygrid"
       id="grid3805"
       empspacing="5"
       visible="true"
       enabled="true"
       snapvisiblegridlinesonly="true" />
  </sodipodi:namedview>
  <metadata
     id="metadata3802">
    <rdf:RDF>
      <cc:Work
         rdf:about="">
        <dc:format>image/svg+xml</dc:format>
        <dc:type
           rdf:resource="http://purl.org/dc/dcmitype/StillImage" />
        <dc:title />
      </cc:Work>
    </rdf:RDF>
  </metadata>
  <g
     id="layer1"
     inkscape:label="Layer 1"
     inkscape:groupmode="layer"
     transform="translate(0,-16)">
    <text
       sodipodi:linespacing="125%"
       id="text3859"
       y="27"
       x="-20"
       style="font-size:9px;font-style:normal;font-variant:normal;font-weight:bold;font-stretch:normal;text-align:start;line-height:125%;letter-spacing:0px;word-spacing:0px;writing-mode:lr-tb;text-anchor:start;fill:#000000;fill-opacity:1;stroke:none;font-family:Sans;-inkscape-font-specification:Sans Bold"
       xml:space="preserve"><tspan
         y="27"
         x="-20"
         id="tspan3861"
         sodipodi:role="line">DXF</tspan></text>
    <text
       xml:space="preserve"
       style="font-size:9px;font-style:normal;font-variant:normal;font-weight:bold;font-stretch:normal;text-align:start;line-height:125%;letter-spacing:0px;word-spacing:0px;writing-mode:lr-tb;text-anchor:start;fill:#000000;fill-opacity:1;stroke:none;font-family:Sans;-inkscape-font-specification:Sans Bold"
       x="36"
       y="27"
       id="text3863"
       sodipodi:linespacing="125%"><tspan
         sodipodi:role="line"
         id="tspan3865"
         x="36"
         y="27">JSON</tspan></text>
    <g
       id="text3877"
       style="font-size:7.45153379px;font-style:normal;font-variant:normal;font-weight:bold;font-stretch:normal;text-align:start;line-height:125%;letter-spacing:0px;word-spacing:0px;writing-mode:lr-tb;text-anchor:start;fill:#000000;fill-opacity:1;stroke:none;font-family:Sans;-inkscape-font-specification:Sans Bold"
       transform="matrix(1.2078051,0,0,1.207805,-32.27147,-16.40592)">
      <path
         d="m 35.8125,30 c -0.51841,6e-6 -1.002329,0.06429 -1.4375,0.25 -0.211066,0.09008 -0.392513,0.314908 -0.59375,0.46875 a 1.0457523,1.0457523 0 0 0 -0.96875,-0.625 l -1.09375,0 A 1.0457523,1.0457523 0 0 0 30.6875,31.125 l 0,2.53125 a 1.0457523,1.0457523 0 0 0 -0.40625,0 l -1,0.125 A 1.0457523,1.0457523 0 0 0 28.375,34.8125 c 0.003,0.714474 0.138816,1.461465 0.6875,2.03125 0.514577,0.53437 1.253286,0.75 1.96875,0.75 0.593621,0 1.183576,-0.09189 1.6875,-0.4375 0.308306,-0.211451 0.470768,-0.556887 0.65625,-0.875 0.127813,0.182745 0.110034,0.446091 0.28125,0.59375 0.587809,0.506938 1.382062,0.71875 2.21875,0.71875 0.550156,0 1.071911,-0.04495 1.5625,-0.25 0.433723,-0.181285 0.845393,-0.490787 1.15625,-0.9375 0.03111,0.03525 0.02959,0.09098 0.0625,0.125 0.668636,0.691157 1.629213,1.0625 2.65625,1.0625 0.922984,0 1.761184,-0.336964 2.40625,-0.90625 A 1.0457523,1.0457523 0 0 0 44.75,37.5 l 1,0 a 1.0457523,1.0457523 0 0 0 1.03125,-0.8125 L 46.96875,37 a 1.0457523,1.0457523 0 0 0 0.90625,0.5 l 1.09375,0 A 1.0457523,1.0457523 0 0 0 50,36.46875 L 50,31.125 a 1.0457523,1.0457523 0 0 0 -1.03125,-1.03125 l -1,0 A 1.0457523,1.0457523 0 0 0 46.9375,30.9375 l -0.25,-0.375 a 1.0457523,1.0457523 0 0 0 -0.90625,-0.46875 l -1.03125,0 a 1.0457523,1.0457523 0 0 0 -1.03125,0.8125 C 43.060062,30.329879 42.204799,30.000006 41.28125,30 c -0.559516,6e-6 -1.078199,0.08945 -1.53125,0.28125 C 39.382983,30.434479 39.025145,30.684754 38.71875,31 38.575648,31.14724 38.485453,31.306319 38.375,31.46875 38.233858,31.210464 38.256746,30.883097 38.03125,30.6875 37.417573,30.155224 36.631909,30.000006 35.8125,30 z m 5.5,3 c 0.229181,3e-6 0.209801,0.01357 0.28125,0.09375 0.03226,0.0362 0.156247,0.233871 0.15625,0.6875 -3e-6,0.470968 -0.104317,0.62916 -0.15625,0.6875 -0.09481,0.106502 -0.110866,0.125 -0.28125,0.125 -0.174331,0 -0.179253,-0.01103 -0.28125,-0.125 -0.06982,-0.07802 -0.187501,-0.266514 -0.1875,-0.6875 -2e-6,-0.460806 0.11643,-0.642879 0.15625,-0.6875 0.05148,-0.05768 0.0776,-0.09375 0.3125,-0.09375 z"
         id="path3891"
         inkscape:original="M 35.8125 31.03125 C 35.402566 31.031255 35.071111 31.095049 34.78125 31.21875 C 34.491386 31.342463 34.247777 31.513506 34.09375 31.75 C 33.939719 31.986504 33.875 32.259584 33.875 32.53125 C 33.875 32.953313 34.047539 33.300252 34.375 33.59375 C 34.607859 33.802357 35.016449 33.98189 35.59375 34.125 C 36.042489 34.236581 36.311364 34.30009 36.4375 34.34375 C 36.621844 34.409244 36.76976 34.50522 36.84375 34.59375 C 36.917732 34.682288 36.937497 34.780119 36.9375 34.90625 C 36.937497 35.102727 36.863355 35.29075 36.6875 35.4375 C 36.511639 35.584256 36.253112 35.65625 35.90625 35.65625 C 35.578787 35.65625 35.317836 35.571194 35.125 35.40625 C 34.932161 35.241309 34.78182 34.976717 34.71875 34.625 L 33.6875 34.71875 C 33.757843 35.315456 33.98233 35.782057 34.34375 36.09375 C 34.705167 36.405443 35.200673 36.5625 35.875 36.5625 C 36.338293 36.5625 36.720766 36.504771 37.03125 36.375 C 37.341727 36.245229 37.611452 36.04807 37.78125 35.78125 C 37.951041 35.514432 38.031245 35.211881 38.03125 34.90625 C 38.031245 34.56909 37.954395 34.291724 37.8125 34.0625 C 37.670596 33.83328 37.469799 33.66345 37.21875 33.53125 C 36.967694 33.399057 36.586433 33.24871 36.0625 33.125 C 35.538562 33.001296 35.198334 32.895258 35.0625 32.78125 C 34.955769 32.691506 34.906248 32.563636 34.90625 32.4375 C 34.906248 32.299243 34.948493 32.20748 35.0625 32.125 C 35.239569 31.996443 35.499592 31.937504 35.8125 31.9375 C 36.115701 31.937504 36.348395 31.973685 36.5 32.09375 C 36.651598 32.213822 36.73516 32.413408 36.78125 32.6875 L 37.875 32.65625 C 37.858016 32.166277 37.682121 31.762256 37.34375 31.46875 C 37.005371 31.175255 36.48197 31.031255 35.8125 31.03125 z M 41.28125 31.03125 C 40.84706 31.031255 40.488559 31.109319 40.15625 31.25 C 39.906409 31.354308 39.678565 31.502874 39.46875 31.71875 C 39.258932 31.934636 39.090031 32.197084 38.96875 32.46875 C 38.806234 32.83745 38.71875 33.269163 38.71875 33.8125 C 38.71875 34.661473 38.938103 35.328588 39.40625 35.8125 C 39.874395 36.296413 40.519317 36.5625 41.3125 36.5625 C 42.095975 36.5625 42.71935 36.298839 43.1875 35.8125 C 43.655642 35.326163 43.874995 34.673601 43.875 33.8125 C 43.874995 32.944128 43.659279 32.268806 43.1875 31.78125 C 42.71571 31.293704 42.067151 31.031255 41.28125 31.03125 z M 31.71875 31.125 L 31.71875 34.5625 C 31.718747 34.994264 31.6932 35.300453 31.59375 35.4375 C 31.494297 35.574552 31.302635 35.625001 31.0625 35.625 C 30.824787 35.625001 30.647679 35.535375 30.53125 35.34375 C 30.453628 35.217618 30.41838 34.99313 30.40625 34.6875 L 29.40625 34.8125 C 29.408675 35.382524 29.528701 35.830287 29.8125 36.125 C 30.096298 36.419714 30.504887 36.5625 31.03125 36.5625 C 31.479989 36.5625 31.850901 36.469236 32.125 36.28125 C 32.399093 36.093264 32.583195 35.841732 32.6875 35.53125 C 32.765121 35.29354 32.812496 34.941466 32.8125 34.5 L 32.8125 31.125 L 31.71875 31.125 z M 44.75 31.125 L 44.75 36.46875 L 45.75 36.46875 L 45.75 32.96875 L 47.875 36.46875 L 48.96875 36.46875 L 48.96875 31.125 L 47.96875 31.125 L 47.96875 34.6875 L 45.78125 31.125 L 44.75 31.125 z M 41.3125 31.96875 C 41.756387 31.968755 42.106964 32.105476 42.375 32.40625 C 42.643028 32.707032 42.781246 33.169995 42.78125 33.78125 C 42.781246 34.399788 42.650304 34.846984 42.375 35.15625 C 42.099687 35.465519 41.741833 35.625001 41.3125 35.625 C 40.883161 35.625001 40.528945 35.467944 40.25 35.15625 C 39.971051 34.844558 39.812498 34.385234 39.8125 33.78125 C 39.812498 33.167569 39.947078 32.71067 40.21875 32.40625 C 40.490418 32.101838 40.868607 31.968755 41.3125 31.96875 z "
         inkscape:radius="1.0456477"
         sodipodi:type="inkscape:offset" />
    </g>
    <g
       style="font-size:9px;font-style:normal;font-variant:normal;font-weight:bold;font-stretch:normal;text-align:start;line-height:125%;letter-spacing:0px;word-spacing:0px;writing-mode:lr-tb;text-anchor:start;fill:#ffffff;fill-opacity:1;stroke:none;font-family:Sans;-inkscape-font-specification:Sans Bold"
       id="text3873">
      <path
         d="m 6.0570714,21.189514 1.2963868,0 0,4.078125 c -4.3e-6,0.533205 -0.046879,0.943361 -0.140625,1.230469 -0.1259806,0.375001 -0.354496,0.676026 -0.6855469,0.903076 -0.3310578,0.227051 -0.7675808,0.340576 -1.3095703,0.340576 -0.6357437,0 -1.125001,-0.177978 -1.4677735,-0.533935 C 3.4071688,26.851868 3.2343174,26.329652 3.2313879,25.641174 l 1.2260742,-0.140625 c 0.014647,0.369143 0.068846,0.629885 0.1625976,0.782227 0.1406233,0.231446 0.3544903,0.347169 0.6416016,0.347168 0.2900366,1e-6 0.4951145,-0.08276 0.6152344,-0.248291 0.1201142,-0.165526 0.1801728,-0.509032 0.1801757,-1.030518 z"
         style=""
         id="path3006" />
      <path
         d="m 8.4125402,25.535706 1.265625,-0.123047 c 0.07617,0.424806 0.2307111,0.736818 0.4636228,0.936035 0.232908,0.19922 0.547117,0.298829 0.942627,0.298828 0.418942,1e-6 0.734616,-0.08862 0.947022,-0.265869 0.212398,-0.177245 0.318599,-0.38452 0.318603,-0.621826 -4e-6,-0.152342 -0.04468,-0.281981 -0.134033,-0.388916 -0.08936,-0.106932 -0.245365,-0.199949 -0.468018,-0.279053 -0.152347,-0.05273 -0.499514,-0.146482 -1.041503,-0.28125 C 10.009218,24.637759 9.5199606,24.425357 9.2387121,24.173401 8.8432035,23.818913 8.6454498,23.386784 8.6454504,22.877014 c -6e-7,-0.32812 0.093017,-0.635004 0.2790527,-0.920654 0.1860341,-0.285639 0.4541003,-0.503168 0.8041992,-0.652588 0.3500957,-0.149408 0.7727027,-0.224115 1.2678227,-0.224121 0.80859,6e-6 1.417232,0.177252 1.825927,0.531738 0.408687,0.354498 0.623286,0.827642 0.643799,1.419434 l -1.300781,0.05713 c -0.05567,-0.33105 -0.175053,-0.569087 -0.358154,-0.714112 -0.183109,-0.145014 -0.457767,-0.217523 -0.823975,-0.217529 -0.377932,6e-6 -0.67383,0.07764 -0.887695,0.23291 -0.1376975,0.09962 -0.2065451,0.232915 -0.2065433,0.399903 -1.8e-6,0.152348 0.064451,0.282719 0.1933593,0.391113 0.16406,0.137699 0.562498,0.281254 1.195313,0.430664 0.632808,0.149418 1.100825,0.303959 1.404052,0.463623 0.303218,0.159671 0.540523,0.377933 0.711914,0.654785 0.171382,0.276858 0.257075,0.618899 0.25708,1.026123 -5e-6,0.369142 -0.102544,0.714845 -0.307617,1.03711 -0.205083,0.322266 -0.495122,0.561767 -0.870117,0.718505 -0.375004,0.156739 -0.842289,0.235108 -1.401855,0.235108 -0.814456,0 -1.4399433,-0.188233 -1.8764652,-0.564697 C 8.7582427,26.804994 8.4975007,26.25641 8.4125402,25.535706 z"
         style=""
         id="path3008" />
      <path
         d="m 14.490177,24.450256 c 0,-0.656246 0.09814,-1.207027 0.294434,-1.652343 0.146483,-0.32812 0.346434,-0.622554 0.599853,-0.883301 0.253416,-0.260736 0.531004,-0.454096 0.832764,-0.580078 0.401364,-0.169916 0.864255,-0.254877 1.388672,-0.254883 0.949214,6e-6 1.708735,0.29444 2.278564,0.883301 0.569818,0.588872 0.85473,1.407719 0.854736,2.456543 -6e-6,1.040041 -0.282721,1.853761 -0.848144,2.441162 -0.565435,0.587402 -1.321294,0.881103 -2.267578,0.881103 -0.958011,0 -1.719729,-0.292236 -2.285157,-0.876709 -0.56543,-0.584471 -0.848144,-1.389402 -0.848144,-2.414795 z m 1.340332,-0.04395 c -2e-6,0.729495 0.168455,1.282473 0.505371,1.658936 0.336912,0.376466 0.764645,0.564698 1.283203,0.564697 0.518551,1e-6 0.944087,-0.186767 1.276611,-0.560303 0.332515,-0.373533 0.498774,-0.933835 0.49878,-1.680908 -6e-6,-0.738277 -0.161871,-1.289058 -0.485596,-1.652344 -0.323735,-0.363276 -0.753666,-0.544916 -1.289795,-0.544922 -0.536136,6e-6 -0.968264,0.183843 -1.296387,0.551514 -0.328126,0.36768 -0.492189,0.922123 -0.492187,1.66333 z"
         style=""
         id="path3010" />
      <path
         d="m 21.763126,27.631897 0,-6.442383 1.265625,0 2.636719,4.302246 0,-4.302246 1.208496,0 0,6.442383 -1.305176,0 -2.597168,-4.201172 0,4.201172 z"
         style=""
         id="path3012" />
    </g>
    <g
       id="g3962"
       transform="translate(-30.885486,-3.8859141)">
      <g
         transform="matrix(1.2076814,0,0,1.2079287,-11.232871,-4.3113471)"
         id="g3943">
        <g
           id="text3929"
           style="font-size:7.45153379px;font-style:normal;font-variant:normal;font-weight:bold;font-stretch:normal;text-align:start;line-height:125%;letter-spacing:0px;word-spacing:0px;writing-mode:lr-tb;text-anchor:start;fill:#000000;fill-opacity:1;stroke:none;font-family:Sans;-inkscape-font-specification:Sans Bold"
           transform="scale(1.0001024,0.99989762)">
          <path
             d="m 17.6875,30.28125 a 1.0167554,1.0167554 0 0 0 -1.03125,1.03125 l 0,5.34375 a 1.0167554,1.0167554 0 0 0 1.03125,1.03125 l 2.03125,0 c 0.482666,0 0.906153,-0.06886 1.28125,-0.1875 0.226456,-0.07261 0.437309,-0.248639 0.65625,-0.375 a 1.0167554,1.0167554 0 0 0 0.875,0.5625 l 1.3125,0 a 1.0167554,1.0167554 0 0 0 0.84375,-0.46875 l 0.34375,-0.53125 0.34375,0.53125 a 1.0167554,1.0167554 0 0 0 0.84375,0.46875 l 1.28125,0 a 1.0167554,1.0167554 0 0 0 0.28125,-0.0625 1.0167554,1.0167554 0 0 0 0.03125,0 1.0167554,1.0167554 0 0 0 0.25,0.0625 l 1.09375,0 a 1.0167554,1.0167554 0 0 0 1.03125,-1.03125 l 0,-1.25 1.1875,0 A 1.0167554,1.0167554 0 0 0 32.40625,34.375 l 0,-0.90625 a 1.0167554,1.0167554 0 0 0 -0.09375,-0.40625 1.0167554,1.0167554 0 0 0 0,-0.03125 1.0167554,1.0167554 0 0 0 0.4375,-0.8125 l 0,-0.90625 a 1.0167554,1.0167554 0 0 0 -1.03125,-1.03125 l -3.65625,0 a 1.0167554,1.0167554 0 0 0 -0.34375,0.0625 1.0167554,1.0167554 0 0 0 -0.03125,0 1.0167554,1.0167554 0 0 0 -0.34375,-0.0625 l -1.25,0 a 1.0167554,1.0167554 0 0 0 -0.875,0.5 l -0.1875,0.3125 -0.1875,-0.3125 a 1.0167554,1.0167554 0 0 0 -0.875,-0.5 l -1.25,0 a 1.0167554,1.0167554 0 0 0 -0.9375,0.65625 c -0.256719,-0.18474 -0.502851,-0.408778 -0.8125,-0.5 -0.432605,-0.126173 -0.829185,-0.156243 -1.3125,-0.15625 l -1.96875,0 z m 2.125,3 c 0.01585,0.0016 0.130355,0.0012 0.125,0 0.05596,0.01214 0.05085,0.01851 0.03125,0 -0.03277,-0.03095 -0.05004,-0.08928 0,0.0625 0.02212,0.06709 0.0625,0.329747 0.0625,0.65625 -2e-6,0.326522 -0.02336,0.558999 -0.0625,0.6875 -0.01688,0.0043 -0.114233,-0.0056 -0.15625,0 l 0,-1.40625 z m 7.21875,0.40625 0,0.40625 -0.125,-0.1875 0.125,-0.21875 z"
             id="path3941"
             inkscape:original="M 17.6875 31.3125 L 17.6875 36.65625 L 19.71875 36.65625 C 20.11655 36.65625 20.449785 36.60644 20.6875 36.53125 C 21.005254 36.429373 21.250722 36.306922 21.4375 36.125 C 21.684909 35.884863 21.866586 35.544351 22 35.15625 C 22.10915 34.838494 22.156245 34.470291 22.15625 34.03125 C 22.156245 33.531573 22.116425 33.122055 22 32.78125 C 21.883565 32.440453 21.723153 32.14154 21.5 31.90625 C 21.276838 31.670968 21.000402 31.49843 20.6875 31.40625 C 20.454636 31.338333 20.100137 31.312506 19.65625 31.3125 L 17.6875 31.3125 z M 22.71875 31.3125 L 24.375 33.875 L 22.53125 36.65625 L 23.84375 36.65625 L 25.03125 34.8125 L 26.21875 36.65625 L 27.5 36.65625 L 25.6875 33.90625 L 27.34375 31.3125 L 26.09375 31.3125 L 25.03125 33.03125 L 23.96875 31.3125 L 22.71875 31.3125 z M 28.0625 31.3125 L 28.0625 36.65625 L 29.15625 36.65625 L 29.15625 34.375 L 31.375 34.375 L 31.375 33.46875 L 29.15625 33.46875 L 29.15625 32.21875 L 31.71875 32.21875 L 31.71875 31.3125 L 28.0625 31.3125 z M 18.78125 32.21875 L 19.25 32.21875 C 19.689036 32.21876 20.005858 32.24729 20.15625 32.28125 C 20.357574 32.324915 20.525262 32.407547 20.65625 32.53125 C 20.78723 32.654961 20.86473 32.810522 20.9375 33.03125 C 21.010263 33.251986 21.062497 33.587646 21.0625 34 C 21.062497 34.41236 21.01027 34.729827 20.9375 34.96875 C 20.864728 35.207675 20.771463 35.36445 20.65625 35.46875 C 20.541029 35.573054 20.393392 35.64384 20.21875 35.6875 C 20.085337 35.72146 19.894525 35.750001 19.59375 35.75 L 18.78125 35.75 L 18.78125 32.21875 z "
             inkscape:radius="1.0166538"
             sodipodi:type="inkscape:offset" />
        </g>
        <text
           xml:space="preserve"
           style="font-size:7.45153379px;font-style:normal;font-variant:normal;font-weight:bold;font-stretch:normal;text-align:start;line-height:125%;letter-spacing:0px;word-spacing:0px;writing-mode:lr-tb;text-anchor:start;fill:#ffffff;fill-opacity:1;stroke:none;font-family:Sans;-inkscape-font-specification:Sans Bold"
           x="17.159304"
           y="36.652206"
           id="text3893"
           sodipodi:linespacing="125%"
           transform="scale(1.0001024,0.99989762)"><tspan
             sodipodi:role="line"
             id="tspan3895"
             x="17.159304"
             y="36.652206">DXF</tspan></text>
      </g>
    </g>
    <g
       id="g3832"
       transform="matrix(1,0,0,0.99466628,-24.5,-10.898659)">
      <path
         transform="translate(0,16)"
         d="M 2.34375,2.1875 A 0.82341756,0.82341756 0 0 0 1.6875,3 l 0,1.9375 A 0.82341756,0.82341756 0 0 0 0.75,5.0625 L 0.0625,5.75 a 0.82341756,0.82341756 0 0 0 0,1.1875 l 2,1.96875 0.34375,0.375 a 0.82341756,0.82341756 0 0 0 1.1875,0 L 3.9375,8.9375 l 0,-0.03125 2,-1.96875 a 0.82341756,0.82341756 0 0 0 0,-1.1875 L 5.25,5.0625 A 0.82341756,0.82341756 0 0 0 4.3125,4.90625 L 4.3125,3 A 0.82341756,0.82341756 0 0 0 3.5,2.1875 l -1,0 a 0.82341756,0.82341756 0 0 0 -0.15625,0 z"
         id="path3830"
         style="font-size:medium;font-style:normal;font-variant:normal;font-weight:normal;font-stretch:normal;text-indent:0;text-align:start;text-decoration:none;line-height:normal;letter-spacing:normal;word-spacing:normal;text-transform:none;direction:ltr;block-progression:tb;writing-mode:lr-tb;text-anchor:start;baseline-shift:baseline;color:#000000;fill:#000000;fill-opacity:1;stroke:none;stroke-width:1px;marker:none;visibility:visible;display:inline;overflow:visible;enable-background:accumulate;font-family:Sans;-inkscape-font-specification:Sans"
         inkscape:original="M 2.5 3 L 2.5 6.8125 L 1.34375 5.65625 L 0.65625 6.34375 L 2.65625 8.34375 L 3 8.71875 L 3.34375 8.34375 L 5.34375 6.34375 L 4.65625 5.65625 L 3.5 6.8125 L 3.5 3 L 2.5 3 z "
         inkscape:radius="0.82333523"
         sodipodi:type="inkscape:offset" />
      <path
         transform="translate(0,16)"
         id="path3819"
         d="m 2.5,3 0,3.8125 -1.15625,-1.15625 -0.6875,0.6875 2,2 0.34375,0.375 0.34375,-0.375 2,-2 L 4.65625,5.65625 3.5,6.8125 3.5,3 2.5,3 z"
         style="font-size:medium;font-style:normal;font-variant:normal;font-weight:normal;font-stretch:normal;text-indent:0;text-align:start;text-decoration:none;line-height:normal;letter-spacing:normal;word-spacing:normal;text-transform:none;direction:ltr;block-progression:tb;writing-mode:lr-tb;text-anchor:start;baseline-shift:baseline;color:#000000;fill:#ffffff;fill-opacity:1;stroke:none;stroke-width:1px;marker:none;visibility:visible;display:inline;overflow:visible;enable-background:accumulate;font-family:Sans;-inkscape-font-specification:Sans"
         inkscape:connector-curvature="0" />
    </g>
  </g>
</svg>
