<?xml version="1.0" encoding="UTF-8" standalone="no"?>
<!-- Created with Inkscape (http://www.inkscape.org/) -->

<svg
   xmlns:dc="http://purl.org/dc/elements/1.1/"
   xmlns:cc="http://creativecommons.org/ns#"
   xmlns:rdf="http://www.w3.org/1999/02/22-rdf-syntax-ns#"
   xmlns:svg="http://www.w3.org/2000/svg"
   xmlns="http://www.w3.org/2000/svg"
   xmlns:sodipodi="http://sodipodi.sourceforge.net/DTD/sodipodi-0.dtd"
   xmlns:inkscape="http://www.inkscape.org/namespaces/inkscape"
   width="32px"
   height="32px"
   id="svg3797"
   version="1.1"
   inkscape:version="0.48.5 r10040"
   sodipodi:docname="fps_controls.svg"
   inkscape:export-filename="D:\dev\workspaces\potree\develop\resources\icons\fps_controls.png"
   inkscape:export-xdpi="90"
   inkscape:export-ydpi="90">
  <defs
     id="defs3799">
    <marker
       inkscape:stockid="Arrow1Lstart"
       orient="auto"
       refY="0.0"
       refX="0.0"
       id="Arrow1Lstart"
       style="overflow:visible">
      <path
         id="path3832"
         d="M 0.0,0.0 L 5.0,-5.0 L -12.5,0.0 L 5.0,5.0 L 0.0,0.0 z "
         style="fill-rule:evenodd;stroke:#000000;stroke-width:1.0pt"
         transform="scale(0.8) translate(12.5,0)" />
    </marker>
    <marker
       inkscape:stockid="DotL"
       orient="auto"
       refY="0.0"
       refX="0.0"
       id="DotL"
       style="overflow:visible">
      <path
         id="path3893"
         d="M -2.5,-1.0 C -2.5,1.7600000 -4.7400000,4.0 -7.5,4.0 C -10.260000,4.0 -12.5,1.7600000 -12.5,-1.0 C -12.5,-3.7600000 -10.260000,-6.0 -7.5,-6.0 C -4.7400000,-6.0 -2.5,-3.7600000 -2.5,-1.0 z "
         style="fill-rule:evenodd;stroke:#000000;stroke-width:1.0pt"
         transform="scale(0.8) translate(7.4, 1)" />
    </marker>
  </defs>
  <sodipodi:namedview
     id="base"
     pagecolor="#ffffff"
     bordercolor="#666666"
     borderopacity="1.0"
     inkscape:pageopacity="0.0"
     inkscape:pageshadow="2"
     inkscape:zoom="7.9180417"
     inkscape:cx="13.237039"
     inkscape:cy="10.566461"
     inkscape:current-layer="layer1"
     showgrid="true"
     inkscape:grid-bbox="true"
     inkscape:document-units="px"
     inkscape:window-width="894"
     inkscape:window-height="1029"
     inkscape:window-x="25"
     inkscape:window-y="36"
     inkscape:window-maximized="0">
    <inkscape:grid
       type="xygrid"
       id="grid3805" />
  </sodipodi:namedview>
  <metadata
     id="metadata3802">
    <rdf:RDF>
      <cc:Work
         rdf:about="">
        <dc:format>image/svg+xml</dc:format>
        <dc:type
           rdf:resource="http://purl.org/dc/dcmitype/StillImage" />
        <dc:title />
      </cc:Work>
    </rdf:RDF>
  </metadata>
  <g
     id="layer1"
     inkscape:label="Layer 1"
     inkscape:groupmode="layer">
    <path
       style="fill:#000000"
       d=""
       id="path3840"
       inkscape:connector-curvature="0" />
    <path
       sodipodi:type="inkscape:offset"
       inkscape:radius="0.73263115"
       inkscape:original="M 2.5 9.34375 C 2.5 9.41551 2.4212278 9.44797 2.3125 9.40625 C 2.1668584 9.350364 2.135393 9.414903 2.1875 9.6875 C 2.2329108 9.925057 2.3735205 10.10098 2.59375 10.15625 C 2.782409 10.203602 2.9375 10.28137 2.9375 10.34375 C 2.9375 10.496541 4.6274406 11.605718 5.375 11.9375 C 5.5730581 12.025404 5.8728036 12.197446 6.03125 12.34375 C 6.189696 12.490055 6.441219 12.62958 6.59375 12.65625 C 6.746279 12.68292 7.023021 12.852997 7.21875 13.03125 C 7.414486 13.209503 7.666401 13.375 7.78125 13.375 C 7.8961 13.375 8.164723 13.453095 8.375 13.5625 C 8.980004 13.877271 10.193865 14.3835 10.3125 14.375 C 10.448269 14.365254 10.9983 14.917108 11 15.0625 C 11.000688 15.121918 11.223406 15.395702 11.5 15.6875 C 11.776593 15.979298 12 16.28653 12 16.34375 C 12 16.40098 12.188386 16.656094 12.40625 16.9375 C 12.624114 17.218907 13.134559 17.981454 13.53125 18.625 C 14.010319 19.402192 14.325931 19.78894 14.46875 19.75 C 14.647527 19.70125 14.63542 19.696008 14.46875 19.8125 C 14.301504 19.9294 14.32467 20.032088 14.5625 20.375 C 14.93564 20.913009 15.04757 21.261674 15.09375 21.875 C 15.114629 22.152282 15.19505 22.46511 15.25 22.59375 C 15.320044 22.757725 15.200297 22.904278 14.90625 23.09375 C 14.67557 23.242392 14.146299 23.622754 13.71875 23.90625 C 12.955495 24.412343 11.199946 25.1875 10.8125 25.1875 C 10.704201 25.1875 10.50488 25.287416 10.40625 25.40625 C 10.253934 25.589781 10.304798 25.62506 10.65625 25.625 C 10.883813 25.62496 11.403868 25.499064 11.8125 25.34375 C 12.482486 25.08911 12.57638 25.073105 12.65625 25.28125 C 12.73092 25.475836 12.891193 25.48607 13.75 25.40625 C 14.310301 25.354175 14.896637 25.24502 15.0625 25.15625 C 15.269502 25.04546 15.791629 25.04598 16.6875 25.125 C 18.567966 25.290868 18.878205 25.266815 20 25 C 23.26357 24.223767 24.382426 23.725014 26.0625 22.3125 C 26.382941 22.043089 27.400526 21.814521 27.59375 21.96875 C 27.767101 22.10712 28.412234 22.087767 28.5625 21.9375 C 28.75262 21.747382 28.25164 21.14408 27.84375 21.0625 C 27.598396 21.013429 27.35519 20.861245 27.3125 20.75 C 27.166769 20.370233 25.899133 19.84375 25.125 19.84375 C 24.308159 19.84375 24.105566 19.641118 24.40625 19.09375 C 24.507569 18.909306 24.60867 18.69094 24.625 18.59375 C 24.680204 18.265318 25.457136 17.453889 26.6875 16.4375 C 28.02298 15.334273 28.490299 14.833267 28.34375 14.6875 C 28.291587 14.63562 27.647621 14.593719 26.90625 14.59375 C 25.567796 14.593807 25.565415 14.606306 25.0625 15.09375 C 24.783934 15.363747 24.58707 15.62614 24.625 15.6875 C 24.662925 15.748864 24.489066 15.921279 24.25 16.0625 C 24.010934 16.203719 23.8125 16.34812 23.8125 16.40625 C 23.8125 16.578845 22.903593 17.410292 22.4375 17.65625 C 22.19983 17.781669 21.96446 17.94327 21.90625 18.03125 C 21.83243 18.14282 21.814 18.126442 21.8125 18 C 21.810145 17.806472 21.419332 17.96571 20.90625 18.375 C 20.693656 18.544587 20.603982 18.441371 19.96875 17.5 C 19.519137 16.8337 19.059174 15.929968 18.75 15.03125 C 18.478788 14.242876 18.18283 13.445791 18.09375 13.28125 C 17.911302 12.944285 16.411161 12.160725 14.65625 11.5 C 13.430924 11.038663 11.006147 10.475716 10.8125 10.59375 C 10.750854 10.631324 10.305417 10.558942 9.8125 10.4375 C 8.82041 10.193074 5.5767223 9.64483 4.625 9.5625 C 4.2900306 9.533526 3.9000856 9.47842 3.78125 9.4375 C 3.3233235 9.27983 2.5 9.219425 2.5 9.34375 z "
       style="fill:#000000"
       id="path3965-8"
       d="m 2.5625,8.5625 c -0.081479,0.00904 -0.1720579,0.00287 -0.3125,0.0625 -0.014404,0.00612 -0.046387,0.023577 -0.0625,0.03125 -0.015803,0.00101 -0.014215,-0.00185 -0.03125,0 -0.06842,0.00741 -0.1112945,0.1176295 -0.1875,0.15625 C 1.7924537,8.9018459 1.5652735,8.9807454 1.5,9.125 1.3130231,9.5382195 1.4355887,9.6390172 1.46875,9.8125 c 0.085253,0.445983 0.4326792,0.935807 0.9375,1.0625 0.014536,0.0036 0.019008,-0.0041 0.03125,0 0.02466,0.02716 0.039604,0.07185 0.0625,0.09375 0.081628,0.07808 0.1841283,0.144155 0.28125,0.21875 0.1942435,0.14919 0.4187765,0.324022 0.6875,0.5 0.537447,0.351957 1.1303797,0.700597 1.59375,0.90625 0.1246064,0.0553 0.4383361,0.253167 0.46875,0.28125 0.2717981,0.250971 0.4925322,0.422198 0.9375,0.5 -0.109962,-0.01923 -0.038872,-0.01114 0.03125,0.03125 0.070122,0.04239 0.1622117,0.10476 0.21875,0.15625 0.1300987,0.118478 0.2890248,0.25091 0.4375,0.34375 0.1484752,0.09284 0.2156692,0.1875 0.625,0.1875 -0.1086317,0 -0.036988,0.01023 0.03125,0.03125 0.068238,0.02102 0.1636102,0.06506 0.21875,0.09375 0.3378169,0.175759 0.8102609,0.391562 1.21875,0.5625 0.2042445,0.08547 0.3744338,0.130144 0.53125,0.1875 0.078408,0.02868 0.1490522,0.07295 0.21875,0.09375 0.0058,0.0017 0.02663,-0.0021 0.03125,0 0.0046,0.0021 0.02727,-0.0023 0.03125,0 0.0325,0.02655 0.07924,0.07917 0.125,0.125 0.0572,0.05728 0.101115,0.124346 0.125,0.15625 0.01194,0.01595 0.04238,0.02086 0.03125,0 0.0061,0.01089 -0.0049,0.05238 0,0.0625 0.02803,0.05752 0.07024,0.08914 0.09375,0.125 0.04703,0.07172 0.07062,0.151125 0.125,0.21875 0.108756,0.135251 0.256793,0.279827 0.40625,0.4375 0.11773,0.124202 0.241629,0.24936 0.3125,0.34375 0.01363,0.01815 0.021,0.01668 0.03125,0.03125 0.0164,0.02331 0.02755,0.05643 0.03125,0.0625 0.0026,0.0055 -0.0023,0.02593 0,0.03125 0.02372,0.05531 0.04269,0.09081 0.0625,0.125 0.03961,0.06838 0.0811,0.124831 0.125,0.1875 0.0878,0.125337 0.169288,0.261633 0.28125,0.40625 0.164774,0.212833 0.708718,1.000368 1.09375,1.625 0.248761,0.403563 0.458028,0.729616 0.65625,0.96875 0.02973,0.03587 0.06389,0.06045 0.09375,0.09375 0.0018,0.0189 -0.0031,0.04507 0,0.0625 0.05966,0.339443 0.180416,0.465806 0.3125,0.65625 0.327765,0.472585 0.365164,0.610577 0.40625,1.15625 0.016,0.212442 0.05142,0.359368 0.09375,0.53125 -0.283003,0.183734 -0.75547,0.546754 -1.15625,0.8125 -0.309593,0.205283 -0.913334,0.536245 -1.46875,0.78125 -0.277708,0.122502 -0.546006,0.24134 -0.75,0.3125 -0.203994,0.07116 -0.428682,0.09375 -0.28125,0.09375 -0.279457,0 -0.417535,0.04872 -0.5625,0.125 -0.144965,0.07628 -0.266482,0.175351 -0.40625,0.34375 -0.058243,0.07018 -0.1169491,0.12843 -0.1875,0.3125 -0.035275,0.09203 -0.090912,0.224181 -0.0625,0.40625 0.028412,0.182069 0.1616076,0.398982 0.28125,0.5 0.239285,0.202036 0.392551,0.174711 0.5,0.1875 0.107449,0.01279 0.181127,1.7e-5 0.28125,0 0.497579,-8.7e-5 0.927555,-0.130556 1.40625,-0.3125 0.151401,-0.05754 0.13577,-0.03679 0.21875,-0.0625 0.01286,0.0102 0.01767,0.02181 0.03125,0.03125 0.180743,0.125659 0.38417,0.171639 0.53125,0.1875 0.294161,0.03172 0.532292,-0.02193 0.96875,-0.0625 0.303669,-0.02822 0.610487,-0.07497 0.875,-0.125 0.264513,-0.05003 0.429306,-0.03259 0.71875,-0.1875 -0.122864,0.06576 -0.0042,0.0032 0.21875,0 0.222985,-0.0032 0.564333,-0.0072 1,0.03125 1.893667,0.167032 2.389516,0.146557 3.53125,-0.125 3.295627,-0.783858 4.637314,-1.382799 6.375,-2.84375 -0.05405,0.04544 0.251717,-0.13175 0.5,-0.1875 0.124141,-0.02788 0.252675,-0.0294 0.3125,-0.03125 0.05983,-0.0019 0.04694,0.08707 -0.21875,-0.125 0.223005,0.178004 0.380027,0.192226 0.53125,0.21875 0.151223,0.02652 0.324161,0.03578 0.46875,0.03125 0.144589,-0.0045 0.286896,0.0059 0.4375,-0.03125 0.150604,-0.03712 0.3139,-0.0639 0.53125,-0.28125 C 29.392033,22.17047 29.351085,21.72199 29.28125,21.5 29.211415,21.27801 29.119241,21.144519 29,21 c -0.238483,-0.289039 -0.512049,-0.558657 -1,-0.65625 -0.0255,-0.0051 -0.101268,-0.01701 -0.125,-0.03125 -0.02373,-0.01424 0.01965,-0.08702 0.125,0.1875 -0.143426,-0.373761 -0.352953,-0.514048 -0.5625,-0.65625 -0.209547,-0.142202 -0.43588,-0.270661 -0.6875,-0.375 -0.484713,-0.200995 -1.029743,-0.332691 -1.5625,-0.34375 0.0057,-0.01248 0.0257,-0.01879 0.03125,-0.03125 0.05063,-0.113712 0.09075,-0.171179 0.125,-0.375 -0.02459,0.146288 -0.0071,0.06502 0.0625,-0.03125 0.06957,-0.09627 0.181639,-0.236817 0.34375,-0.40625 0.324223,-0.338867 0.806495,-0.7858 1.40625,-1.28125 0.677373,-0.559571 1.126457,-0.951542 1.4375,-1.28125 0.155521,-0.164854 0.301902,-0.299434 0.40625,-0.5 0.05217,-0.100283 0.08507,-0.247391 0.09375,-0.4375 0.0087,-0.190109 -0.05703,-0.464143 -0.21875,-0.625 -0.256237,-0.254846 -0.339256,-0.170477 -0.40625,-0.1875 -0.06699,-0.01702 -0.100864,-0.02341 -0.15625,-0.03125 -0.110772,-0.01568 -0.23362,-0.05329 -0.375,-0.0625 -0.28276,-0.01843 -0.646753,-1.6e-5 -1.03125,0 -0.671508,2.9e-5 -1.036478,-0.01758 -1.4375,0.09375 -0.401022,0.111327 -0.656625,0.351804 -0.90625,0.59375 -0.162518,0.157519 -0.322705,0.313822 -0.4375,0.46875 -0.0574,0.07746 -0.103313,0.16781 -0.15625,0.28125 -0.008,0.01712 -0.02308,0.04265 -0.03125,0.0625 -0.02506,0.01851 -0.02998,0.04329 -0.0625,0.0625 -0.137257,0.08108 -0.257011,0.15943 -0.375,0.25 -0.05899,0.04528 -0.11896,0.08286 -0.1875,0.15625 -0.06854,0.07339 -0.21875,0.131146 -0.21875,0.5625 0,-0.236488 0.0097,-0.236344 0.03125,-0.25 -0.06373,0.07308 -0.184927,0.196236 -0.3125,0.3125 -0.255146,0.232528 -0.613221,0.475562 -0.71875,0.53125 -0.111091,0.05862 -0.211519,0.121586 -0.3125,0.1875 -0.230149,-0.01398 -0.375599,0.04251 -0.5,0.09375 -0.133451,0.05497 -0.277817,0.168776 -0.40625,0.25 -0.09055,-0.121249 -0.122665,-0.156178 -0.3125,-0.4375 -0.40739,-0.603728 -0.83939,-1.48228 -1.125,-2.3125 -0.137566,-0.399884 -0.284214,-0.798564 -0.40625,-1.125 C 18.909214,13.329814 18.868623,13.15661 18.75,12.9375 18.560842,12.588143 18.355223,12.499638 18.125,12.34375 17.894777,12.187862 17.638144,12.044153 17.3125,11.875 16.661211,11.536694 15.808658,11.152257 14.90625,10.8125 14.236412,10.560305 13.307841,10.314339 12.5,10.125 12.09608,10.03033 11.739957,9.9541946 11.4375,9.90625 c -0.151228,-0.023972 -0.277242,-0.055108 -0.40625,-0.0625 -0.0645,-0.0037 -0.138006,-0.00633 -0.21875,0 -0.01413,0.00111 -0.04707,0.030643 -0.0625,0.03125 -0.0034,-2.001e-4 -0.02488,5.902e-4 -0.03125,0 -0.02676,-0.00248 -0.06397,-0.021597 -0.125,-0.03125 C 10.442636,9.8198475 10.229514,9.7752963 10,9.71875 8.8948296,9.4464638 5.7750491,8.9378299 4.6875,8.84375 4.5354268,8.8305961 4.3562768,8.8013274 4.21875,8.78125 4.0812232,8.7611726 3.9531456,8.7231054 4.03125,8.75 3.701724,8.63654 3.3515207,8.5859591 3.03125,8.5625 2.8711147,8.5507705 2.725458,8.5444219 2.5625,8.5625 z m 19.875,9.15625 c 0.01117,0.01935 0.05516,0.04701 0.0625,0.0625 0.04227,0.08921 0.02598,0.12629 0.03125,0.15625 0.01054,0.05992 1.66e-4,0.0765 0,0.0625 -9.48e-4,-0.07791 -0.05808,-0.182105 -0.09375,-0.28125 z M 14.25,20.375 c 0.06999,0.02575 0.12656,0.06072 0.21875,0.0625 l -0.03125,0 c 2.92e-4,6.7e-5 -0.187707,-0.06261 -0.1875,-0.0625 z"
       transform="translate(0.125,-0.53125)" />
    <path
       sodipodi:type="inkscape:offset"
       inkscape:radius="-0.33019269"
       inkscape:original="M 2.59375 7.96875 C 2.59375 8.040504 2.4837278 8.041724 2.375 8 C 2.2293583 7.9441133 2.1978935 8.0399031 2.25 8.3125 C 2.2954108 8.5500567 2.4672705 8.6947285 2.6875 8.75 C 2.876159 8.7973512 3.03125 8.9063719 3.03125 8.96875 C 3.03125 9.1215407 4.7211906 10.199468 5.46875 10.53125 C 5.6668081 10.619154 5.966554 10.822446 6.125 10.96875 C 6.2834459 11.115055 6.5349696 11.254582 6.6875 11.28125 C 6.8400295 11.30792 7.1167712 11.477997 7.3125 11.65625 C 7.5082357 11.834503 7.7601507 11.96875 7.875 11.96875 C 7.9898493 11.96875 8.2584736 12.078095 8.46875 12.1875 C 9.0737548 12.502271 10.287615 13.0085 10.40625 13 C 10.542019 12.990254 11.09205 13.542108 11.09375 13.6875 C 11.094438 13.746918 11.317156 14.020702 11.59375 14.3125 C 11.870343 14.604298 12.09375 14.88028 12.09375 14.9375 C 12.09375 14.99473 12.282136 15.281094 12.5 15.5625 C 12.717864 15.843907 13.197059 16.606454 13.59375 17.25 C 14.072819 18.027192 14.388431 18.38269 14.53125 18.34375 C 14.710027 18.295 14.72917 18.321008 14.5625 18.4375 C 14.395254 18.5544 14.41842 18.657088 14.65625 19 C 15.02939 19.538009 15.14132 19.855424 15.1875 20.46875 C 15.208379 20.746032 15.25755 21.09011 15.3125 21.21875 C 15.382544 21.382725 15.294047 21.529278 15 21.71875 C 14.76932 21.867392 14.240049 22.216504 13.8125 22.5 C 13.049245 23.006093 11.262446 23.78125 10.875 23.78125 C 10.766701 23.78125 10.59863 23.881166 10.5 24 C 10.347684 24.183531 10.398548 24.21881 10.75 24.21875 C 10.977563 24.21871 11.497618 24.092814 11.90625 23.9375 C 12.576235 23.68286 12.63888 23.698105 12.71875 23.90625 C 12.79342 24.100836 12.984943 24.11107 13.84375 24.03125 C 14.404051 23.979175 14.990387 23.87002 15.15625 23.78125 C 15.363252 23.67046 15.885379 23.63973 16.78125 23.71875 C 18.661716 23.884618 18.971955 23.891815 20.09375 23.625 C 23.35732 22.848767 24.476176 22.350014 26.15625 20.9375 C 26.476691 20.668089 27.494276 20.439521 27.6875 20.59375 C 27.860851 20.73212 28.474734 20.712767 28.625 20.5625 C 28.81512 20.372382 28.34539 19.73783 27.9375 19.65625 C 27.692146 19.607179 27.44894 19.486245 27.40625 19.375 C 27.260519 18.995233 25.961633 18.46875 25.1875 18.46875 C 24.370659 18.46875 24.199316 18.266118 24.5 17.71875 C 24.601319 17.534306 24.70242 17.31594 24.71875 17.21875 C 24.773954 16.890318 25.550886 16.047639 26.78125 15.03125 C 28.11673 13.928023 28.584049 13.458267 28.4375 13.3125 C 28.385337 13.26062 27.741371 13.218719 27 13.21875 C 25.661546 13.218807 25.659165 13.200056 25.15625 13.6875 C 24.877684 13.957497 24.68082 14.25114 24.71875 14.3125 C 24.756675 14.373864 24.582816 14.515029 24.34375 14.65625 C 24.104684 14.797469 23.90625 14.97312 23.90625 15.03125 C 23.90625 15.203845 22.997343 16.004042 22.53125 16.25 C 22.29358 16.375419 22.05821 16.56827 22 16.65625 C 21.92618 16.76782 21.8765 16.751442 21.875 16.625 C 21.872645 16.431472 21.513082 16.59071 21 17 C 20.787406 17.169587 20.666482 17.066371 20.03125 16.125 C 19.581637 15.4587 19.152924 14.523718 18.84375 13.625 C 18.572538 12.836626 18.27658 12.070791 18.1875 11.90625 C 18.005052 11.569285 16.504911 10.785725 14.75 10.125 C 13.524674 9.663663 11.099897 9.0694656 10.90625 9.1875 C 10.844604 9.225074 10.399167 9.1839423 9.90625 9.0625 C 8.9141597 8.8180738 5.6704723 8.269833 4.71875 8.1875 C 4.3837806 8.1585225 3.9938356 8.10342 3.875 8.0625 C 3.4170735 7.904826 2.59375 7.8444248 2.59375 7.96875 z "
       style="fill:#ffffff;fill-opacity:1"
       id="path3967-8"
       d="m 2.78125,8.25 c -0.00632,0.00606 0.00663,0.02598 0,0.03125 -0.046896,0.037291 -0.083211,0.018856 -0.125,0.03125 0.029621,0.038893 0.046925,0.1054054 0.125,0.125 0.1316422,0.033041 0.2455936,0.060505 0.34375,0.125 0.049078,0.032248 0.079702,0.073887 0.125,0.125 0.020548,0.023185 0.041759,0.088269 0.0625,0.125 -0.00547,-0.00713 0.015263,-0.015007 0.03125,0 0.031975,0.030013 0.076724,0.09654 0.15625,0.15625 0.1590516,0.1194211 0.4030548,0.2755247 0.65625,0.4375 0.5063904,0.3239506 1.100585,0.66297 1.4375,0.8125 0.2576839,0.114368 0.5510674,0.316312 0.75,0.5 0.1073594,0.09913 0.3855274,0.246377 0.40625,0.25 0.1601959,0.02801 0.2743345,0.07651 0.40625,0.15625 0.1319155,0.07974 0.2585101,0.175161 0.375,0.28125 0.076239,0.06943 0.1725867,0.145035 0.25,0.1875 0.077413,0.04246 0.1649791,0.03125 0.09375,0.03125 0.1622139,0 0.2519687,0.04694 0.375,0.09375 0.1230313,0.04681 0.2587466,0.127014 0.375,0.1875 0.2865863,0.149105 0.7376461,0.337907 1.125,0.5 0.1936769,0.08105 0.367672,0.170351 0.5,0.21875 0.05344,0.01955 0.0908,0.02037 0.125,0.03125 0.135896,-0.0098 0.197037,0.03522 0.25,0.0625 0.05296,0.02728 0.111353,0.06032 0.15625,0.09375 0.08979,0.06687 0.163574,0.163447 0.25,0.25 0.08643,0.08655 0.182535,0.159886 0.25,0.25 0.03373,0.04506 0.0663,0.104801 0.09375,0.15625 0.01192,0.02233 0.01997,0.06588 0.03125,0.09375 -0.0029,-0.006 -0.0078,0.01943 0,0.03125 0.0025,0.0038 -0.0033,0.02652 0,0.03125 0.01723,0.02486 0.05929,0.0509 0.09375,0.09375 0.08204,0.102026 0.210483,0.234407 0.34375,0.375 0.143517,0.151406 0.276367,0.283405 0.375,0.40625 0.04932,0.06142 0.09006,0.134293 0.125,0.1875 0.01747,0.0266 0.01495,0.02919 0.03125,0.0625 0.0081,0.01666 0.02236,0.06814 0.03125,0.09375 -0.0014,-0.0036 -0.0069,0.01846 0,0.03125 0.0038,0.0072 0.02552,0.02139 0.03125,0.03125 0.0011,0.01362 0,0.01406 0,0.03125 0.01341,0.02235 0.04354,0.03345 0.0625,0.0625 0.0677,0.103762 0.146056,0.240739 0.25,0.375 0.251148,0.324399 0.727119,1.042023 1.125,1.6875 0.234339,0.380167 0.426862,0.655632 0.5625,0.8125 0.05425,0.06275 0.09855,0.102902 0.125,0.125 0.0033,0.0028 0.02858,-0.0021 0.03125,0 0.02911,-0.0031 0.06584,-0.01018 0.125,0 0.02958,0.0051 0.07557,0.0027 0.125,0.03125 0.02472,0.01427 0.06177,0.06172 0.0625,0.0625 7.3e-4,7.75e-4 0.06211,0.09281 0.0625,0.09375 3.94e-4,9.36e-4 0.02944,0.08922 0.03125,0.125 0.0018,0.03578 0.0058,0.06787 0,0.09375 -0.01167,0.05177 -0.01653,0.10086 -0.03125,0.125 -0.02943,0.04828 -0.07262,0.04226 -0.09375,0.0625 -0.01056,0.01012 -0.02091,0.02238 -0.03125,0.03125 0.01582,0.02894 0.01378,0.07219 0.09375,0.1875 0.390178,0.562575 0.545211,0.980346 0.59375,1.625 0.0098,0.129485 0.01126,0.280678 0.03125,0.40625 0.01999,0.125572 0.06283,0.250761 0.0625,0.25 0.06871,0.160864 0.03276,0.377656 -0.0625,0.53125 -0.09526,0.153594 -0.208071,0.267438 -0.375,0.375 -0.226107,0.145695 -0.760497,0.498116 -1.1875,0.78125 -0.337665,0.223896 -0.849951,0.459795 -1.34375,0.6875 0.08021,0.02049 0.160998,0.03778 0.21875,0.09375 0.07679,0.07441 0.101965,0.128516 0.125,0.1875 -0.02142,-0.01385 -0.02182,-0.0055 0.03125,0 0.106143,0.0109 0.355393,-0.02292 0.78125,-0.0625 0.269551,-0.02505 0.556136,-0.05117 0.78125,-0.09375 C 14.818864,23.551171 15.010143,23.494572 15,23.5 c 0.194135,-0.103903 0.396646,-0.143621 0.6875,-0.15625 0.290854,-0.01263 0.66774,-0.0091 1.125,0.03125 1.878132,0.165662 2.111588,0.200835 3.21875,-0.0625 3.249122,-0.772797 4.252142,-1.234316 5.90625,-2.625 0.256791,-0.215897 0.618452,-0.327594 0.96875,-0.40625 0.175149,-0.03933 0.341887,-0.0576 0.5,-0.0625 0.158113,-0.0049 0.310178,-0.02651 0.5,0.125 -0.06771,-0.05405 0.09707,0.005 0.25,0 0.05098,-0.0017 0.08165,0.0072 0.125,0 -0.01436,-0.02509 -0.01072,-0.03517 -0.03125,-0.0625 -0.107379,-0.14297 -0.308596,-0.299219 -0.375,-0.3125 -0.153254,-0.03065 -0.307431,-0.05745 -0.4375,-0.125 -0.130069,-0.06755 -0.2616,-0.129678 -0.34375,-0.34375 0.0132,0.03441 -0.02811,-0.07094 -0.15625,-0.15625 -0.128141,-0.08531 -0.327198,-0.16689 -0.53125,-0.25 -0.408104,-0.166221 -0.906537,-0.28125 -1.21875,-0.28125 -0.435724,0 -0.755141,-0.0097 -1,-0.28125 -0.12243,-0.1358 -0.178923,-0.338308 -0.15625,-0.5 0.02267,-0.161692 0.101818,-0.312774 0.1875,-0.46875 0.0465,-0.08465 0.08982,-0.170983 0.125,-0.25 0.03518,-0.07902 0.06609,-0.177615 0.0625,-0.15625 0.03096,-0.184201 0.105749,-0.309062 0.21875,-0.46875 0.113001,-0.159688 0.25302,-0.334377 0.4375,-0.53125 0.36896,-0.393746 0.876584,-0.860003 1.5,-1.375 0.664579,-0.549002 1.129504,-0.934497 1.375,-1.1875 0.01719,-0.01771 0.0161,-0.01481 0.03125,-0.03125 -0.250008,-0.01629 -0.604289,-1.5e-5 -0.96875,0 -0.670769,2.9e-5 -1.001049,-0.0066 -1.15625,0.03125 -0.155201,0.03783 -0.218999,0.101682 -0.46875,0.34375 -0.12424,0.120418 -0.217851,0.25194 -0.28125,0.34375 -0.0317,0.0459 -0.05912,0.0547 -0.0625,0.0625 9.4e-5,0.01935 0.03388,0.04594 0.03125,0.0625 -0.01119,0.07037 -0.04012,0.08835 -0.0625,0.125 -0.04477,0.0733 -0.108032,0.113649 -0.15625,0.15625 -0.09644,0.0852 -0.212914,0.172713 -0.34375,0.25 -0.102362,0.06047 -0.18904,0.134715 -0.25,0.1875 -0.03048,0.02639 -0.05814,0.05725 -0.0625,0.0625 -0.01724,0.03202 -0.01388,0.09878 -0.03125,0.125 -0.04009,0.0605 -0.103263,0.09717 -0.15625,0.15625 -0.105974,0.118165 -0.225392,0.273998 -0.375,0.40625 -0.299216,0.264504 -0.652087,0.505637 -0.9375,0.65625 -0.09684,0.0511 -0.199863,0.123897 -0.28125,0.1875 -0.08139,0.0636 -0.14764,0.159218 -0.125,0.125 -0.02991,0.04521 -0.06737,0.07841 -0.125,0.125 -0.05763,0.04659 -0.187,0.136489 -0.34375,0.09375 -0.07838,-0.02137 -0.08488,-0.07866 -0.125,-0.125 -0.111855,0.05781 -0.257897,0.1443 -0.46875,0.3125 -0.07784,0.06209 -0.212654,0.157955 -0.375,0.15625 -0.162346,-0.0017 -0.276448,-0.09903 -0.375,-0.1875 C 20.271645,17.041806 20.06992,16.7866 19.75,16.3125 19.274712,15.608151 18.848052,14.639641 18.53125,13.71875 18.396964,13.328399 18.242452,12.962715 18.125,12.65625 18.007548,12.349785 17.921568,12.090794 17.90625,12.0625 c 0.01908,0.03524 -0.103988,-0.09872 -0.28125,-0.21875 -0.177262,-0.120027 -0.417828,-0.249939 -0.71875,-0.40625 -0.601844,-0.312622 -1.41504,-0.673872 -2.28125,-1 C 14.035804,10.215667 13.14803,9.9388878 12.375,9.75 11.988485,9.6555561 11.635761,9.5753763 11.375,9.53125 11.244619,9.5091868 11.130706,9.5045761 11.0625,9.5 c -0.0341,-0.00229 -0.05764,-3.421e-4 -0.0625,0 -0.03421,0.01039 -0.07024,0.028492 -0.09375,0.03125 -0.0401,0.0047 -0.08686,3.082e-4 -0.125,0 C 10.704972,9.5306335 10.629761,9.5113224 10.53125,9.5 10.334227,9.4773551 10.072983,9.4391764 9.8125,9.375 8.8713751,9.1431304 5.5780091,8.6082875 4.6875,8.53125 4.5130719,8.5161606 4.3179811,8.4923605 4.15625,8.46875 3.9945189,8.4451395 3.902651,8.4168034 3.78125,8.375 3.5976117,8.3117694 3.2685419,8.2673806 3.03125,8.25 c -0.1038152,-0.0076 -0.1642611,-0.00371 -0.21875,0 -0.00308,0.00321 -0.028087,-0.00303 -0.03125,0 z"
       transform="translate(0.28125,0.705655)" />
    <path
       style="fill:#000000;fill-opacity:1;stroke:#000000;stroke-width:0.1;stroke-linecap:butt;stroke-linejoin:miter;stroke-miterlimit:4;stroke-opacity:1;stroke-dasharray:none"
       d="m 20.715839,17.889493 c 0.362718,0.744719 1.006289,1.308038 1.328813,1.490046 L 24,19 c -2,0 -2.410455,-1.473602 -2.410455,-1.473602 L 21,17 z"
       id="path4011"
       inkscape:connector-curvature="0"
       sodipodi:nodetypes="cccccc" />
  </g>
</svg>
