<?xml version="1.0" encoding="UTF-8" standalone="no"?>
<!-- Created with Inkscape (http://www.inkscape.org/) -->

<svg
   xmlns:dc="http://purl.org/dc/elements/1.1/"
   xmlns:cc="http://creativecommons.org/ns#"
   xmlns:rdf="http://www.w3.org/1999/02/22-rdf-syntax-ns#"
   xmlns:svg="http://www.w3.org/2000/svg"
   xmlns="http://www.w3.org/2000/svg"
   xmlns:sodipodi="http://sodipodi.sourceforge.net/DTD/sodipodi-0.dtd"
   xmlns:inkscape="http://www.inkscape.org/namespaces/inkscape"
   width="32px"
   height="32px"
   id="svg3797"
   version="1.1"
   inkscape:version="0.48.5 r10040"
   sodipodi:docname="height.svg">
  <defs
     id="defs3799" />
  <sodipodi:namedview
     id="base"
     pagecolor="#ffffff"
     bordercolor="#666666"
     borderopacity="1.0"
     inkscape:pageopacity="0.0"
     inkscape:pageshadow="2"
     inkscape:zoom="15.836083"
     inkscape:cx="13.328662"
     inkscape:cy="12.909333"
     inkscape:current-layer="layer1"
     showgrid="true"
     inkscape:grid-bbox="true"
     inkscape:document-units="px"
     inkscape:window-width="1920"
     inkscape:window-height="1018"
     inkscape:window-x="-8"
     inkscape:window-y="-8"
     inkscape:window-maximized="1">
    <inkscape:grid
       type="xygrid"
       id="grid3805" />
  </sodipodi:namedview>
  <metadata
     id="metadata3802">
    <rdf:RDF>
      <cc:Work
         rdf:about="">
        <dc:format>image/svg+xml</dc:format>
        <dc:type
           rdf:resource="http://purl.org/dc/dcmitype/StillImage" />
        <dc:title />
      </cc:Work>
    </rdf:RDF>
  </metadata>
  <g
     id="layer1"
     inkscape:label="Layer 1"
     inkscape:groupmode="layer">
    <path
       style="fill:none;stroke:#000000;stroke-width:1.5;stroke-linecap:butt;stroke-linejoin:miter;stroke-miterlimit:4;stroke-opacity:1;stroke-dasharray:1.5,1.5;stroke-dashoffset:1.2"
       d="M 16,9.5000028 16,23.5"
       id="path3007"
       inkscape:connector-curvature="0" />
    <path
       style="fill:none;stroke:#000000;stroke-width:2;stroke-linecap:butt;stroke-linejoin:miter;stroke-miterlimit:4;stroke-opacity:1;stroke-dasharray:none"
       d="M -30,19 -16,5"
       id="path3829"
       inkscape:connector-curvature="0" />
    <path
       sodipodi:type="arc"
       style="fill:#00ff00;fill-opacity:1;stroke:#000000;stroke-width:1.09090912;stroke-miterlimit:4;stroke-opacity:1;stroke-dasharray:none"
       id="path3807-4"
       sodipodi:cx="11"
       sodipodi:cy="22"
       sodipodi:rx="6"
       sodipodi:ry="6"
       d="M 17,22 A 6,6 0 1 1 5,22 6,6 0 1 1 17,22 z"
       transform="matrix(0.61111111,0,0,0.61111111,-22.222221,-8.9444445)" />
    <path
       sodipodi:type="arc"
       style="fill:#00ff00;fill-opacity:1;stroke:#000000;stroke-width:1.09090912;stroke-miterlimit:4;stroke-opacity:1;stroke-dasharray:none"
       id="path3807"
       sodipodi:cx="11"
       sodipodi:cy="22"
       sodipodi:rx="6"
       sodipodi:ry="6"
       d="M 17,22 A 6,6 0 1 1 5,22 6,6 0 1 1 17,22 z"
       transform="matrix(0.61111111,0,0,0.61111111,-39.222222,8.055556)" />
    <path
       transform="matrix(0.61111111,0,0,0.61111111,9.2777778,-5.4444422)"
       d="M 17,22 A 6,6 0 1 1 5,22 6,6 0 1 1 17,22 z"
       sodipodi:ry="6"
       sodipodi:rx="6"
       sodipodi:cy="22"
       sodipodi:cx="11"
       id="path3003"
       style="fill:#00ff00;fill-opacity:1;stroke:#000000;stroke-width:1.09090912;stroke-miterlimit:4;stroke-opacity:1;stroke-dasharray:none"
       sodipodi:type="arc" />
    <path
       transform="matrix(0.61111111,0,0,0.61111111,9.2777778,11.555556)"
       d="M 17,22 A 6,6 0 1 1 5,22 6,6 0 1 1 17,22 z"
       sodipodi:ry="6"
       sodipodi:rx="6"
       sodipodi:cy="22"
       sodipodi:cx="11"
       id="path3005"
       style="fill:#00ff00;fill-opacity:1;stroke:#000000;stroke-width:1.09090912;stroke-miterlimit:4;stroke-opacity:1;stroke-dasharray:none"
       sodipodi:type="arc" />
  </g>
</svg>
