<?xml version="1.0" encoding="UTF-8" standalone="no"?>
<svg
   xmlns:dc="http://purl.org/dc/elements/1.1/"
   xmlns:cc="http://creativecommons.org/ns#"
   xmlns:rdf="http://www.w3.org/1999/02/22-rdf-syntax-ns#"
   xmlns:svg="http://www.w3.org/2000/svg"
   xmlns="http://www.w3.org/2000/svg"
   xmlns:sodipodi="http://sodipodi.sourceforge.net/DTD/sodipodi-0.dtd"
   xmlns:inkscape="http://www.inkscape.org/namespaces/inkscape"
   width="24"
   height="24"
   viewBox="0 0 24 24"
   version="1.1"
   id="svg3698"
   sodipodi:docname="navigation_cube.svg"
   inkscape:version="0.92.1 r15371">
  <metadata
     id="metadata3704">
    <rdf:RDF>
      <cc:Work
         rdf:about="">
        <dc:format>image/svg+xml</dc:format>
        <dc:type
           rdf:resource="http://purl.org/dc/dcmitype/StillImage" />
        <dc:title></dc:title>
      </cc:Work>
    </rdf:RDF>
  </metadata>
  <defs
     id="defs3702" />
  <sodipodi:namedview
     pagecolor="#ffffff"
     bordercolor="#666666"
     borderopacity="1"
     objecttolerance="10"
     gridtolerance="10"
     guidetolerance="10"
     inkscape:pageopacity="0"
     inkscape:pageshadow="2"
     inkscape:window-width="1920"
     inkscape:window-height="1001"
     id="namedview3700"
     showgrid="false"
     inkscape:zoom="19.666667"
     inkscape:cx="14.803793"
     inkscape:cy="8.4943686"
     inkscape:window-x="-9"
     inkscape:window-y="-9"
     inkscape:window-maximized="1"
     inkscape:current-layer="svg3698" />
  <style
     type="text/css"
     id="style3694">
.st0{fill:#DDDDDD;stroke:#DDDDDD;}
</style>
  <path
     class="st0"
     d="M 11.984871,1.9527405 2.7016267,7.016328 v 10.23773 l 9.2832443,4.953032 9.283244,-4.953032 V 7.0711835 Z M 18.660367,7.5615076 11.98909,11.121209 5.3456633,7.4973689 11.980651,3.8777477 Z M 4.3894892,8.8982949 11.140939,12.580367 v 7.263716 L 4.3894892,16.242185 Z M 12.828801,19.844083 v -7.257808 l 6.751451,-3.602743 v 7.257808 z m 5.635774,-4.485495 c 0.0059,0.280185 -0.216047,0.510579 -0.496232,0.516486 -0.280185,0.0059 -0.509734,-0.216046 -0.515642,-0.496231 -0.0051,-0.279342 0.216046,-0.510578 0.496231,-0.516487 0.279342,-0.0059 0.510579,0.216047 0.515643,0.496232 z m -2.287054,-1.415272 c -0.280185,0.0051 -0.502139,0.2363 -0.496232,0.515642 0.0051,0.280185 0.235458,0.502139 0.515643,0.496231 0.280185,-0.0059 0.501295,-0.236301 0.496231,-0.516486 -0.0059,-0.279341 -0.235457,-0.501295 -0.515642,-0.495387 z M 14.37826,13.019211 c -0.280185,0.0059 -0.502139,0.237145 -0.496232,0.516486 0.0051,0.280185 0.235457,0.501295 0.515642,0.496231 0.280185,-0.0059 0.501295,-0.2363 0.496231,-0.516485 -0.0059,-0.279341 -0.235456,-0.501295 -0.515641,-0.496232 z m -8.3566077,1.842302 c 0.2801851,0.0059 0.5012951,0.237144 0.4962315,0.516486 -0.00591,0.280185 -0.2354568,0.502139 -0.515642,0.496232 -0.2801851,-0.0051 -0.502139,-0.236301 -0.4962315,-0.516487 0.00422,-0.279341 0.2354567,-0.501295 0.515642,-0.496231 z m 1.2549258,-0.421966 c -0.00506,0.280185 0.2160463,0.510579 0.4962316,0.516486 0.2801851,0.0059 0.5105783,-0.21689 0.5156419,-0.496232 0.00591,-0.280185 -0.2160463,-0.510577 -0.4962316,-0.515641 -0.2801852,-0.0067 -0.5097344,0.215202 -0.5156419,0.495387 z m 1.7992614,-0.92326 c -0.00507,0.280185 0.2160463,0.510578 0.4962316,0.516485 0.2801852,0.0051 0.5105779,-0.216046 0.5156419,-0.496231 0.0059,-0.280185 -0.2160457,-0.510578 -0.4962315,-0.516486 -0.2801852,-0.0059 -0.5097345,0.216047 -0.515642,0.496232 z M 11.984871,8.6645257 c -0.279342,0 -0.506359,0.2270179 -0.506359,0.5063588 0,0.2793408 0.227017,0.5063588 0.506359,0.5063588 0.279341,0 0.506359,-0.227018 0.506359,-0.5063588 0,-0.2793409 -0.227018,-0.5063588 -0.506359,-0.5063588 z m 0,-1.877747 c -0.279342,0 -0.506359,0.2270176 -0.506359,0.5063588 0,0.2793413 0.227017,0.5063588 0.506359,0.5063588 0.279341,0 0.506359,-0.2270175 0.506359,-0.5063588 0,-0.2793412 -0.227018,-0.5063588 -0.506359,-0.5063588 z m 0,-1.7140244 c -0.279342,0 -0.506359,0.2270176 -0.506359,0.5063588 0,0.2793412 0.227017,0.5063588 0.506359,0.5063588 0.279341,0 0.506359,-0.2270176 0.506359,-0.5063588 0,-0.2793412 -0.227018,-0.5063588 -0.506359,-0.5063588 z"
     id="path3696"
     inkscape:connector-curvature="0"
     style="fill:#dddddd;stroke:#dddddd;stroke-width:0.84393132" />
</svg>
