<?xml version="1.0" encoding="UTF-8" standalone="no"?>
<!-- Created with Inkscape (http://www.inkscape.org/) -->

<svg
   xmlns:dc="http://purl.org/dc/elements/1.1/"
   xmlns:cc="http://creativecommons.org/ns#"
   xmlns:rdf="http://www.w3.org/1999/02/22-rdf-syntax-ns#"
   xmlns:svg="http://www.w3.org/2000/svg"
   xmlns="http://www.w3.org/2000/svg"
   xmlns:sodipodi="http://sodipodi.sourceforge.net/DTD/sodipodi-0.dtd"
   xmlns:inkscape="http://www.inkscape.org/namespaces/inkscape"
   width="32px"
   height="32px"
   id="svg3797"
   version="1.1"
   inkscape:version="0.48.5 r10040"
   sodipodi:docname="orbit_controls.svg"
   inkscape:export-filename="D:\dev\workspaces\potree\develop\resources\icons\orbit_controls.png"
   inkscape:export-xdpi="90"
   inkscape:export-ydpi="90">
  <defs
     id="defs3799">
    <marker
       inkscape:stockid="Arrow1Lstart"
       orient="auto"
       refY="0.0"
       refX="0.0"
       id="Arrow1Lstart"
       style="overflow:visible">
      <path
         id="path3832"
         d="M 0.0,0.0 L 5.0,-5.0 L -12.5,0.0 L 5.0,5.0 L 0.0,0.0 z "
         style="fill-rule:evenodd;stroke:#000000;stroke-width:1.0pt"
         transform="scale(0.8) translate(12.5,0)" />
    </marker>
    <marker
       inkscape:stockid="DotL"
       orient="auto"
       refY="0.0"
       refX="0.0"
       id="DotL"
       style="overflow:visible">
      <path
         id="path3893"
         d="M -2.5,-1.0 C -2.5,1.7600000 -4.7400000,4.0 -7.5,4.0 C -10.260000,4.0 -12.5,1.7600000 -12.5,-1.0 C -12.5,-3.7600000 -10.260000,-6.0 -7.5,-6.0 C -4.7400000,-6.0 -2.5,-3.7600000 -2.5,-1.0 z "
         style="fill-rule:evenodd;stroke:#000000;stroke-width:1.0pt"
         transform="scale(0.8) translate(7.4, 1)" />
    </marker>
  </defs>
  <sodipodi:namedview
     id="base"
     pagecolor="#ffffff"
     bordercolor="#666666"
     borderopacity="1.0"
     inkscape:pageopacity="0.0"
     inkscape:pageshadow="2"
     inkscape:zoom="0.69986261"
     inkscape:cx="27.318408"
     inkscape:cy="-285.81009"
     inkscape:current-layer="layer1"
     showgrid="true"
     inkscape:grid-bbox="true"
     inkscape:document-units="px"
     inkscape:window-width="894"
     inkscape:window-height="1029"
     inkscape:window-x="25"
     inkscape:window-y="36"
     inkscape:window-maximized="0">
    <inkscape:grid
       type="xygrid"
       id="grid3805" />
  </sodipodi:namedview>
  <metadata
     id="metadata3802">
    <rdf:RDF>
      <cc:Work
         rdf:about="">
        <dc:format>image/svg+xml</dc:format>
        <dc:type
           rdf:resource="http://purl.org/dc/dcmitype/StillImage" />
        <dc:title />
      </cc:Work>
    </rdf:RDF>
  </metadata>
  <g
     id="layer1"
     inkscape:label="Layer 1"
     inkscape:groupmode="layer">
    <path
       style="fill:#000000"
       d=""
       id="path3840"
       inkscape:connector-curvature="0" />
    <path
       style="fill:#000000;stroke-width:1;stroke-miterlimit:4;stroke-dasharray:none"
       d="M 13.662597,28.093075 C 10.043657,27.715574 6.9863098,26.379361 4.6757619,24.165378 2.1361842,21.73194 0.98607187,18.356895 1.6230275,15.207044 1.7929187,14.366921 2.0462348,13.61212 2.1582909,13.61212 c 0.092739,0 4.3889561,0.628437 4.8737034,0.712905 l 0.2351516,0.041 -0.2152499,0.554338 c -1.7028029,4.385256 1.7877068,8.97546 7.661203,10.074884 1.119627,0.209576 3.583819,0.188412 4.723822,-0.04056 2.506469,-0.503452 4.433276,-1.492622 6.020933,-3.090984 0.441394,-0.444374 0.803516,-0.870435 0.804711,-0.946802 0.0013,-0.07638 0.01153,-0.220699 0.02286,-0.320737 0.01938,-0.170359 -0.06587,-0.215468 -1.345777,-0.712028 -0.751548,-0.291582 -1.342457,-0.5517 -1.313124,-0.578043 0.04954,-0.0445 4.247694,-1.298102 4.534828,-1.354142 0.09889,-0.0193 0.421919,0.467581 1.369402,2.064043 0.681983,1.149117 1.23997,2.098928 1.23997,2.110689 0,0.01178 -0.666879,-0.239209 -1.481955,-0.557712 l -1.481952,-0.579099 -0.340767,0.606925 c -0.760364,1.354253 -1.511854,2.2805 -2.572326,3.170514 -2.539993,2.131721 -5.716257,3.265552 -9.417484,3.361758 -0.646709,0.01681 -1.462843,4.28e-4 -1.813636,-0.03597 z m 1.613269,-8.483578 c -1.749091,-0.29352 -3.264059,-1.708343 -3.723711,-3.477566 -0.396974,-1.527972 0.05527,-3.190618 1.186587,-4.362368 0.894926,-0.926914 2.01296,-1.406302 3.287478,-1.409598 1.639463,-0.0043 3.017726,0.743512 3.988976,2.164135 0.08466,0.12381 0.268502,0.529003 0.408566,0.900429 0.239135,0.63413 0.254446,0.730242 0.251057,1.575749 -0.003,0.780559 -0.03082,0.978716 -0.208032,1.488549 -0.355027,1.02141 -1.076579,1.940841 -1.911816,2.436108 -1.136741,0.674056 -2.119337,0.879189 -3.279105,0.684562 z M 27.902667,17.148707 25.14717,16.72674 25.20139,16.426275 C 25.29945,15.88278 25.25098,14.650827 25.10986,14.09985 24.320136,11.016765 21.188895,8.6598847 17.12559,8.0901081 15.974764,7.9287355 13.891062,7.9838641 12.799691,8.2045713 10.608463,8.6476854 8.0346573,9.8953212 7.2196807,10.909454 l -0.2285664,0.284421 0.9533623,0.358201 c 0.5243504,0.197012 1.0496889,0.398494 1.1674204,0.447733 0.19581,0.08191 0.014928,0.139269 -2.122473,0.673126 -1.285089,0.320981 -2.3494567,0.570664 -2.3652648,0.554862 -0.033234,-0.03322 -0.9353937,-3.2487909 -0.9164048,-3.2662919 0.00701,-0.0064 0.5093841,0.1744149 1.1165281,0.4018079 l 1.1039022,0.413438 0.6594346,-0.639944 C 7.3888155,9.3592915 7.668636,9.1313107 8.4610646,8.6104465 11.143223,6.8474535 14.806346,6.0000854 18.283015,6.3383972 25.01727,6.9937042 30.31513,11.504967 30.813868,17.00873 c 0.0428,0.472216 0.03317,0.578578 -0.05155,0.571118 -0.05727,-0.0051 -1.344115,-0.199048 -2.859642,-0.431131 z"
       id="path3855-7-4"
       inkscape:connector-curvature="0" />
    <path
       sodipodi:type="inkscape:offset"
       inkscape:radius="-0.39139798"
       inkscape:original="M 16 8.1875 C 13.829344 8.3348592 11.71968 9.0044793 10.0625 10.09375 C 9.4050263 10.525908 9.1739271 10.752246 8.5 11.40625 L 7.9375 11.9375 A 0.20048076 0.20048076 0 0 1 7.875 11.96875 A 0.20048076 0.20048076 0 0 1 7.84375 11.96875 A 0.20048076 0.20048076 0 0 1 7.8125 11.96875 A 0.20048076 0.20048076 0 0 1 7.78125 11.96875 A 0.20048076 0.20048076 0 0 1 7.75 11.96875 L 6.8125 11.625 C 6.5825311 11.53887 6.3820434 11.466768 6.21875 11.40625 C 6.2255469 11.431202 6.2426101 11.44181 6.25 11.46875 C 6.3200438 11.724095 6.4032163 12.065603 6.5 12.40625 C 6.5967837 12.746897 6.7057282 13.086721 6.78125 13.34375 C 6.8155466 13.460474 6.8524852 13.551466 6.875 13.625 C 6.9753129 13.60325 7.1126645 13.570749 7.28125 13.53125 C 7.6431351 13.446463 8.1168603 13.322225 8.65625 13.1875 C 9.3803888 13.006632 9.6993074 12.919385 9.96875 12.84375 C 9.7787985 12.77296 9.6751783 12.714302 9.4375 12.625 L 8.65625 12.3125 A 0.20048076 0.20048076 0 0 1 8.625 12.3125 A 0.20048076 0.20048076 0 0 1 8.59375 12.28125 A 0.20048076 0.20048076 0 0 1 8.5625 12.25 A 0.20048076 0.20048076 0 0 1 8.53125 12.1875 A 0.20048076 0.20048076 0 0 1 8.53125 12.15625 A 0.20048076 0.20048076 0 0 1 8.53125 12.125 A 0.20048076 0.20048076 0 0 1 8.53125 12.09375 A 0.20048076 0.20048076 0 0 1 8.53125 12.0625 A 0.20048076 0.20048076 0 0 1 8.53125 12.03125 A 0.20048076 0.20048076 0 0 1 8.5625 12 L 8.75 11.75 C 9.132447 11.274094 9.8479843 10.791442 10.71875 10.375 C 11.589516 9.9585579 12.621325 9.6278262 13.5625 9.4375 C 14.517979 9.244281 16.239683 9.1708311 17.25 9.3125 C 20.727657 9.8001545 23.435515 11.808257 24.125 14.5 C 24.257816 15.018559 24.3136 16.036797 24.21875 16.5625 A 0.20048076 0.20048076 0 0 1 24.21875 16.59375 L 24.21875 16.625 L 26.3125 16.9375 C 26.950042 17.035131 27.532375 17.118662 27.96875 17.1875 C 28.186937 17.221919 28.371955 17.261176 28.5 17.28125 C 28.525609 17.285265 28.541153 17.277926 28.5625 17.28125 C 28.564199 17.220304 28.575176 17.171119 28.5625 17.03125 C 28.153907 12.522263 23.739708 8.7620736 18.15625 8.21875 C 17.43689 8.1487496 16.723552 8.1383803 16 8.1875 z M 16.3125 11.625 C 15.287368 11.627651 14.403123 11.97755 13.6875 12.71875 C 12.784497 13.654031 12.403415 15.005012 12.71875 16.21875 C 13.084127 17.625106 14.331446 18.767193 15.71875 19 C 16.654737 19.157073 17.41713 18.986961 18.34375 18.4375 C 18.993163 18.05242 19.559838 17.316815 19.84375 16.5 C 19.990781 16.077001 20.028777 15.961515 20.03125 15.3125 C 20.034082 14.605592 20.013132 14.594529 19.8125 14.0625 C 19.755541 13.911455 19.685229 13.755908 19.625 13.625 C 19.564771 13.494092 19.517484 13.400571 19.5 13.375 C 18.714613 12.226236 17.63023 11.621558 16.3125 11.625 z M 4.75 14.375 C 4.7205107 14.431118 4.6667695 14.506859 4.625 14.625 C 4.541461 14.861283 4.4445622 15.18726 4.375 15.53125 C 3.8542745 18.106323 4.785072 20.87242 6.875 22.875 C 8.7828945 24.703159 11.338665 25.842781 14.34375 26.15625 C 14.613207 26.184209 15.308106 26.201421 15.84375 26.1875 C 18.916714 26.107624 21.525079 25.137383 23.625 23.375 C 24.500071 22.640586 25.087958 21.904728 25.71875 20.78125 A 0.20048076 0.20048076 0 0 1 25.75 20.78125 L 26.0625 20.28125 A 0.20048076 0.20048076 0 0 1 26.0625 20.25 A 0.20048076 0.20048076 0 0 1 26.09375 20.21875 A 0.20048076 0.20048076 0 0 1 26.125 20.1875 A 0.20048076 0.20048076 0 0 1 26.15625 20.1875 A 0.20048076 0.20048076 0 0 1 26.1875 20.1875 A 0.20048076 0.20048076 0 0 1 26.21875 20.1875 A 0.20048076 0.20048076 0 0 1 26.25 20.1875 A 0.20048076 0.20048076 0 0 1 26.28125 20.1875 L 27.5 20.65625 C 27.805962 20.77581 28.063693 20.886779 28.28125 20.96875 C 28.259696 20.931157 28.242805 20.916781 28.21875 20.875 C 28.033048 20.552451 27.754901 20.107155 27.46875 19.625 C 27.071288 18.955297 26.830282 18.537727 26.65625 18.28125 C 26.569234 18.153012 26.506832 18.073479 26.46875 18.03125 C 26.43207 18.040485 26.395294 18.039651 26.3125 18.0625 C 26.193904 18.09523 26.057362 18.135231 25.875 18.1875 C 25.510275 18.292037 25.020977 18.427274 24.5625 18.5625 C 24.104023 18.697726 23.652124 18.834229 23.3125 18.9375 C 23.249165 18.956759 23.211041 18.951903 23.15625 18.96875 C 23.342949 19.053198 23.568196 19.143092 23.84375 19.25 C 24.381541 19.458645 24.666378 19.567503 24.84375 19.65625 C 24.932436 19.700624 25.004794 19.739632 25.0625 19.8125 C 25.120206 19.885368 25.131682 20.003749 25.125 20.0625 C 25.114495 20.155304 25.094196 20.286471 25.09375 20.3125 C 25.092362 20.401166 25.078598 20.409779 25.0625 20.4375 C 25.046402 20.465221 25.020684 20.503835 25 20.53125 C 24.958631 20.586081 24.908507 20.646129 24.84375 20.71875 C 24.714236 20.863992 24.562174 21.061562 24.375 21.25 C 23.012046 22.622144 21.324663 23.445727 19.1875 23.875 C 18.176445 24.078074 16.151762 24.092594 15.15625 23.90625 C 12.644783 23.436144 10.612551 22.243397 9.40625 20.65625 C 8.1999495 19.069103 7.8214705 17.095885 8.5625 15.1875 L 8.65625 14.9375 C 8.4294208 14.899413 7.4975391 14.760544 6.5625 14.625 C 6.0813201 14.555248 5.605178 14.487556 5.25 14.4375 C 5.072411 14.412472 4.9186989 14.389335 4.8125 14.375 C 4.7859503 14.371416 4.7709744 14.377756 4.75 14.375 z "
       style="fill:#ffffff;fill-opacity:1;stroke-width:1.5;stroke-miterlimit:4;stroke-dasharray:none"
       id="path3909"
       d="m 16.03125,8.5625 c -0.871681,0.059176 -1.707714,0.274532 -2.53125,0.5 1.026124,-0.207505 2.723203,-0.2777437 3.8125,-0.125 3.59632,0.504294 6.448502,2.583708 7.1875,5.46875 0.134999,0.527084 0.183899,1.286769 0.125,1.90625 l 1.75,0.25 c 0.63531,0.09729 1.215073,0.180405 1.65625,0.25 0.04164,0.0066 0.0548,0.02457 0.09375,0.03125 -0.513959,-4.177802 -4.666343,-7.7309845 -10,-8.25 -0.698243,-0.067946 -1.391256,-0.07894 -2.09375,-0.03125 z M 13.5,9.0625 C 12.917733,9.2219131 12.346515,9.3896082 11.8125,9.625 12.382583,9.4271988 12.940427,9.1756579 13.5,9.0625 z m -5.75,2.71875 0,0.1875 -0.125,0.375 -0.8125,-0.3125 c 0.025892,0.09736 0.034582,0.182989 0.0625,0.28125 0.087524,0.308056 0.1739069,0.588564 0.25,0.84375 0.023295,-0.0055 0.037808,0.0058 0.0625,0 0.3530688,-0.08272 0.8329975,-0.208372 1.375,-0.34375 0.084606,-0.02113 0.082306,-0.01259 0.15625,-0.03125 L 8.5,12.6875 a 0.39143712,0.39143712 0 0 1 -0.21875,-0.40625 0.39143712,0.39143712 0 0 1 0,-0.03125 0.39143712,0.39143712 0 0 1 -0.0625,-0.03125 0.39143712,0.39143712 0 0 1 0,-0.03125 L 7.9375,11.9375 7.84375,11.8125 7.8125,11.78125 7.78125,11.96875 7.75,11.78125 z m 8.5625,0.25 c -0.936653,0.0024 -1.697278,0.299172 -2.34375,0.96875 -0.810406,0.839374 -1.153262,2.053956 -0.875,3.125 0.323831,1.246445 1.468479,2.295433 2.6875,2.5 0.856287,0.143698 1.498909,-0.01175 2.375,-0.53125 0.547239,-0.324494 1.057689,-0.985659 1.3125,-1.71875 0.146643,-0.421883 0.153835,-0.428584 0.15625,-1.0625 0.0028,-0.699159 0.01567,-0.58623 -0.1875,-1.125 -0.05074,-0.134551 -0.09688,-0.277215 -0.15625,-0.40625 -0.02865,-0.06227 -0.07496,-0.118781 -0.09375,-0.15625 -0.01879,-0.03747 -0.02395,-0.06627 0,-0.03125 -0.72677,-1.063026 -1.677566,-1.565628 -2.875,-1.5625 z M 5,14.78125 c -0.075848,0.21785 -0.1871287,0.501597 -0.25,0.8125 -0.4919728,2.432886 0.4044038,5.08182 2.40625,7 1.8404888,1.76357 4.288249,2.881811 7.21875,3.1875 0.21715,0.02253 0.950271,0.01347 1.46875,0 2.996413,-0.07789 5.499396,-1.013493 7.53125,-2.71875 0.727281,-0.610379 1.229143,-1.238087 1.75,-2.09375 -0.113453,0.127231 -0.259873,0.352213 -0.46875,0.5625 -1.421595,1.431181 -3.213323,2.278276 -5.40625,2.71875 -1.10643,0.22223 -3.062789,0.235929 -4.15625,0.03125 -2.591618,-0.485109 -4.722717,-1.694462 -6,-3.375 C 7.8619066,19.285496 7.4441892,17.219137 8.125,15.25 7.7373829,15.190468 7.2253939,15.105154 6.5,15 6.019519,14.930349 5.5422584,14.862497 5.1875,14.8125 5.1102325,14.801611 5.0657776,14.790778 5,14.78125 z m 21.3125,3.6875 c -0.09777,0.02766 -0.200096,0.05258 -0.34375,0.09375 -0.367906,0.105449 -0.827333,0.241119 -1.28125,0.375 -0.114215,0.03369 -0.200677,0.06042 -0.3125,0.09375 0.240473,0.09418 0.520629,0.213393 0.65625,0.28125 0.09459,0.04733 0.22939,0.105592 0.34375,0.25 0.170113,0.214809 0.144039,0.363848 0.125,0.53125 -0.0061,0.05392 0.0064,0.109289 0,0.15625 -0.0064,0.04696 -0.0013,0.139926 0,0.0625 -5.85e-4,0.03734 -0.02502,0.08549 -0.03125,0.125 l 0.25,-0.375 A 0.39143712,0.39143712 0 0 1 26.34375,20 l 0.0625,-0.1875 0.9375,0.375 C 27.2618,20.052048 27.211058,19.957505 27.125,19.8125 26.726535,19.141108 26.501223,18.732073 26.34375,18.5 c -0.01304,-0.01922 -0.01951,-0.01457 -0.03125,-0.03125 z"
       transform="matrix(1.1894755,0,0,1.1894755,-3.4551593,-3.3253218)" />
  </g>
</svg>
