<?xml version="1.0" encoding="UTF-8" standalone="no"?>
<!-- Created with Inkscape (http://www.inkscape.org/) -->

<svg
   xmlns:dc="http://purl.org/dc/elements/1.1/"
   xmlns:cc="http://creativecommons.org/ns#"
   xmlns:rdf="http://www.w3.org/1999/02/22-rdf-syntax-ns#"
   xmlns:svg="http://www.w3.org/2000/svg"
   xmlns="http://www.w3.org/2000/svg"
   xmlns:sodipodi="http://sodipodi.sourceforge.net/DTD/sodipodi-0.dtd"
   xmlns:inkscape="http://www.inkscape.org/namespaces/inkscape"
   width="32px"
   height="32px"
   id="svg3797"
   version="1.1"
   inkscape:version="0.92.2 (5c3e80d, 2017-08-06)"
   sodipodi:docname="return_number.svg">
  <defs
     id="defs3799" />
  <sodipodi:namedview
     id="base"
     pagecolor="#ffffff"
     bordercolor="#666666"
     borderopacity="1.0"
     inkscape:pageopacity="0.0"
     inkscape:pageshadow="2"
     inkscape:zoom="22.395604"
     inkscape:cx="8.5295208"
     inkscape:cy="8.9111752"
     inkscape:current-layer="layer1"
     showgrid="true"
     inkscape:grid-bbox="true"
     inkscape:document-units="px"
     inkscape:window-width="3840"
     inkscape:window-height="2066"
     inkscape:window-x="-11"
     inkscape:window-y="-11"
     inkscape:window-maximized="1">
    <inkscape:grid
       type="xygrid"
       id="grid3805" />
  </sodipodi:namedview>
  <metadata
     id="metadata3802">
    <rdf:RDF>
      <cc:Work
         rdf:about="">
        <dc:format>image/svg+xml</dc:format>
        <dc:type
           rdf:resource="http://purl.org/dc/dcmitype/StillImage" />
        <dc:title />
      </cc:Work>
    </rdf:RDF>
  </metadata>
  <g
     id="layer1"
     inkscape:label="Layer 1"
     inkscape:groupmode="layer">
    <path
       sodipodi:type="inkscape:offset"
       inkscape:radius="2.0042622"
       inkscape:original="M 13.140625 4.8984375 A 3.9059537 3.5997569 0 0 0 9.2363281 8.4980469 A 3.9059537 3.5997569 0 0 0 9.6523438 10.113281 A 5.258813 4.8465626 0 0 0 6.0996094 14.693359 A 5.258813 4.8465626 0 0 0 8.6347656 18.830078 A 4.4925343 4.1403543 0 0 0 8.1640625 20.666016 A 4.4925343 4.1403543 0 0 0 12.65625 24.804688 A 4.4925343 4.1403543 0 0 0 14.59375 24.396484 A 5.7091317 5.2615798 0 0 0 17.179688 24.974609 A 5.7091317 5.2615798 0 0 0 22.886719 19.712891 A 5.7091317 5.2615798 0 0 0 22.496094 17.796875 A 5.5563898 5.1208115 0 0 0 23.306641 15.148438 A 5.5563898 5.1208115 0 0 0 21 11 A 3.9059537 3.5997569 0 0 0 21.673828 8.9804688 A 3.9059537 3.5997569 0 0 0 17.767578 5.3808594 A 3.9059537 3.5997569 0 0 0 15.806641 5.8710938 A 3.9059537 3.5997569 0 0 0 13.140625 4.8984375 z "
       style="fill:#000000;fill-opacity:1;stroke:#000000;stroke-width:2.1540308;stroke-miterlimit:4;stroke-dasharray:none;stroke-opacity:1"
       id="path926"
       d="m 13.140625,2.8945312 c -3.011423,0.00118 -5.908069,2.5808884 -5.9082031,5.6035157 7.67e-5,0.1896887 0.1200909,0.3564491 0.140625,0.5449219 -1.9250518,1.2489552 -3.275127,3.3697702 -3.2773438,5.6484372 a 2.0044626,2.0044626 0 0 0 0,0.0059 c 0.00379,1.845086 1.0200292,3.473819 2.3769531,4.738281 -0.093712,0.415544 -0.3114861,0.800478 -0.3125,1.226562 a 2.0044626,2.0044626 0 0 0 0,0.0039 c 0.00146,3.30556 3.1776679,6.142342 6.4960938,6.142578 a 2.0044626,2.0044626 0 0 0 0.0039,0 c 0.663558,-0.001 1.296799,-0.217349 1.931641,-0.408203 0.84031,0.287765 1.691563,0.575843 2.582031,0.578125 a 2.0044626,2.0044626 0 0 0 0.0059,0 c 1.977797,-6.71e-4 3.953672,-0.743836 5.394531,-2.072266 1.440383,-1.327992 2.315884,-3.245664 2.316406,-5.191406 v -0.002 c 2.13e-4,-0.560873 -0.198373,-1.094108 -0.333984,-1.638672 0.444193,-0.917708 0.750719,-1.902262 0.753906,-2.919922 a 2.0044626,2.0044626 0 0 0 0,-0.0078 c -0.0018,-1.670488 -0.824029,-3.173385 -1.931641,-4.435546 0.190816,-0.556398 0.29853,-1.1396639 0.298828,-1.7285161 a 2.0044626,2.0044626 0 0 0 0,-0.00195 C 23.6776,5.9568792 20.77996,3.3767425 17.767578,3.3769531 a 2.0044626,2.0044626 0 0 0 -0.0039,0 c -0.56353,9.217e-4 -1.080593,0.2540977 -1.623047,0.40625 C 15.218829,3.2588589 14.204563,2.8956177 13.142578,2.8945312 a 2.0044626,2.0044626 0 0 0 -0.002,0 z"
       transform="matrix(0.78916203,0,0,0.78916203,3.5502551,1.8676931)" />
    <path
       style="fill:#000000;fill-opacity:1;stroke:none;stroke-width:1.03449154px;stroke-linecap:butt;stroke-linejoin:miter;stroke-opacity:1"
       d="m 13.668881,22.657505 c 0,0 0.07958,3.498215 -0.471918,5.360026 C 12.614852,29.982705 11.849708,30 11.849708,30 h 5.940516 C 17.790224,30 17,29.581893 17,27.780412 v -4.503704"
       id="path871"
       inkscape:connector-curvature="0"
       sodipodi:nodetypes="csccsc" />
    <path
       style="fill:#fffff8;fill-opacity:1;stroke:none;stroke-width:0.75555968;stroke-miterlimit:4;stroke-dasharray:none;stroke-opacity:1"
       d="m 13.96927,6.0444096 c -1.635388,1.534e-4 -3.024016,1.4855226 -3.024158,2.992708 4.21e-4,0.4252932 0,0.8166016 0.816602,1.6332034 -1.674996,-0.8173444 -3.1412014,1.00357 -3.1319841,2.799824 0.00232,1.283348 0.952153,2.573635 2.3049851,3.027908 -0.806204,0.705082 -0.737956,1.017812 -0.739005,1.500629 3.71e-4,1.733206 1.524775,3.138189 3.405407,3.138631 0.508462,-8.17e-4 1.010269,-0.106582 1.468607,-0.309462 0.607091,0.286133 1.27894,0.436042 1.960812,0.437514 2.390131,-1.29e-4 4.327819,-1.78555 4.328453,-3.988315 -9.7e-5,-0.497049 0.201946,-0.890517 -0.990246,-1.507293 1.192192,-0.199826 1.305535,-1.245351 1.307711,-1.954137 -0.0014,-1.246333 -0.866806,-2.310722 -2.565325,-2.328697 0.816602,-0.816602 1.327227,-1.8018628 1.32748,-2.3479013 C 20.438467,7.6318365 19.112773,6.4100479 17.477386,6.409894 16.954677,6.4108078 16.441542,6.5392065 15.990105,6.7820476 15.442283,6.3090058 14.719978,6.0453524 13.96927,6.0444096 Z"
       id="circle873"
       inkscape:connector-curvature="0"
       sodipodi:nodetypes="ccccccccccccccccc" />
  </g>
</svg>
