<?xml version="1.0" encoding="UTF-8" standalone="no"?>
<!-- Created with Inkscape (http://www.inkscape.org/) -->

<svg
   xmlns:dc="http://purl.org/dc/elements/1.1/"
   xmlns:cc="http://creativecommons.org/ns#"
   xmlns:rdf="http://www.w3.org/1999/02/22-rdf-syntax-ns#"
   xmlns:svg="http://www.w3.org/2000/svg"
   xmlns="http://www.w3.org/2000/svg"
   xmlns:sodipodi="http://sodipodi.sourceforge.net/DTD/sodipodi-0.dtd"
   xmlns:inkscape="http://www.inkscape.org/namespaces/inkscape"
   width="32px"
   height="32px"
   id="svg3797"
   version="1.1"
   inkscape:version="0.48.5 r10040"
   sodipodi:docname="area.svg"
   inkscape:export-filename="D:\dev\workspaces\potree\develop\resources\icons\area.png"
   inkscape:export-xdpi="90"
   inkscape:export-ydpi="90">
  <defs
     id="defs3799" />
  <sodipodi:namedview
     id="base"
     pagecolor="#ffffff"
     bordercolor="#666666"
     borderopacity="1.0"
     inkscape:pageopacity="0.0"
     inkscape:pageshadow="2"
     inkscape:zoom="2.7994505"
     inkscape:cx="-38.367796"
     inkscape:cy="-28.878944"
     inkscape:current-layer="layer1"
     showgrid="true"
     inkscape:grid-bbox="true"
     inkscape:document-units="px"
     inkscape:window-width="1920"
     inkscape:window-height="1018"
     inkscape:window-x="-8"
     inkscape:window-y="-8"
     inkscape:window-maximized="1">
    <inkscape:grid
       type="xygrid"
       id="grid3805" />
  </sodipodi:namedview>
  <metadata
     id="metadata3802">
    <rdf:RDF>
      <cc:Work
         rdf:about="">
        <dc:format>image/svg+xml</dc:format>
        <dc:type
           rdf:resource="http://purl.org/dc/dcmitype/StillImage" />
        <dc:title />
      </cc:Work>
    </rdf:RDF>
  </metadata>
  <g
     id="layer1"
     inkscape:label="Layer 1"
     inkscape:groupmode="layer">
    <path
       style="fill:#ff0000;fill-opacity:1;stroke:#000000;stroke-width:2;stroke-linecap:butt;stroke-linejoin:miter;stroke-miterlimit:4;stroke-opacity:1;stroke-dasharray:none"
       d="M 7,25 25,25 20,15 26,5 7,5 z"
       id="path3790"
       inkscape:connector-curvature="0"
       sodipodi:nodetypes="cccccc" />
    <path
       sodipodi:type="arc"
       style="fill:#00ff00;fill-opacity:1;stroke:#000000;stroke-width:2.18181828999999980;stroke-miterlimit:4;stroke-opacity:1;stroke-dasharray:none"
       id="path3807-0-1"
       sodipodi:cx="11"
       sodipodi:cy="22"
       sodipodi:rx="6"
       sodipodi:ry="6"
       d="M 17,22 A 6,6 0 1 1 5,22 6,6 0 1 1 17,22 z"
       transform="matrix(0.45833331,0,0,0.45833331,1.9583336,15.166667)" />
    <path
       sodipodi:type="arc"
       style="fill:#00ff00;fill-opacity:1;stroke:#000000;stroke-width:2.18181828999999980;stroke-miterlimit:4;stroke-opacity:1;stroke-dasharray:none"
       id="path3807-0-7"
       sodipodi:cx="11"
       sodipodi:cy="22"
       sodipodi:rx="6"
       sodipodi:ry="6"
       d="M 17,22 A 6,6 0 1 1 5,22 6,6 0 1 1 17,22 z"
       transform="matrix(0.45833331,0,0,0.45833331,19.958334,15.166667)" />
    <path
       sodipodi:type="arc"
       style="fill:#00ff00;fill-opacity:1;stroke:#000000;stroke-width:2.18181828999999980;stroke-miterlimit:4;stroke-opacity:1;stroke-dasharray:none"
       id="path3807-0-7-0"
       sodipodi:cx="11"
       sodipodi:cy="22"
       sodipodi:rx="6"
       sodipodi:ry="6"
       d="M 17,22 A 6,6 0 1 1 5,22 6,6 0 1 1 17,22 z"
       transform="matrix(0.45833331,0,0,0.45833331,1.9583336,-4.8333327)" />
    <path
       sodipodi:type="arc"
       style="fill:#00ff00;fill-opacity:1;stroke:#000000;stroke-width:2.18181828999999980;stroke-miterlimit:4;stroke-opacity:1;stroke-dasharray:none"
       id="path3807-0-7-9"
       sodipodi:cx="11"
       sodipodi:cy="22"
       sodipodi:rx="6"
       sodipodi:ry="6"
       d="M 17,22 A 6,6 0 1 1 5,22 6,6 0 1 1 17,22 z"
       transform="matrix(0.45833331,0,0,0.45833331,20.958334,-4.8333327)" />
    <path
       sodipodi:type="arc"
       style="fill:#00ff00;fill-opacity:1;stroke:#000000;stroke-width:2.18181828999999980;stroke-miterlimit:4;stroke-opacity:1;stroke-dasharray:none"
       id="path3807-0-7-4"
       sodipodi:cx="11"
       sodipodi:cy="22"
       sodipodi:rx="6"
       sodipodi:ry="6"
       d="M 17,22 A 6,6 0 1 1 5,22 6,6 0 1 1 17,22 z"
       transform="matrix(0.45833331,0,0,0.45833331,14.958334,5.1666673)" />
  </g>
</svg>
