<?xml version="1.0" encoding="UTF-8" standalone="no"?>
<!-- Created with Inkscape (http://www.inkscape.org/) -->

<svg
   xmlns:dc="http://purl.org/dc/elements/1.1/"
   xmlns:cc="http://creativecommons.org/ns#"
   xmlns:rdf="http://www.w3.org/1999/02/22-rdf-syntax-ns#"
   xmlns:svg="http://www.w3.org/2000/svg"
   xmlns="http://www.w3.org/2000/svg"
   xmlns:sodipodi="http://sodipodi.sourceforge.net/DTD/sodipodi-0.dtd"
   xmlns:inkscape="http://www.inkscape.org/namespaces/inkscape"
   width="32px"
   height="32px"
   id="svg3797"
   version="1.1"
   inkscape:version="0.92.2 (5c3e80d, 2017-08-06)"
   sodipodi:docname="cloud.svg">
  <defs
     id="defs3799" />
  <sodipodi:namedview
     id="base"
     pagecolor="#ffffff"
     bordercolor="#666666"
     borderopacity="1.0"
     inkscape:pageopacity="0.0"
     inkscape:pageshadow="2"
     inkscape:zoom="16"
     inkscape:cx="-10.442507"
     inkscape:cy="29.933015"
     inkscape:current-layer="layer1"
     showgrid="true"
     inkscape:grid-bbox="true"
     inkscape:document-units="px"
     inkscape:window-width="3840"
     inkscape:window-height="2066"
     inkscape:window-x="-11"
     inkscape:window-y="-11"
     inkscape:window-maximized="1">
    <inkscape:grid
       type="xygrid"
       id="grid3805" />
  </sodipodi:namedview>
  <metadata
     id="metadata3802">
    <rdf:RDF>
      <cc:Work
         rdf:about="">
        <dc:format>image/svg+xml</dc:format>
        <dc:type
           rdf:resource="http://purl.org/dc/dcmitype/StillImage" />
        <dc:title></dc:title>
      </cc:Work>
    </rdf:RDF>
  </metadata>
  <g
     id="layer1"
     inkscape:label="Layer 1"
     inkscape:groupmode="layer">
    <path
       style="fill:#fffff7;fill-opacity:1;stroke:#000000;stroke-width:3.09194183;stroke-linecap:butt;stroke-linejoin:miter;stroke-miterlimit:4;stroke-dasharray:none;stroke-opacity:1"
       d="m 12.142487,5 c -3.5058558,0 -6.3479138,2.9705796 -6.3479137,6.634975 7.576e-4,0.598207 0.078912,1.193561 0.2323369,1.769874 -2.1674047,1.019785 -3.5624816,3.271848 -3.5657794,5.756213 0,3.491631 2.7080652,6.32216 6.0486329,6.32216 5.6139353,0.0012 11.4629923,0.02383 16.1730043,0.02264 2.811531,-5.8e-4 5.090283,-2.383302 5.089751,-5.321974 C 29.769597,17.778394 28.222926,15.674146 26,15.051252 26.275226,14.379403 26.417228,13.656189 26.417418,12.925343 26.417182,9.9407352 24.102419,7.5212956 21.246941,7.5210487 20.013583,7.5230919 18.821543,7.9858546 17.885933,8.8258174 16.843402,6.4941602 14.604847,5.0030176 12.142487,5 Z"
       id="path4523"
       inkscape:connector-curvature="0"
       sodipodi:nodetypes="cccccccccccc" />
    <path
       sodipodi:nodetypes="ccssc"
       inkscape:connector-curvature="0"
       id="path4533"
       d="m -91,28 c 0.714797,-0.05175 15,0 15,0 0,0 -1.068661,-11.780958 -6.068661,-11.780958 -5,0 -5.341794,0.927954 -7.341794,1.927954 C -96.396155,21.639846 -91,28 -91,28 Z"
       style="fill:#000000;fill-opacity:1;stroke:#000000;stroke-width:1px;stroke-linecap:butt;stroke-linejoin:miter;stroke-opacity:1" />
    <circle
       r="6"
       cy="22.483433"
       cx="-91.52536"
       id="circle4535"
       style="fill:#000000;fill-opacity:1" />
    <circle
       style="fill:#000000;fill-opacity:1"
       id="circle4537"
       cx="-75.350288"
       cy="22.505529"
       r="6" />
    <circle
       r="6.296875"
       cy="15.234097"
       cx="-87.282906"
       id="circle4539"
       style="fill:#000000;fill-opacity:1;stroke-width:1.04947913" />
    <circle
       style="fill:#000000;fill-opacity:1;stroke-width:0.85488832"
       id="circle4541"
       cx="-78.536713"
       cy="15.770898"
       r="5.1293302" />
    <path
       sodipodi:nodetypes="ccssc"
       inkscape:connector-curvature="0"
       id="path4543"
       d="m -56,28 c 0.714797,-0.05175 15,0 15,0 0,0 -1.068661,-11.780958 -6.068661,-11.780958 -5,0 -5.341794,0.927954 -7.341794,1.927954 C -61.396155,21.639846 -56,28 -56,28 Z"
       style="fill:#000000;fill-opacity:1;stroke:#000000;stroke-width:1px;stroke-linecap:butt;stroke-linejoin:miter;stroke-opacity:1" />
    <circle
       r="6"
       cy="22.483433"
       cx="-56.525356"
       id="circle4545"
       style="fill:#000000;fill-opacity:1" />
    <circle
       style="fill:#000000;fill-opacity:1;stroke-width:0.84163755"
       id="circle4547"
       cx="-40.482872"
       cy="23.455704"
       r="5.0498252" />
    <circle
       r="6.296875"
       cy="15.341711"
       cx="-52.921234"
       id="circle4549"
       style="fill:#000000;fill-opacity:1;stroke-width:1.04947913" />
    <circle
       style="fill:#000000;fill-opacity:1;stroke-width:0.85488832"
       id="circle4551"
       cx="-43.890266"
       cy="16.566393"
       r="5.1293302" />
  </g>
</svg>
