<svg xmlns="http://www.w3.org/2000/svg" id="Layer_1" viewBox="0 0 100 100">
  <style id="style2">
    .st0{fill:none;stroke:#FFFFFF;stroke-width:4;stroke-linejoin:round;stroke-miterlimit:10;}
  </style>
  <g id="g6">
    <path id="path4" d="M95.4 61.5c0 7.2-5.8 13.5-13 13.5H17.6c-7.2 0-13-6.4-13-13.5 0-7.2 5.8-13.2 13-13.2.8 0 1.5-.1 2.3.1.4-8.8 7.1-15.8 15.2-15.8 4.7 0 8.8 2.2 11.6 5.8C49.2 30.7 56 25.2 64 25.2c10.1 0 18.3 8.9 18.3 19.9 0 1-.1 2.1-.2 3 .1 0 .1.3.2.3 7.2-.2 13.1 5.9 13.1 13.1z" class="st0"/>
  </g>
</svg>
