<?xml version="1.0" encoding="utf-8"?>
<!-- Generator: Adobe Illustrator 16.0.0, SVG Export Plug-In . SVG Version: 6.00 Build 0)  -->
<!DOCTYPE svg PUBLIC "-//W3C//DTD SVG 1.1//EN" "http://www.w3.org/Graphics/SVG/1.1/DTD/svg11.dtd">
<svg version="1.1"
	 id="svg2" xmlns:dc="http://purl.org/dc/elements/1.1/" xmlns:cc="http://creativecommons.org/ns#" xmlns:rdf="http://www.w3.org/1999/02/22-rdf-syntax-ns#" xmlns:svg="http://www.w3.org/2000/svg" xmlns:sodipodi="http://sodipodi.sourceforge.net/DTD/sodipodi-0.dtd" xmlns:inkscape="http://www.inkscape.org/namespaces/inkscape" sodipodi:docname="remove.svg" inkscape:version="0.92.2 (5c3e80d, 2017-08-06)"
	 xmlns="http://www.w3.org/2000/svg" xmlns:xlink="http://www.w3.org/1999/xlink" x="0px" y="0px" width="32px" height="32px"
	 viewBox="0 0 32 32" enable-background="new 0 0 32 32" xml:space="preserve">
<sodipodi:namedview  showguides="true" showgrid="true" inkscape:cy="17.901643" inkscape:cx="5.6164634" inkscape:zoom="22.4" borderopacity="1.0" bordercolor="#666666" pagecolor="#000000" id="base" inkscape:guide-bbox="true" inkscape:window-maximized="1" inkscape:window-y="-11" inkscape:window-x="-11" inkscape:window-height="2066" inkscape:window-width="3840" inkscape:document-units="px" inkscape:current-layer="layer1" inkscape:pageshadow="2" inkscape:pageopacity="0.85882353">
	
		<inkscape:grid  type="xygrid" enabled="true" empspacing="1" spacingy="0.1" originx="0" visible="true" spacingx="0.1" id="grid3809" originy="0" snapvisiblegridlinesonly="false">
		</inkscape:grid>
</sodipodi:namedview>
<g id="layer1_1_" inkscape:label="Calque 1" inkscape:groupmode="layer">
	<path fill="#FFC334" d="M22.101,14.746l4.283-4.285L24.55,8.64c-1.01-1.001-1.844-1.82-1.857-1.82
		c-0.038,0-8.534,8.479-8.534,8.517c0,0.018,0.823,0.858,1.831,1.863l1.831,1.832L22.101,14.746z"/>
	<path fill="#E29663" d="M12.816,16.619c-0.014,0.009-0.025,0.029-0.025,0.047c0,0.016-0.033,0.073-0.074,0.128
		c-0.178,0.233-0.32,0.65-0.32,0.944c0,0.148-0.108,0.52-0.653,2.225c-0.359,1.125-0.653,2.064-0.653,2.087
		c0,0.032,0.059,0.022,0.266-0.043c3.752-1.206,3.813-1.225,4.109-1.247c0.392-0.03,0.55-0.086,0.905-0.313l0.19-0.122l-1.86-1.861
		C13.678,17.441,12.83,16.611,12.816,16.619z"/>
	<path fill="#D76F6E" d="M29.073,5.857c-0.149-0.229-1.61-1.676-1.801-1.786c-0.522-0.3-1.125-0.321-1.662-0.059
		c-0.205,0.101-0.302,0.184-0.935,0.813l-0.708,0.702L25.8,7.358c1.006,1.007,1.837,1.831,1.846,1.831
		c0.041,0,1.367-1.367,1.441-1.484c0.045-0.073,0.117-0.224,0.161-0.334c0.068-0.175,0.079-0.248,0.08-0.565
		C29.331,6.381,29.271,6.156,29.073,5.857z"/>
</g>
<g id="layer1_2_" inkscape:label="Calque 1" inkscape:groupmode="layer">
	<path fill="#C85957" d="M29.073,5.857c-0.067-0.103-0.403-0.455-0.768-0.819c0.397,1.29-1.702,3.124-1.702,3.124
		c0.735,0.734,1.035,1.027,1.042,1.027c0.041,0,1.367-1.367,1.441-1.484c0.045-0.073,0.117-0.224,0.161-0.334
		c0.068-0.175,0.079-0.248,0.08-0.565C29.331,6.381,29.271,6.156,29.073,5.857z"/>
	<polygon fill="#E2AF38" points="22.101,14.746 26.384,10.46 25.262,9.347 16.676,17.887 17.819,19.031 	"/>
	<path fill="#CF804B" d="M11.09,22.05c0,0.032,0.059,0.022,0.266-0.043c3.752-1.206,3.813-1.225,4.109-1.247
		c0.392-0.03,0.55-0.086,0.905-0.313l0.19-0.122l-1.239-1.24L11.09,22.05z"/>
	<path fill="#FFFFFF" d="M25.944,14.262l-0.008,6.083l-0.008,6.082H6.762V7.26l6.113-0.007l6.112-0.008v-1.67l-6.188,0
		c-6.868,0-6.374-0.015-6.793,0.205C5.557,6.015,5.188,6.513,5.109,6.991C5.083,7.145,5.077,9.794,5.083,16.98l0.009,9.78l0.067,0.2
		c0.212,0.621,0.765,1.086,1.404,1.181c0.26,0.038,19.385,0.038,19.622,0c0.582-0.095,1.053-0.435,1.311-0.946
		c0.189-0.375,0.179,0.035,0.18-6.745v-6.188H25.944z"/>
</g>
<path d="M11.313,21.609c-0.032,0-0.055-0.012-0.084-0.018c-0.085,0.274-0.138,0.449-0.138,0.458c0,0.032,0.059,0.022,0.266-0.043
	c0.095-0.03,0.177-0.057,0.267-0.086C11.53,21.629,11.767,21.609,11.313,21.609z"/>
</svg>
