<?xml version="1.0" encoding="UTF-8" standalone="no"?>
<!-- Created with Inkscape (http://www.inkscape.org/) -->

<svg
   xmlns:dc="http://purl.org/dc/elements/1.1/"
   xmlns:cc="http://creativecommons.org/ns#"
   xmlns:rdf="http://www.w3.org/1999/02/22-rdf-syntax-ns#"
   xmlns:svg="http://www.w3.org/2000/svg"
   xmlns="http://www.w3.org/2000/svg"
   xmlns:sodipodi="http://sodipodi.sourceforge.net/DTD/sodipodi-0.dtd"
   xmlns:inkscape="http://www.inkscape.org/namespaces/inkscape"
   width="32"
   height="32"
   viewBox="0 0 32 32"
   id="svg2"
   version="1.1"
   inkscape:version="0.92.2 (5c3e80d, 2017-08-06)"
   sodipodi:docname="eye_2.svg"
   inkscape:export-filename="C:\dev\workspaces\potree\develop\resources\icons\eye_2.png"
   inkscape:export-xdpi="192"
   inkscape:export-ydpi="192">
  <defs
     id="defs4" />
  <sodipodi:namedview
     id="base"
     pagecolor="#ffffff"
     bordercolor="#666666"
     borderopacity="1.0"
     inkscape:pageopacity="0.0"
     inkscape:pageshadow="2"
     inkscape:zoom="22.4"
     inkscape:cx="9.3344235"
     inkscape:cy="20.116865"
     inkscape:document-units="px"
     inkscape:current-layer="layer1"
     showgrid="false"
     units="px"
     showguides="false"
     inkscape:window-width="2560"
     inkscape:window-height="1377"
     inkscape:window-x="-8"
     inkscape:window-y="-8"
     inkscape:window-maximized="1" />
  <metadata
     id="metadata7">
    <rdf:RDF>
      <cc:Work
         rdf:about="">
        <dc:format>image/svg+xml</dc:format>
        <dc:type
           rdf:resource="http://purl.org/dc/dcmitype/StillImage" />
        <dc:title></dc:title>
      </cc:Work>
    </rdf:RDF>
  </metadata>
  <g
     inkscape:label="Ebene 1"
     inkscape:groupmode="layer"
     id="layer1"
     transform="translate(0,-1020.3622)">
    <path
       style="opacity:1;fill:#ff0000;fill-opacity:1;stroke:none;stroke-width:2.26128435;stroke-miterlimit:4;stroke-dasharray:none;stroke-opacity:1"
       d="M 16.023438 4.9726562 C 7.1099246 4.9726562 3.015625 15.005859 3.015625 15.005859 L 2.8320312 15.439453 L 2.9550781 15.894531 C 2.9550781 15.894531 3.6759962 18.555478 5.640625 21.205078 C 7.6052538 23.854678 10.989271 26.613281 16.023438 26.613281 C 21.147969 26.613281 24.543174 23.855066 26.486328 21.197266 C 28.429482 18.539466 29.097656 15.867188 29.097656 15.867188 L 29.224609 15.367188 L 28.986328 14.910156 C 28.986328 14.910156 27.720269 12.467891 25.525391 10.025391 C 23.330512 7.5828906 20.106401 4.9726563 16.023438 4.9726562 z M 16.023438 7.6875 C 18.911941 7.6875 21.56622 9.6792438 23.507812 11.839844 C 25.259663 13.789244 26.080992 15.377634 26.277344 15.740234 C 26.085791 16.362834 25.591571 17.824903 24.296875 19.595703 C 22.686712 21.798103 20.202991 23.900391 16.023438 23.900391 C 11.955184 23.900391 9.4594188 21.798491 7.8203125 19.587891 C 6.4510691 17.741291 5.9189858 16.186259 5.7421875 15.630859 C 6.3044594 14.460159 9.7950311 7.6875 16.023438 7.6875 z M 16.099609 9.421875 A 5.8390945 5.8390945 0 0 0 10.259766 15.259766 A 5.8390945 5.8390945 0 0 0 16.099609 21.099609 A 5.8390945 5.8390945 0 0 0 21.9375 15.259766 A 5.8390945 5.8390945 0 0 0 16.099609 9.421875 z M 14.470703 10.931641 A 2.8473407 2.8473407 0 0 1 17.316406 13.779297 A 2.8473407 2.8473407 0 0 1 14.470703 16.626953 A 2.8473407 2.8473407 0 0 1 11.623047 13.779297 A 2.8473407 2.8473407 0 0 1 14.470703 10.931641 z "
       transform="translate(0,1020.3622)"
       id="path4138" />
    <path
       id="path819"
       d="M 16.023438 4.9726562 C 7.1099246 4.9726562 3.015625 15.005859 3.015625 15.005859 L 2.8320312 15.439453 L 2.9550781 15.894531 C 2.9550781 15.894531 3.6759962 18.555478 5.640625 21.205078 C 7.6052538 23.854678 10.989271 26.613281 16.023438 26.613281 C 21.147969 26.613281 24.543174 23.855066 26.486328 21.197266 C 28.429482 18.539466 29.097656 15.867188 29.097656 15.867188 L 29.224609 15.367188 L 28.986328 14.910156 C 28.986328 14.910156 27.720269 12.467891 25.525391 10.025391 C 23.330512 7.5828906 20.106401 4.9726563 16.023438 4.9726562 z M 16.023438 7.6875 C 18.911941 7.6875 21.56622 9.6792438 23.507812 11.839844 C 25.259663 13.789244 26.080992 15.377634 26.277344 15.740234 C 26.085791 16.362834 25.591571 17.824903 24.296875 19.595703 C 22.686712 21.798103 20.202991 23.900391 16.023438 23.900391 C 11.955184 23.900391 9.4594188 21.798491 7.8203125 19.587891 C 6.4510691 17.741291 5.9189858 16.186259 5.7421875 15.630859 C 6.3044594 14.460159 9.7950311 7.6875 16.023438 7.6875 z M 16.099609 9.421875 A 5.8390945 5.8390945 0 0 0 10.259766 15.259766 A 5.8390945 5.8390945 0 0 0 16.099609 21.099609 A 5.8390945 5.8390945 0 0 0 21.9375 15.259766 A 5.8390945 5.8390945 0 0 0 16.099609 9.421875 z M 14.470703 10.931641 A 2.8473407 2.8473407 0 0 1 17.316406 13.779297 A 2.8473407 2.8473407 0 0 1 14.470703 16.626953 A 2.8473407 2.8473407 0 0 1 11.623047 13.779297 A 2.8473407 2.8473407 0 0 1 14.470703 10.931641 z "
       style="opacity:1;fill:#fffffc;fill-opacity:1;stroke:#000000;stroke-width:3;stroke-miterlimit:4;stroke-dasharray:none;stroke-opacity:1;paint-order:stroke fill markers"
       transform="translate(0,1020.3622)" />
  </g>
</svg>
