<?xml version="1.0" encoding="utf-8"?>
<!-- Generator: Adobe Illustrator 25.1.0, SVG Export Plug-In . SVG Version: 6.00 Build 0)  -->
<svg version="1.1"
	 id="svg3797" inkscape:export-filename="D:\dev\workspaces\potree\develop\resources\icons\point.png" inkscape:export-xdpi="90" inkscape:export-ydpi="90" inkscape:version="0.92.2 (5c3e80d, 2017-08-06)" sodipodi:docname="file_csv_2d.svg" xmlns:cc="http://creativecommons.org/ns#" xmlns:dc="http://purl.org/dc/elements/1.1/" xmlns:inkscape="http://www.inkscape.org/namespaces/inkscape" xmlns:rdf="http://www.w3.org/1999/02/22-rdf-syntax-ns#" xmlns:sodipodi="http://sodipodi.sourceforge.net/DTD/sodipodi-0.dtd" xmlns:svg="http://www.w3.org/2000/svg"
	 xmlns="http://www.w3.org/2000/svg" xmlns:xlink="http://www.w3.org/1999/xlink" x="0px" y="0px" viewBox="0 0 42 16"
	 style="enable-background:new 0 0 42 16;" xml:space="preserve">
<style type="text/css">
	.st0{fill:#FFFFFF;}
</style>
<sodipodi:namedview  bordercolor="#666666" borderopacity="1.0" id="base" inkscape:current-layer="layer1" inkscape:cx="37.553698" inkscape:cy="-22.077233" inkscape:document-units="px" inkscape:grid-bbox="true" inkscape:pageopacity="0.0" inkscape:pageshadow="2" inkscape:window-height="1137" inkscape:window-maximized="1" inkscape:window-width="1600" inkscape:window-x="2552" inkscape:window-y="-8" inkscape:zoom="5.5989008" pagecolor="#ffffff" showgrid="true">
	<inkscape:grid  empspacing="5" enabled="true" id="grid3805" snapvisiblegridlinesonly="true" type="xygrid" visible="true">
		</inkscape:grid>
</sodipodi:namedview>
<g>
	<path d="M39.1,5.8c-0.3-0.8-0.7-1.6-1.2-2.3c-0.2-0.3-0.6-0.5-1-0.5H36c-0.4,0-0.8,0.2-1.1,0.6c0,0.1-0.1,0.1-0.1,0.2
		c-0.3-0.2-0.6-0.4-1-0.5C33.4,3.1,32.9,3,32.2,3h-2.4c-0.5,0-0.9,0.3-1.1,0.7C28.1,3.2,27.4,3,26.6,3c-0.5,0-1,0.1-1.5,0.3
		c-0.1,0-0.1,0.1-0.2,0.1c-0.2-0.3-0.6-0.5-1-0.5H23c-0.4,0-0.8,0.2-1,0.5c0,0.1-0.1,0.2-0.1,0.2C21.6,3.3,21.2,3,20.7,3h-4.4
		c-0.2,0-0.3,0-0.4,0.1C15.7,3,15.6,3,15.4,3h-1.5c-0.4,0-0.9,0.2-1.1,0.6l-0.2,0.3l-0.2-0.3C12.2,3.2,11.8,3,11.4,3H9.8
		C9.4,3,9,3.3,8.7,3.7c-0.3-0.2-0.6-0.4-1-0.5C7.3,3.1,6.8,3,6.2,3H3.8C3.1,3,2.5,3.6,2.5,4.3v6.5c0,0.7,0.6,1.3,1.3,1.3h2.5
		c0.6,0,1.1-0.1,1.5-0.2c0.3-0.1,0.6-0.2,0.8-0.4c0.2,0.3,0.6,0.6,1,0.6h1.6c0.4,0,0.8-0.2,1.1-0.6l0.4-0.6l0.4,0.6
		c0.2,0.4,0.6,0.6,1.1,0.6h1.6c0.1,0,0.3,0,0.4-0.1c0.1,0,0.2,0.1,0.3,0.1h1.3c0.7,0,1.3-0.6,1.3-1.3V9.3h1.4c0,0,0.1,0,0.1,0
		c0.1,0.5,0.2,1.1,0.3,1.7c0.3,0.8,0.7,1.7,1.2,2.4c0.2,0.4,0.6,0.6,1.1,0.6h0.8c0.4,0,0.8-0.2,1.1-0.6c0.2-0.4,0.3-0.8,0.1-1.2
		c-0.1-0.2-0.1-0.3-0.2-0.4c0.5,0.3,1.1,0.5,1.8,0.5c0.8,0,1.5-0.3,2.1-0.7c0.2,0.4,0.6,0.6,1.1,0.6h2.5c0.6,0,1.1-0.1,1.5-0.2
		c0.6-0.2,1-0.5,1.4-0.8c0,0,0.1-0.1,0.1-0.1c0,0,0,0.1,0,0.1c-0.1,0.3-0.2,0.6-0.5,1.1c-0.2,0.4-0.2,0.9,0.1,1.2
		c0.2,0.4,0.6,0.6,1.1,0.6h0.9c0.4,0,0.8-0.2,1.1-0.6c0.6-0.9,1-1.8,1.3-2.7c0.2-0.8,0.3-1.6,0.3-2.3C39.5,7.5,39.4,6.6,39.1,5.8z
		 M6.5,8.3C6.5,8.3,6.5,8.3,6.5,8.3c0,0-0.1,0-0.1,0V6.7c0,0,0,0,0,0c0.1,0,0.1,0,0.1,0c0,0,0,0,0,0.1c0,0,0.1,0.2,0.1,0.7
		C6.6,8,6.5,8.2,6.5,8.3z M15,7.3v0.2L15,7.4L15,7.3z M24.8,7.7l-0.5,0.1c-0.1,0-0.1,0-0.2,0.1c0-0.2,0-0.5,0.1-0.7
		c0.1,0,0.1,0.1,0.2,0.1l0.5,0.1C24.9,7.3,24.8,7.7,24.8,7.7z M32.5,8.3C32.5,8.3,32.5,8.3,32.5,8.3c0,0-0.1,0-0.1,0V6.7
		c0,0,0,0,0,0c0,0,0.1,0,0.1,0c0,0,0,0,0,0.1c0,0,0.1,0.2,0.1,0.7C32.6,8,32.6,8.2,32.5,8.3z"/>
	<g>
		<path class="st0" d="M3.8,4.3h2.4c0.5,0,0.9,0,1.2,0.1c0.4,0.1,0.7,0.3,1,0.6C8.6,5.3,8.8,5.6,9,6C9.1,6.5,9.2,7,9.2,7.6
			c0,0.5-0.1,1-0.2,1.4c-0.2,0.5-0.4,0.8-0.7,1.1c-0.2,0.2-0.5,0.4-0.9,0.5c-0.3,0.1-0.7,0.1-1.2,0.1H3.8V4.3z M5.1,5.4v4.3h1
			c0.4,0,0.6,0,0.8-0.1c0.2-0.1,0.4-0.1,0.5-0.3C7.5,9.2,7.6,9,7.7,8.7C7.8,8.4,7.8,8,7.8,7.5s0-0.9-0.1-1.1
			C7.6,6.1,7.5,5.9,7.3,5.7C7.2,5.6,7,5.5,6.7,5.4c-0.2,0-0.5-0.1-1.1-0.1H5.1z"/>
		<path class="st0" d="M9.6,10.7l2.2-3.4l-2-3.1h1.5l1.3,2.1l1.3-2.1h1.5l-2,3.1l2.2,3.3h-1.6l-1.4-2.2l-1.4,2.2H9.6z"/>
		<path class="st0" d="M16.3,10.7V4.3h4.4v1.1h-3.1v1.5h2.7V8h-2.7v2.7H16.3z"/>
		<path class="st0" d="M23.9,12.6H23c-0.4-0.7-0.8-1.4-1-2.1c-0.2-0.7-0.4-1.4-0.4-2.1c0-0.8,0.1-1.7,0.4-2.4c0.3-0.7,0.6-1.3,1-1.8
			h0.8c-0.4,0.9-0.7,1.6-0.8,2.3c-0.2,0.6-0.2,1.3-0.2,2c0,0.5,0,1,0.1,1.5c0.1,0.5,0.2,1,0.4,1.4C23.4,11.6,23.6,12.1,23.9,12.6z"
			/>
		<path class="st0" d="M24.5,9l1.2-0.1c0,0.3,0.1,0.5,0.3,0.7c0.2,0.2,0.4,0.2,0.6,0.2c0.3,0,0.5-0.1,0.6-0.3
			c0.2-0.2,0.3-0.5,0.3-0.8c0-0.3-0.1-0.6-0.3-0.7s-0.4-0.3-0.6-0.3c-0.2,0-0.3,0-0.6,0.1l0.1-1c0.3,0,0.6-0.1,0.8-0.2
			s0.3-0.4,0.3-0.6c0-0.2-0.1-0.4-0.2-0.5c-0.1-0.1-0.3-0.2-0.5-0.2c-0.2,0-0.4,0.1-0.5,0.2c-0.1,0.1-0.2,0.4-0.3,0.6l-1.1-0.2
			C24.7,5.5,24.8,5.2,25,5s0.4-0.4,0.7-0.5s0.6-0.2,1-0.2c0.6,0,1.1,0.2,1.5,0.6c0.3,0.3,0.5,0.7,0.5,1.1c0,0.6-0.3,1-0.9,1.4
			c0.4,0.1,0.7,0.3,0.9,0.5c0.2,0.3,0.3,0.6,0.3,1c0,0.6-0.2,1-0.6,1.4c-0.4,0.4-0.9,0.6-1.5,0.6c-0.6,0-1.1-0.2-1.5-0.5
			S24.6,9.6,24.5,9z"/>
		<path class="st0" d="M29.8,4.3h2.4c0.5,0,0.9,0,1.2,0.1c0.4,0.1,0.7,0.3,1,0.6c0.3,0.3,0.5,0.6,0.6,1s0.2,0.9,0.2,1.5
			c0,0.5-0.1,1-0.2,1.4c-0.2,0.5-0.4,0.8-0.7,1.1c-0.2,0.2-0.5,0.4-0.9,0.5c-0.3,0.1-0.7,0.1-1.2,0.1h-2.5V4.3z M31.1,5.4v4.3h1
			c0.4,0,0.6,0,0.8-0.1c0.2-0.1,0.4-0.1,0.5-0.3c0.1-0.1,0.3-0.3,0.3-0.6s0.1-0.7,0.1-1.2s0-0.9-0.1-1.1c-0.1-0.3-0.2-0.5-0.4-0.6
			c-0.2-0.2-0.4-0.3-0.6-0.3c-0.2,0-0.5-0.1-1.1-0.1H31.1z"/>
		<path class="st0" d="M36,12.6c0.2-0.5,0.4-0.9,0.5-1.2c0.1-0.3,0.2-0.6,0.3-1c0.1-0.4,0.1-0.7,0.2-1c0-0.3,0.1-0.7,0.1-1
			c0-0.7-0.1-1.4-0.2-2c-0.1-0.6-0.4-1.4-0.8-2.3h0.8c0.4,0.6,0.8,1.3,1,2c0.2,0.7,0.4,1.4,0.4,2.2c0,0.6-0.1,1.3-0.3,2
			c-0.2,0.8-0.6,1.6-1.1,2.3H36z"/>
	</g>
</g>
</svg>
