<?xml version="1.0" encoding="UTF-8" standalone="no"?>
<!-- Created with Inkscape (http://www.inkscape.org/) -->

<svg
   xmlns:dc="http://purl.org/dc/elements/1.1/"
   xmlns:cc="http://creativecommons.org/ns#"
   xmlns:rdf="http://www.w3.org/1999/02/22-rdf-syntax-ns#"
   xmlns:svg="http://www.w3.org/2000/svg"
   xmlns="http://www.w3.org/2000/svg"
   xmlns:sodipodi="http://sodipodi.sourceforge.net/DTD/sodipodi-0.dtd"
   xmlns:inkscape="http://www.inkscape.org/namespaces/inkscape"
   width="38"
   height="16"
   id="svg3797"
   version="1.1"
   inkscape:version="0.92.4 (5da689c313, 2019-01-14)"
   sodipodi:docname="file_potree.svg"
   inkscape:export-filename="D:\dev\workspaces\potree\develop\resources\icons\point.png"
   inkscape:export-xdpi="90"
   inkscape:export-ydpi="90">
  <defs
     id="defs3799" />
  <sodipodi:namedview
     id="base"
     pagecolor="#ffffff"
     bordercolor="#666666"
     borderopacity="1.0"
     inkscape:pageopacity="0.0"
     inkscape:pageshadow="2"
     inkscape:zoom="11.197802"
     inkscape:cx="15.936484"
     inkscape:cy="7.769728"
     inkscape:current-layer="layer1"
     showgrid="true"
     inkscape:grid-bbox="true"
     inkscape:document-units="px"
     inkscape:window-width="1920"
     inkscape:window-height="1001"
     inkscape:window-x="-9"
     inkscape:window-y="-9"
     inkscape:window-maximized="1">
    <inkscape:grid
       type="xygrid"
       id="grid3805"
       empspacing="5"
       visible="true"
       enabled="true"
       snapvisiblegridlinesonly="true" />
  </sodipodi:namedview>
  <metadata
     id="metadata3802">
    <rdf:RDF>
      <cc:Work
         rdf:about="">
        <dc:format>image/svg+xml</dc:format>
        <dc:type
           rdf:resource="http://purl.org/dc/dcmitype/StillImage" />
        <dc:title></dc:title>
      </cc:Work>
    </rdf:RDF>
  </metadata>
  <g
     id="layer1"
     inkscape:label="Layer 1"
     inkscape:groupmode="layer"
     transform="translate(0,-16)">
    <path
       sodipodi:type="inkscape:offset"
       inkscape:radius="0.99456364"
       inkscape:original="M 36.835938 25.302734 L 36.835938 31.845703 L 38.523438 31.845703 L 38.523438 29.714844 L 39.572266 29.714844 C 40.049805 29.714844 40.448242 29.649414 40.767578 29.517578 C 41.089844 29.385742 41.381836 29.191406 41.642578 28.933594 C 41.833008 28.743164 41.979492 28.508789 42.082031 28.230469 C 42.18457 27.949219 42.236328 27.660156 42.236328 27.367188 C 42.236328 26.989258 42.166016 26.666016 42.025391 26.396484 C 41.887695 26.126953 41.685547 25.907227 41.421875 25.734375 C 41.202148 25.59082 40.949219 25.482422 40.662109 25.412109 C 40.37793 25.338867 40.029297 25.302734 39.613281 25.302734 L 36.835938 25.302734 z M 49.619141 25.5 L 49.619141 26.910156 L 48.96875 26.910156 L 48.96875 27.984375 L 49.619141 27.984375 L 49.619141 30.291016 C 49.619141 30.894531 49.767578 31.321289 50.066406 31.570312 C 50.368164 31.819336 50.826172 31.943359 51.441406 31.943359 C 51.716797 31.943359 51.950195 31.928711 52.140625 31.902344 C 52.331055 31.878906 52.511719 31.84668 52.681641 31.802734 L 52.681641 30.716797 L 52.550781 30.716797 C 52.498047 30.746094 52.404297 30.777344 52.269531 30.8125 C 52.137695 30.847656 52.029297 30.867188 51.947266 30.867188 C 51.748047 30.867188 51.595703 30.835938 51.490234 30.777344 C 51.387695 30.71582 51.316406 30.633789 51.275391 30.53125 C 51.231445 30.428711 51.208008 30.314453 51.205078 30.185547 C 51.202148 30.056641 51.201172 29.905273 51.201172 29.732422 L 51.201172 27.984375 L 52.681641 27.984375 L 52.681641 26.910156 L 51.201172 26.910156 L 51.201172 25.5 L 49.619141 25.5 z M 38.523438 26.523438 L 38.8125 26.523438 C 39.09082 26.523438 39.313477 26.52832 39.480469 26.537109 C 39.647461 26.542969 39.818359 26.582031 39.994141 26.652344 C 40.125977 26.705078 40.242188 26.798828 40.341797 26.933594 C 40.441406 27.06543 40.492188 27.223633 40.492188 27.408203 C 40.492188 27.595703 40.46582 27.754883 40.416016 27.886719 C 40.369141 28.015625 40.291992 28.126953 40.183594 28.220703 C 40.057617 28.326172 39.900391 28.396484 39.712891 28.431641 C 39.52832 28.466797 39.292969 28.484375 39.005859 28.484375 L 38.523438 28.484375 L 38.523438 26.523438 z M 45.681641 26.757812 C 44.832031 26.757812 44.168945 26.991211 43.691406 27.457031 C 43.216797 27.922852 42.978516 28.563477 42.978516 29.380859 C 42.978516 30.192383 43.213867 30.832031 43.685547 31.300781 C 44.160156 31.766602 44.826172 32 45.681641 32 C 46.537109 32 47.200195 31.766602 47.671875 31.300781 C 48.146484 30.832031 48.382812 30.192383 48.382812 29.380859 C 48.382812 28.569336 48.147461 27.929688 47.675781 27.460938 C 47.207031 26.992188 46.542969 26.757812 45.681641 26.757812 z M 60.546875 26.757812 C 59.676758 26.757812 58.993164 26.995117 58.492188 27.472656 C 57.994141 27.947266 57.744141 28.591797 57.744141 29.40625 C 57.744141 30.229492 58.007812 30.865234 58.535156 31.310547 C 59.0625 31.755859 59.822266 31.978516 60.8125 31.978516 C 61.196289 31.978516 61.544922 31.945312 61.861328 31.880859 C 62.177734 31.816406 62.515625 31.713867 62.873047 31.570312 L 62.873047 30.298828 L 62.697266 30.298828 C 62.515625 30.436523 62.266602 30.56543 61.953125 30.685547 C 61.639648 30.805664 61.316406 30.867188 60.982422 30.867188 C 60.455078 30.867188 60.055664 30.763672 59.783203 30.558594 C 59.513672 30.353516 59.367188 30.058594 59.34375 29.671875 L 62.964844 29.671875 L 62.964844 29.117188 C 62.964844 28.355469 62.763672 27.771484 62.359375 27.367188 C 61.955078 26.959961 61.349609 26.757812 60.546875 26.757812 z M 66.523438 26.757812 C 65.65332 26.757812 64.969727 26.995117 64.46875 27.472656 C 63.970703 27.947266 63.720703 28.591797 63.720703 29.40625 C 63.720703 30.229492 63.984375 30.865234 64.511719 31.310547 C 65.039062 31.755859 65.798828 31.978516 66.789062 31.978516 C 67.172852 31.978516 67.521484 31.945312 67.837891 31.880859 C 68.154297 31.816406 68.492188 31.713867 68.849609 31.570312 L 68.849609 30.298828 L 68.673828 30.298828 C 68.492188 30.436523 68.243164 30.56543 67.929688 30.685547 C 67.616211 30.805664 67.292969 30.867188 66.958984 30.867188 C 66.431641 30.867188 66.032227 30.763672 65.759766 30.558594 C 65.490234 30.353516 65.34375 30.058594 65.320312 29.671875 L 68.941406 29.671875 L 68.941406 29.117188 C 68.941406 28.355469 68.740234 27.771484 68.335938 27.367188 C 67.931641 26.959961 67.326172 26.757812 66.523438 26.757812 z M 56.826172 26.894531 C 56.609375 26.894531 56.371094 26.943359 56.113281 27.042969 C 55.855469 27.139648 55.551758 27.337891 55.203125 27.636719 L 55.203125 26.910156 L 53.621094 26.910156 L 53.621094 31.845703 L 55.203125 31.845703 L 55.203125 28.541016 C 55.402344 28.470703 55.588867 28.421875 55.761719 28.392578 C 55.93457 28.363281 56.133789 28.347656 56.359375 28.347656 C 56.458984 28.347656 56.584961 28.353516 56.734375 28.365234 C 56.883789 28.376953 56.991211 28.394531 57.058594 28.417969 L 57.199219 28.417969 L 57.199219 26.910156 C 57.146484 26.904297 57.085938 26.901367 57.015625 26.898438 C 56.945312 26.895508 56.881836 26.894531 56.826172 26.894531 z M 60.419922 27.746094 C 60.748047 27.746094 60.989258 27.829102 61.144531 27.996094 C 61.299805 28.163086 61.381836 28.413086 61.390625 28.744141 L 59.339844 28.744141 C 59.363281 28.395508 59.47168 28.142578 59.667969 27.984375 C 59.864258 27.826172 60.115234 27.746094 60.419922 27.746094 z M 66.396484 27.746094 C 66.724609 27.746094 66.96582 27.829102 67.121094 27.996094 C 67.276367 28.163086 67.358398 28.413086 67.367188 28.744141 L 65.316406 28.744141 C 65.339844 28.395508 65.448242 28.142578 65.644531 27.984375 C 65.84082 27.826172 66.091797 27.746094 66.396484 27.746094 z M 45.681641 27.859375 C 45.833984 27.859375 45.975586 27.885742 46.107422 27.935547 C 46.239258 27.985352 46.351562 28.069336 46.445312 28.189453 C 46.539062 28.306641 46.613281 28.463867 46.666016 28.660156 C 46.71875 28.856445 46.744141 29.100586 46.744141 29.390625 C 46.744141 29.704102 46.71875 29.950195 46.666016 30.128906 C 46.616211 30.304688 46.540039 30.454102 46.4375 30.580078 C 46.34668 30.694336 46.235352 30.776367 46.103516 30.826172 C 45.974609 30.873047 45.838867 30.896484 45.695312 30.896484 C 45.52832 30.896484 45.37793 30.871094 45.246094 30.818359 C 45.117188 30.765625 45.005859 30.680664 44.912109 30.566406 C 44.81543 30.446289 44.741211 30.290039 44.691406 30.09375 C 44.641602 29.894531 44.617188 29.660156 44.617188 29.390625 C 44.617188 29.088867 44.645508 28.837891 44.701172 28.638672 C 44.759766 28.439453 44.836914 28.282227 44.933594 28.167969 C 45.041992 28.044922 45.15625 27.962891 45.273438 27.921875 C 45.393555 27.880859 45.529297 27.859375 45.681641 27.859375 z "
       style="font-style:normal;font-variant:normal;font-weight:bold;font-stretch:normal;line-height:0%;font-family:sans-serif;-inkscape-font-specification:'Sans Bold';text-align:start;letter-spacing:0px;word-spacing:0px;writing-mode:lr-tb;text-anchor:start;fill:#000000;fill-opacity:1;stroke:none"
       id="text3863"
       d="m 36.835938,24.308594 a 0.9946631,0.9946631 0 0 0 -0.994141,0.99414 v 6.542969 a 0.9946631,0.9946631 0 0 0 0.994141,0.994141 h 1.6875 a 0.9946631,0.9946631 0 0 0 0.99414,-0.994141 v -1.136719 h 0.05469 c 0.567701,0 1.090972,-0.07313 1.572265,-0.271484 0.339971,-0.139079 0.630142,-0.37318 0.916016,-0.609375 0.08596,0.829052 0.353631,1.61108 0.923828,2.177734 a 0.9946631,0.9946631 0 0 0 0.0039,0.0039 c 0.688045,0.675304 1.656992,0.984375 2.69336,0.984375 1.036366,0 2.004376,-0.309761 2.689453,-0.986329 0.188164,-0.185841 0.285221,-0.433981 0.419922,-0.658203 0.124033,0.375519 0.319998,0.718815 0.638672,0.984375 a 0.9946631,0.9946631 0 0 0 0.0039,0.0039 c 0.55777,0.460296 1.258918,0.599609 2.007812,0.599609 0.304829,0 0.57388,-0.01553 0.820313,-0.04883 l 0.01563,-0.002 c 0.219186,-0.0275 0.438145,-0.06519 0.654297,-0.121094 a 0.9946631,0.9946631 0 0 0 0.179687,-0.06641 0.9946631,0.9946631 0 0 0 0.509766,0.140625 h 1.582031 a 0.9946631,0.9946631 0 0 0 0.994141,-0.994141 v -2.492187 c 0.05759,-0.0032 0.09464,-0.01172 0.162109,-0.01172 0.0606,0 0.165137,0.0053 0.296875,0.01563 0.10917,0.0086 0.172835,0.03362 0.07617,0 a 0.9946631,0.9946631 0 0 0 0.02539,0.0078 c -1.4e-4,0.01433 -0.0078,0.02666 -0.0078,0.04102 0,1.035604 0.383591,2.02314 1.142578,2.664062 0.76226,0.643686 1.780601,0.902344 2.919922,0.902344 0.441153,0 0.857089,-0.03755 1.248047,-0.117187 0.382866,-0.07799 0.777002,-0.198025 1.183594,-0.361328 a 0.9946631,0.9946631 0 0 0 0.542968,-0.535157 c 0.03426,0.03187 0.0461,0.08098 0.08203,0.111328 0.762259,0.643687 1.7806,0.902344 2.919921,0.902344 0.441154,0 0.857089,-0.03755 1.248047,-0.117187 0.382867,-0.07799 0.777002,-0.198024 1.183594,-0.361328 a 0.9946631,0.9946631 0 0 0 0.623047,-0.923829 v -1.271484 a 0.9946631,0.9946631 0 0 0 -0.01563,-0.175781 0.9946631,0.9946631 0 0 0 0.107422,-0.451172 v -0.554687 c 0,-0.935865 -0.269649,-1.825014 -0.894531,-2.451172 -0.63814,-0.642765 -1.547873,-0.902344 -2.517578,-0.902344 -1.050948,0 -2.031304,0.312518 -2.740235,0.988281 -0.1532,0.145991 -0.225758,0.349978 -0.345703,0.521485 -0.119621,-0.206451 -0.201954,-0.435981 -0.373047,-0.607422 -0.63814,-0.642765 -1.547873,-0.902344 -2.517578,-0.902344 -0.91536,0 -1.744233,0.287 -2.419922,0.794922 a 0.9946631,0.9946631 0 0 0 -0.818359,-0.636719 c -0.0996,-0.01107 -0.177804,-0.01449 -0.251953,-0.01758 -0.086,-0.0036 -0.163168,-0.0039 -0.230469,-0.0039 -0.354076,0 -0.69993,0.08043 -1.03711,0.207031 a 0.9946631,0.9946631 0 0 0 -0.585937,-0.191406 h -1.582031 a 0.9946631,0.9946631 0 0 0 -0.470703,0.117187 0.9946631,0.9946631 0 0 0 -0.46875,-0.117187 H 52.195312 V 25.5 a 0.9946631,0.9946631 0 0 0 -0.99414,-0.994141 H 49.619141 A 0.9946631,0.9946631 0 0 0 48.625,25.5 v 0.478516 a 0.9946631,0.9946631 0 0 0 -0.583984,0.570312 c -0.654019,-0.500474 -1.462365,-0.785156 -2.359375,-0.785156 -0.996797,0 -1.920853,0.304778 -2.603516,0.929687 -0.05162,-0.253946 -0.04998,-0.523087 -0.169922,-0.753906 -0.217527,-0.424029 -0.550635,-0.780937 -0.941406,-1.037109 -0.316983,-0.207096 -0.675812,-0.35853 -1.056641,-0.453125 -0.0012,-3.06e-4 -0.0027,3.04e-4 -0.0039,0 -0.396971,-0.101889 -0.820774,-0.140625 -1.292969,-0.140625 z m 8.841796,4.544922 c 0.0025,-3.1e-5 0.0013,0 0.0039,0 6.2e-5,1.24e-4 0.0019,-1.28e-4 0.002,0 0.0068,0.01361 0.0056,0.0053 0.02148,0.06445 0.01987,0.07398 0.04492,0.240662 0.04492,0.472656 0,0.259772 -0.02999,0.432911 -0.03711,0.457031 a 0.9946631,0.9946631 0 0 0 -0.0039,0.0098 c -0.0082,0.029 -0.01283,0.03104 -0.01953,0.04492 -0.0117,-2.66e-4 -0.0071,-0.0012 -0.01563,-0.002 -0.006,-0.01231 -0.0057,-0.003 -0.01758,-0.04883 v -0.002 c -0.02371,-0.09547 -0.04492,-0.25039 -0.04492,-0.458984 0,-0.232741 0.02431,-0.392698 0.04492,-0.470703 v -0.002 c 0.01873,-0.0623 0.01527,-0.05232 0.02148,-0.06445 z m 6.517578,0.125 h 0.431641 v 0.74414 h -0.07617 a 0.9946631,0.9946631 0 0 0 -0.355469,0.06641 c -3.6e-5,-0.02145 0,-0.03435 0,-0.05664 z"
       transform="translate(-33.976252,-4.1350763)" />
    <g
       aria-label="Potree"
       style="font-style:normal;font-variant:normal;font-weight:bold;font-stretch:normal;line-height:0%;font-family:sans-serif;-inkscape-font-specification:'Sans Bold';text-align:start;letter-spacing:0px;word-spacing:0px;writing-mode:lr-tb;text-anchor:start;fill:#ffffff;fill-opacity:1;stroke:none;stroke-opacity:1"
       id="text852">
      <path
         d="m 8.259589,23.233088 q 0,0.439453 -0.1538086,0.861328 -0.1538086,0.41748 -0.4394532,0.703125 Q 7.275214,25.184259 6.7918155,25.382013 6.3128116,25.579767 5.596503,25.579767 H 4.5462101 v 2.131348 h -1.6875 v -6.543457 h 2.7773437 q 0.6240234,0 1.050293,0.109863 0.430664,0.105469 0.7602539,0.320801 0.3955078,0.259277 0.6020508,0.663574 0.2109375,0.404297 0.2109375,0.971192 z m -1.7446289,0.03955 q 0,-0.276855 -0.1494141,-0.474609 Q 6.2161319,22.595881 6.018378,22.516779 5.7547061,22.41131 5.5042179,22.402521 5.2537296,22.389338 4.8362491,22.389338 h -0.290039 v 1.95996 h 0.4833984 q 0.4306641,0 0.7075195,-0.05273 0.28125,-0.05273 0.4702149,-0.210937 0.1625976,-0.140625 0.2329101,-0.333985 0.074707,-0.197754 0.074707,-0.479004 z"
         style="font-size:9px;line-height:1.25;font-family:sans-serif;fill:#ffffff;fill-opacity:1;stroke:none;stroke-opacity:1"
         id="path4559" />
      <path
         d="m 14.407538,25.245783 q 0,1.217285 -0.711914,1.92041 -0.707519,0.69873 -1.990723,0.69873 -1.283203,0 -1.9951167,-0.69873 -0.7075196,-0.703125 -0.7075196,-1.92041 0,-1.226074 0.7119141,-1.924805 0.7163082,-0.69873 1.9907222,-0.69873 1.291993,0 1.995118,0.703125 0.707519,0.703125 0.707519,1.92041 z m -1.946777,1.199707 q 0.153808,-0.188965 0.228515,-0.452637 0.0791,-0.268066 0.0791,-0.738281 0,-0.435059 -0.0791,-0.729492 -0.0791,-0.294434 -0.219726,-0.470215 -0.140625,-0.180176 -0.338379,-0.254883 -0.197754,-0.07471 -0.42627,-0.07471 -0.228515,0 -0.408691,0.06152 -0.175781,0.06152 -0.338379,0.246094 -0.145019,0.171387 -0.23291,0.470215 -0.0835,0.298828 -0.0835,0.751465 0,0.404297 0.07471,0.703125 0.07471,0.294434 0.219726,0.474609 0.140625,0.171387 0.333985,0.250489 0.197754,0.0791 0.448242,0.0791 0.215332,0 0.408691,-0.07031 0.197754,-0.07471 0.333985,-0.246094 z"
         style="font-size:9px;line-height:1.25;font-family:sans-serif;fill:#ffffff;fill-opacity:1;stroke:none;stroke-opacity:1"
         id="path4561" />
      <path
         d="m 18.70539,27.66717 q -0.254883,0.06592 -0.540528,0.101074 -0.285644,0.03955 -0.69873,0.03955 -0.922852,0 -1.375488,-0.373536 -0.448243,-0.373535 -0.448243,-1.278808 v -2.307129 h -0.65039 v -1.072266 h 0.65039 v -1.410644 h 1.582032 v 1.410644 h 1.480957 v 1.072266 h -1.480957 v 1.749023 q 0,0.259278 0.0044,0.452637 0.0044,0.193359 0.07031,0.347168 0.06152,0.153809 0.215332,0.246094 0.158203,0.08789 0.457031,0.08789 0.123047,0 0.320801,-0.05273 0.202148,-0.05273 0.28125,-0.09668 h 0.131836 z"
         style="font-size:9px;line-height:1.25;font-family:sans-serif;fill:#ffffff;fill-opacity:1;stroke:none;stroke-opacity:1"
         id="path4563" />
      <path
         d="m 23.222968,24.283381 h -0.140625 q -0.101074,-0.03516 -0.325195,-0.05273 -0.224122,-0.01758 -0.373536,-0.01758 -0.338379,0 -0.597656,0.04395 -0.259277,0.04395 -0.558105,0.149414 v 3.304688 h -1.582032 v -4.935059 h 1.582032 v 0.725098 q 0.522949,-0.448242 0.909668,-0.593262 0.386718,-0.149414 0.711914,-0.149414 0.0835,0 0.188965,0.0044 0.105468,0.0044 0.18457,0.01318 z"
         style="font-size:9px;line-height:1.25;font-family:sans-serif;fill:#ffffff;fill-opacity:1;stroke:none;stroke-opacity:1"
         id="path4565" />
      <path
         d="m 28.988593,25.535822 h -3.621094 q 0.03516,0.580078 0.439453,0.887695 0.408692,0.307617 1.199707,0.307617 0.500977,0 0.971192,-0.180175 0.470215,-0.180176 0.742675,-0.386719 h 0.175782 v 1.270019 q -0.536133,0.215332 -1.010742,0.312012 -0.47461,0.09668 -1.050293,0.09668 -1.485352,0 -2.276368,-0.667969 -0.791015,-0.667969 -0.791015,-1.902832 0,-1.22168 0.74707,-1.933594 0.751465,-0.716308 2.056641,-0.716308 1.204101,0 1.810547,0.61084 0.606445,0.606445 0.606445,1.749023 z m -1.573242,-0.927246 q -0.01318,-0.496582 -0.246094,-0.74707 -0.23291,-0.250489 -0.725098,-0.250489 -0.457031,0 -0.751465,0.237305 -0.294433,0.237305 -0.329589,0.760254 z"
         style="font-size:9px;line-height:1.25;font-family:sans-serif;fill:#ffffff;fill-opacity:1;stroke:none;stroke-opacity:1"
         id="path4567" />
      <path
         d="m 34.965155,25.535822 h -3.621093 q 0.03516,0.580078 0.439453,0.887695 0.408691,0.307617 1.199707,0.307617 0.500976,0 0.971191,-0.180175 0.470215,-0.180176 0.742676,-0.386719 h 0.175781 v 1.270019 q -0.536133,0.215332 -1.010742,0.312012 -0.474609,0.09668 -1.050293,0.09668 -1.485352,0 -2.276367,-0.667969 -0.791016,-0.667969 -0.791016,-1.902832 0,-1.22168 0.747071,-1.933594 0.751464,-0.716308 2.05664,-0.716308 1.204102,0 1.810547,0.61084 0.606445,0.606445 0.606445,1.749023 z m -1.573242,-0.927246 q -0.01318,-0.496582 -0.246094,-0.74707 -0.23291,-0.250489 -0.725097,-0.250489 -0.457031,0 -0.751465,0.237305 -0.294434,0.237305 -0.32959,0.760254 z"
         style="font-size:9px;line-height:1.25;font-family:sans-serif;fill:#ffffff;fill-opacity:1;stroke:none;stroke-opacity:1"
         id="path4569" />
    </g>
  </g>
</svg>
