<?xml version="1.0" encoding="iso-8859-1"?>
<!-- Generator: Adobe Illustrator 16.0.0, SVG Export Plug-In . SVG Version: 6.00 Build 0)  -->
<!DOCTYPE svg PUBLIC "-//W3C//DTD SVG 1.1//EN" "http://www.w3.org/Graphics/SVG/1.1/DTD/svg11.dtd">
<svg version="1.1" id="Capa_1" xmlns="http://www.w3.org/2000/svg" xmlns:xlink="http://www.w3.org/1999/xlink" x="0px" y="0px"
	 width="612px" height="612px" viewBox="0 0 612 612" style="enable-background:new 0 0 612 612;" xml:space="preserve">
<g>
	<g>
		<g id="Camera">
			<g>
				<path stroke="white" d="M578,136H442l-58.038-58.038C377.587,71.587,368.934,68,359.924,68H252.093c-9.01,0-17.663,3.587-24.038,9.962L170,136
					H34c-18.785,0-34,15.215-34,34v340c0,18.785,15.215,34,34,34h68c18.785,0,34-15.215,34-34s-15.215-34-34-34H85
					c-9.384,0-17-7.616-17-17V221c0-9.384,7.616-17,17-17h113.169l19.907-19.924L266.169,136h79.662l48.093,48.076L413.831,204H527
					c9.384,0,17,7.616,17,17v238c0,9.384-7.616,17-17,17h-17c-18.785,0-34,15.215-34,34c0,18.598,14.943,33.66,33.473,33.949V544
					H578c18.785,0,34-15.215,34-34V170C612,151.215,596.785,136,578,136z M306,238c-75.106,0-136,60.894-136,136
					c0,75.106,60.894,136,136,136c75.106,0,136-60.894,136-136C442,298.894,381.106,238,306,238z M306,442
					c-37.502,0-68-30.498-68-68s30.498-68,68-68s68,30.498,68,68S343.502,442,306,442z"/>
			</g>
		</g>
	</g>
</g>
<g>
</g>
<g>
</g>
<g>
</g>
<g>
</g>
<g>
</g>
<g>
</g>
<g>
</g>
<g>
</g>
<g>
</g>
<g>
</g>
<g>
</g>
<g>
</g>
<g>
</g>
<g>
</g>
<g>
</g>
</svg>
