<?xml version="1.0" encoding="iso-8859-1"?>
<!-- Generator: Adobe Illustrator 17.1.0, SVG Export Plug-In . SVG Version: 6.00 Build 0)  -->
<!DOCTYPE svg PUBLIC "-//W3C//DTD SVG 1.1//EN" "http://www.w3.org/Graphics/SVG/1.1/DTD/svg11.dtd">
<svg version="1.1" id="Capa_1" xmlns="http://www.w3.org/2000/svg" xmlns:xlink="http://www.w3.org/1999/xlink" x="0px" y="0px"
	 viewBox="0 0 442 442" style="enable-background:new 0 0 442 442;" xml:space="preserve">
<g>
	<path stroke="white" d="M394.523,89.038c-4.547-15.392-18.65-26.413-35.512-26.413h-24.937c-16.843,0-30.942,11.005-35.509,26.378h-37.993
		l-16.57-38.614c-5.074-11.823-18.604-20.739-31.47-20.739h-80.591c-12.787,0-26.404,8.786-31.675,20.438l-17.6,38.915H48.872
		C21.924,89.003,0,110.939,0,137.902v225.549c0,26.963,21.924,48.899,48.872,48.899H393.14c26.941,0,48.86-21.937,48.86-48.899
		V137.902C442,111.404,420.826,89.775,394.523,89.038z M334.074,82.625h24.937c5.292,0,10.07,2.502,13.217,6.378h-51.373
		C324.005,85.127,328.784,82.625,334.074,82.625z M422,363.451c0,15.936-12.946,28.899-28.86,28.899H48.872
		c-15.92,0-28.872-12.964-28.872-28.899V137.902c0-15.936,12.952-28.899,28.872-28.899h60.22c5.522,0,10-4.478,10-10
		s-4.478-10-10-10h-4.475l13.872-30.673c2.019-4.462,8.556-8.681,13.452-8.681h80.591c4.825,0,11.188,4.192,13.091,8.627
		l13.186,30.727h-94.681c-5.522,0-10,4.478-10,10s4.478,10,10,10h109.818c0.013,0,0.027,0.003,0.04,0.003
		c0.02,0,0.039-0.003,0.059-0.003H393.14c15.914,0,28.86,12.964,28.86,28.899V363.451z"/>
	<path stroke="white" d="M172.264,136.822c-61.135,0-110.872,49.748-110.872,110.897c0,61.113,49.737,110.833,110.872,110.833
		c61.121,0,110.847-49.72,110.847-110.833C283.11,186.57,233.385,136.822,172.264,136.822z M172.264,338.553
		c-50.107,0-90.872-40.747-90.872-90.833c0-50.121,40.765-90.897,90.872-90.897c50.093,0,90.847,40.776,90.847,90.897
		C263.11,297.806,222.356,338.553,172.264,338.553z"/>
	<path stroke="white" d="M172.265,166.538c-44.757,0-81.17,36.418-81.17,81.183c0,44.734,36.413,81.129,81.17,81.129
		c44.734,0,81.129-36.395,81.129-81.129C253.394,202.956,216.999,166.538,172.265,166.538z M172.265,308.85
		c-33.729,0-61.17-27.422-61.17-61.129c0-33.736,27.44-61.183,61.17-61.183c33.707,0,61.129,27.446,61.129,61.183
		C233.394,281.428,205.972,308.85,172.265,308.85z"/>
	<path stroke="white" d="M203.701,237.712c-5.522,0-10,4.478-10,10c0,11.818-9.619,21.434-21.443,21.434c-11.84,0-21.473-9.615-21.473-21.434
		c0-11.846,9.633-21.482,21.473-21.482c5.522,0,10-4.478,10-10s-4.478-10-10-10c-22.868,0-41.473,18.609-41.473,41.482
		c0,22.847,18.604,41.434,41.473,41.434c22.852,0,41.443-18.587,41.443-41.434C213.701,242.189,209.224,237.712,203.701,237.712z"/>
	<path stroke="white" d="M386.062,131.873H307.01c-5.522,0-10,4.478-10,10v48.909c0,5.522,4.478,10,10,10h79.052c5.522,0,10-4.478,10-10v-48.909
		C396.062,136.351,391.584,131.873,386.062,131.873z M376.062,180.782H317.01v-28.909h59.052V180.782z"/>
</g>
<g>
</g>
<g>
</g>
<g>
</g>
<g>
</g>
<g>
</g>
<g>
</g>
<g>
</g>
<g>
</g>
<g>
</g>
<g>
</g>
<g>
</g>
<g>
</g>
<g>
</g>
<g>
</g>
<g>
</g>
</svg>
