<?xml version="1.0" encoding="UTF-8" standalone="no"?>
<!-- Created with Inkscape (http://www.inkscape.org/) -->

<svg
   xmlns:dc="http://purl.org/dc/elements/1.1/"
   xmlns:cc="http://creativecommons.org/ns#"
   xmlns:rdf="http://www.w3.org/1999/02/22-rdf-syntax-ns#"
   xmlns:svg="http://www.w3.org/2000/svg"
   xmlns="http://www.w3.org/2000/svg"
   xmlns:sodipodi="http://sodipodi.sourceforge.net/DTD/sodipodi-0.dtd"
   xmlns:inkscape="http://www.inkscape.org/namespaces/inkscape"
   sodipodi:docname="remove.svg"
   inkscape:version="0.92.2 (5c3e80d, 2017-08-06)"
   version="1.1"
   id="svg2"
   height="32"
   width="32">
  <sodipodi:namedview
     id="base"
     pagecolor="#000000"
     bordercolor="#666666"
     borderopacity="1.0"
     inkscape:pageopacity="0.85882353"
     inkscape:pageshadow="2"
     inkscape:zoom="22.4"
     inkscape:cx="5.6164634"
     inkscape:cy="17.901643"
     inkscape:document-units="px"
     inkscape:current-layer="layer1"
     showgrid="true"
     inkscape:window-width="3840"
     inkscape:window-height="2066"
     inkscape:window-x="-11"
     inkscape:window-y="-11"
     inkscape:window-maximized="1"
     showguides="true"
     inkscape:guide-bbox="true">
    <inkscape:grid
       type="xygrid"
       id="grid3809"
       empspacing="1"
       visible="true"
       enabled="true"
       snapvisiblegridlinesonly="false"
       spacingx="0.1"
       spacingy="0.1"
       originx="0"
       originy="0" />
  </sodipodi:namedview>
  <defs
     id="defs4">
    <marker
       style="overflow:visible"
       id="Arrow1Lstart"
       refX="0"
       refY="0"
       orient="auto"
       inkscape:stockid="Arrow1Lstart">
      <path
         transform="matrix(0.8,0,0,0.8,10,0)"
         style="fill-rule:evenodd;stroke:#000000;stroke-width:1.00000003pt"
         d="M 0,0 5,-5 -12.5,0 5,5 Z"
         id="path3819"
         inkscape:connector-curvature="0" />
    </marker>
    <marker
       inkscape:stockid="Arrow2Lend"
       orient="auto"
       refY="0"
       refX="0"
       id="Arrow2Lend"
       style="overflow:visible">
      <path
         id="path3840"
         style="fill-rule:evenodd;stroke-width:0.625;stroke-linejoin:round"
         d="M 8.7185878,4.0337352 -2.2072895,0.01601326 8.7185884,-4.0017078 c -1.7454984,2.3720609 -1.7354408,5.6174519 -6e-7,8.035443 z"
         transform="matrix(-1.1,0,0,-1.1,-1.1,0)"
         inkscape:connector-curvature="0" />
    </marker>
    <marker
       inkscape:stockid="Arrow1Lend"
       orient="auto"
       refY="0"
       refX="0"
       id="Arrow1Lend"
       style="overflow:visible">
      <path
         id="path3822"
         d="M 0,0 5,-5 -12.5,0 5,5 Z"
         style="fill-rule:evenodd;stroke:#000000;stroke-width:1.00000003pt"
         transform="matrix(-0.8,0,0,-0.8,-10,0)"
         inkscape:connector-curvature="0" />
    </marker>
    <inkscape:perspective
       sodipodi:type="inkscape:persp3d"
       inkscape:vp_x="0 : 50 : 1"
       inkscape:vp_y="0 : 1000 : 0"
       inkscape:vp_z="100 : 50 : 1"
       inkscape:persp3d-origin="50 : 33.333333 : 1"
       id="perspective3001" />
    <marker
       inkscape:stockid="Arrow2Lendy"
       orient="auto"
       refY="0"
       refX="0"
       id="Arrow2Lendy"
       style="overflow:visible">
      <path
         id="path4637"
         style="fill:#25f300;fill-rule:evenodd;stroke:#25f300;stroke-width:0.625;stroke-linejoin:round"
         d="M 8.7185878,4.0337352 -2.2072895,0.01601326 8.7185884,-4.0017078 c -1.7454984,2.3720609 -1.7354408,5.6174519 -6e-7,8.035443 z"
         transform="matrix(-1.1,0,0,-1.1,-1.1,0)"
         inkscape:connector-curvature="0" />
    </marker>
    <marker
       inkscape:stockid="Arrow2LendQ"
       orient="auto"
       refY="0"
       refX="0"
       id="Arrow2LendQ"
       style="overflow:visible">
      <path
         id="path6071"
         style="fill:#fa0000;fill-rule:evenodd;stroke:#fa0000;stroke-width:0.625;stroke-linejoin:round"
         d="M 8.7185878,4.0337352 -2.2072895,0.01601326 8.7185884,-4.0017078 c -1.7454984,2.3720609 -1.7354408,5.6174519 -6e-7,8.035443 z"
         transform="matrix(-1.1,0,0,-1.1,-1.1,0)"
         inkscape:connector-curvature="0" />
    </marker>
    <marker
       inkscape:stockid="Arrow2LendM"
       orient="auto"
       refY="0"
       refX="0"
       id="Arrow2LendM"
       style="overflow:visible">
      <path
         id="path6312"
         style="fill:#00f400;fill-rule:evenodd;stroke:#00f400;stroke-width:0.625;stroke-linejoin:round"
         d="M 8.7185878,4.0337352 -2.2072895,0.01601326 8.7185884,-4.0017078 c -1.7454984,2.3720609 -1.7354408,5.6174519 -6e-7,8.035443 z"
         transform="matrix(-1.1,0,0,-1.1,-1.1,0)"
         inkscape:connector-curvature="0" />
    </marker>
    <marker
       inkscape:stockid="Arrow2LendI"
       orient="auto"
       refY="0"
       refX="0"
       id="Arrow2LendI"
       style="overflow:visible">
      <path
         id="path6561"
         style="fill:#0000f6;fill-rule:evenodd;stroke:#0000f6;stroke-width:0.625;stroke-linejoin:round"
         d="M 8.7185878,4.0337352 -2.2072895,0.01601326 8.7185884,-4.0017078 c -1.7454984,2.3720609 -1.7354408,5.6174519 -6e-7,8.035443 z"
         transform="matrix(-1.1,0,0,-1.1,-1.1,0)"
         inkscape:connector-curvature="0" />
    </marker>
  </defs>
  <metadata
     id="metadata7">
    <rdf:RDF>
      <cc:Work
         rdf:about="">
        <dc:format>image/svg+xml</dc:format>
        <dc:type
           rdf:resource="http://purl.org/dc/dcmitype/StillImage" />
        <dc:title />
      </cc:Work>
    </rdf:RDF>
  </metadata>
  <g
     inkscape:label="Calque 1"
     inkscape:groupmode="layer"
     id="layer1"
     transform="translate(0,-1020.3622)">
    <g
       aria-label="x"
       style="font-style:normal;font-variant:normal;font-weight:normal;font-stretch:normal;font-size:41.2911911px;line-height:1.25;font-family:'Comic Sans MS';-inkscape-font-specification:'Comic Sans MS';letter-spacing:0px;word-spacing:0px;fill:#e73100;fill-opacity:1;stroke:none;stroke-width:1.03227961"
       id="text4605">
      <path
         d="m 25.182024,1029.6544 -2.94361,2.7621 -3.588786,3.5687 6.572719,8.5888 q 0.504043,0.6452 0.504043,1.2702 0,0.7863 -0.604851,1.3912 -0.604852,0.6048 -1.370997,0.6048 -0.766145,0 -1.391158,-0.7459 -1.854878,-2.1573 -6.532396,-8.3067 l -3.931534,4.0525 q -1.189541,1.0686 -3.4678149,3.3267 -0.6451748,0.7258 -1.3911582,0.7258 -0.7661452,0 -1.3709966,-0.6048 -0.5846897,-0.6049 -0.5846897,-1.3912 0,-0.625 0.5040428,-1.2702 0.564528,-0.7459 1.7540692,-1.7944 1.3911583,-1.2298 1.834716,-1.6935 l 4.2944454,-4.4961 -2.641185,-3.8106 q -1.5927753,-2.2782 -2.7823164,-3.3266 -0.7661452,-0.6855 -0.7661452,-1.492 0,-0.8065 0.564528,-1.4315 0.5846897,-0.625 1.3306732,-0.625 1.1895414,0 3.5887854,3.1049 l 3.487976,4.8186 3.951696,-3.6291 q 2.45973,-2.3186 3.326683,-3.6291 0.645175,-0.9476 1.532291,-0.9476 0.786306,0 1.391158,0.5847 0.604851,0.5847 0.604851,1.3509 0,1.1088 -1.875039,3.0444 z"
         style="font-style:normal;font-variant:normal;font-weight:normal;font-stretch:normal;font-family:'Comic Sans MS';-inkscape-font-specification:'Comic Sans MS';fill:#e73100;fill-opacity:1;stroke-width:1.03227961"
         id="path872" />
    </g>
  </g>
</svg>
