<?xml version="1.0" encoding="UTF-8" standalone="no"?>
<!-- Created with Inkscape (http://www.inkscape.org/) -->

<svg
   xmlns:dc="http://purl.org/dc/elements/1.1/"
   xmlns:cc="http://creativecommons.org/ns#"
   xmlns:rdf="http://www.w3.org/1999/02/22-rdf-syntax-ns#"
   xmlns:svg="http://www.w3.org/2000/svg"
   xmlns="http://www.w3.org/2000/svg"
   xmlns:sodipodi="http://sodipodi.sourceforge.net/DTD/sodipodi-0.dtd"
   xmlns:inkscape="http://www.inkscape.org/namespaces/inkscape"
   width="32px"
   height="32px"
   id="svg3797"
   version="1.1"
   inkscape:version="0.48.5 r10040"
   sodipodi:docname="volume.svg"
   inkscape:export-filename="D:\dev\workspaces\potree\develop\resources\icons\volume.png"
   inkscape:export-xdpi="90"
   inkscape:export-ydpi="90">
  <defs
     id="defs3799" />
  <sodipodi:namedview
     id="base"
     pagecolor="#ffffff"
     bordercolor="#666666"
     borderopacity="1.0"
     inkscape:pageopacity="0.0"
     inkscape:pageshadow="2"
     inkscape:zoom="22.395604"
     inkscape:cx="2.2089941"
     inkscape:cy="16.110373"
     inkscape:current-layer="layer1"
     showgrid="true"
     inkscape:grid-bbox="true"
     inkscape:document-units="px"
     inkscape:window-width="1920"
     inkscape:window-height="1138"
     inkscape:window-x="-8"
     inkscape:window-y="-8"
     inkscape:window-maximized="1">
    <inkscape:grid
       type="xygrid"
       id="grid3805" />
  </sodipodi:namedview>
  <metadata
     id="metadata3802">
    <rdf:RDF>
      <cc:Work
         rdf:about="">
        <dc:format>image/svg+xml</dc:format>
        <dc:type
           rdf:resource="http://purl.org/dc/dcmitype/StillImage" />
        <dc:title></dc:title>
      </cc:Work>
    </rdf:RDF>
  </metadata>
  <g
     id="layer1"
     inkscape:label="Layer 1"
     inkscape:groupmode="layer">
    <path
       style="fill:#ff0000;stroke:#000000;stroke-width:2;stroke-linecap:butt;stroke-linejoin:bevel;stroke-opacity:1;fill-opacity:1;stroke-miterlimit:4;stroke-dasharray:none"
       d="m 28,6 -6,6 0,16 6,-7 z"
       id="path3776"
       inkscape:connector-curvature="0"
       sodipodi:nodetypes="ccccc" />
    <path
       style="fill:#ff0000;stroke:#000000;stroke-width:2;stroke-linecap:butt;stroke-linejoin:miter;stroke-opacity:1;fill-opacity:1;stroke-miterlimit:4;stroke-dasharray:none"
       d="m 5.5,12.5 0,15 16,0 0,-15 z"
       id="path4436"
       inkscape:connector-curvature="0" />
    <path
       style="fill:#ff0000;fill-opacity:1;stroke:#000000;stroke-width:2;stroke-linecap:butt;stroke-linejoin:bevel;stroke-miterlimit:4;stroke-opacity:1;stroke-dasharray:none"
       d="m 6,12 6,-7 16,0 -7,7 z"
       id="path3774"
       inkscape:connector-curvature="0"
       sodipodi:nodetypes="ccccc" />
    <path
       sodipodi:type="arc"
       style="fill:#00ff00;fill-opacity:1;stroke:#000000;stroke-width:2.18181825;stroke-miterlimit:4;stroke-opacity:1;stroke-dasharray:none"
       id="path3807-0-7-9-1"
       sodipodi:cx="11"
       sodipodi:cy="22"
       sodipodi:rx="6"
       sodipodi:ry="6"
       d="M 17,22 A 6,6 0 1 1 5,22 6,6 0 1 1 17,22 z"
       transform="matrix(0.48958335,0,0,0.48958335,5.6145831,-5.7083338)" />
    <path
       sodipodi:type="arc"
       style="fill:#00ff00;fill-opacity:1;stroke:#000000;stroke-width:2.18181825;stroke-miterlimit:4;stroke-opacity:1;stroke-dasharray:none"
       id="path3807-0-7-9-1-9"
       sodipodi:cx="11"
       sodipodi:cy="22"
       sodipodi:rx="6"
       sodipodi:ry="6"
       d="M 17,22 A 6,6 0 1 1 5,22 6,6 0 1 1 17,22 z"
       transform="matrix(0.48958335,0,0,0.48958335,21.614583,-5.7083338)" />
    <path
       sodipodi:type="arc"
       style="fill:#00ff00;fill-opacity:1;stroke:#000000;stroke-width:2.18181825;stroke-miterlimit:4;stroke-opacity:1;stroke-dasharray:none"
       id="path3807-0-7-9-1-8"
       sodipodi:cx="11"
       sodipodi:cy="22"
       sodipodi:rx="6"
       sodipodi:ry="6"
       d="M 17,22 A 6,6 0 1 1 5,22 6,6 0 1 1 17,22 z"
       transform="matrix(0.48958335,0,0,0.48958335,21.677083,10.229166)" />
    <path
       sodipodi:type="arc"
       style="fill:#00ff00;fill-opacity:1;stroke:#000000;stroke-width:2.18181825;stroke-miterlimit:4;stroke-opacity:1;stroke-dasharray:none"
       id="path3807-0-7-9-1-6"
       sodipodi:cx="11"
       sodipodi:cy="22"
       sodipodi:rx="6"
       sodipodi:ry="6"
       d="M 17,22 A 6,6 0 1 1 5,22 6,6 0 1 1 17,22 z"
       transform="matrix(0.48958335,0,0,0.48958335,0.61458315,1.1666664)" />
    <path
       sodipodi:type="arc"
       style="fill:#00ff00;fill-opacity:1;stroke:#000000;stroke-width:2.18181825;stroke-miterlimit:4;stroke-opacity:1;stroke-dasharray:none"
       id="path3807-0-7-9-1-5"
       sodipodi:cx="11"
       sodipodi:cy="22"
       sodipodi:rx="6"
       sodipodi:ry="6"
       d="M 17,22 A 6,6 0 1 1 5,22 6,6 0 1 1 17,22 z"
       transform="matrix(0.48958335,0,0,0.48958335,16.614583,1.2916662)" />
    <path
       sodipodi:type="arc"
       style="fill:#00ff00;fill-opacity:1;stroke:#000000;stroke-width:2.18181825;stroke-miterlimit:4;stroke-opacity:1;stroke-dasharray:none"
       id="path3807-0-7-9-1-0"
       sodipodi:cx="11"
       sodipodi:cy="22"
       sodipodi:rx="6"
       sodipodi:ry="6"
       d="M 17,22 A 6,6 0 1 1 5,22 6,6 0 1 1 17,22 z"
       transform="matrix(0.48958335,0,0,0.48958335,0.61458315,16.291666)" />
    <path
       sodipodi:type="arc"
       style="fill:#00ff00;fill-opacity:1;stroke:#000000;stroke-width:2.18181825;stroke-miterlimit:4;stroke-opacity:1;stroke-dasharray:none"
       id="path3807-0-7-9-1-2"
       sodipodi:cx="11"
       sodipodi:cy="22"
       sodipodi:rx="6"
       sodipodi:ry="6"
       d="M 17,22 A 6,6 0 1 1 5,22 6,6 0 1 1 17,22 z"
       transform="matrix(0.48958335,0,0,0.48958335,16.614583,16.291666)" />
  </g>
</svg>
