<?xml version="1.0" encoding="utf-8"?>
<!-- Generator: Adobe Illustrator 24.0.2, SVG Export Plug-In . SVG Version: 6.00 Build 0)  -->
<svg version="1.1" id="Layer_1" xmlns="http://www.w3.org/2000/svg" xmlns:xlink="http://www.w3.org/1999/xlink" x="0px" y="0px"
	 viewBox="0 0 15 15" style="enable-background:new 0 0 15 15;" xml:space="preserve">
<style type="text/css">
	.st0{fill:#FFFFFF;}
</style>
<symbol  id="Checklist" viewBox="-31.9 -32 63.9 64">
	<path d="M18.5-30h-39.8v44.5h39.8V6.7l2,1.7v8.2h-2.3v2.9c0,3.3-2.7,6-6,6H-0.1C-0.2,29.1-3.2,32-6.8,32s-6.7-2.9-6.8-6.6h-12.3
		c-3.3,0-6-2.7-6-6v-43.3c0-3.3,2.7-6,6-6h2.6V-32h43.8v16.9l-2-2V-30z M13.2,19.4v-2.9H5.2c0,1.5-0.8,2.8-1.9,3.9h9
		C12.8,20.4,13.2,20,13.2,19.4z M-6.8,28c1.5,0,2.8-1.2,2.8-2.8s-1.2-2.8-2.8-2.8c-1.5,0-2.8,1.2-2.8,2.8C-9.6,26.8-8.4,28-6.8,28z
		 M-25.9-24.8c-0.5,0-1,0.5-1,1v43.3c0,0.5,0.5,1,1,1h9c-1.1-1.1-1.9-2.4-1.9-3.9h-4.4v-41.4C-23.3-24.8-25.9-24.8-25.9-24.8z"/>
	<polygon points="-0.2,-0.4 -8.1,-8.3 -8.1,-8.3 6.8,-23.1 31.9,2 26.2,7.8 7,-8.1 	"/>
</symbol>
<rect class="st0" width="15" height="15"/>
<g>
	<defs>
		<rect id="SVGID_1_" x="0" y="0" width="15" height="15"/>
	</defs>
	<clipPath id="SVGID_2_">
		<use xlink:href="#SVGID_1_"  style="overflow:visible;"/>
	</clipPath>
	<g transform="matrix(1 0 0 1 0 4.768372e-07)" style="clip-path:url(#SVGID_2_);">
		
			<use xlink:href="#Checklist"  width="63.9" height="64" x="-31.9" y="-32" transform="matrix(0.2349 0 0 -0.2344 7.5012 7.5035)" style="overflow:visible;"/>
	</g>
</g>
</svg>
