<?xml version="1.0" encoding="utf-8"?>
<!-- Generator: Adobe Illustrator 23.1.0, SVG Export Plug-In . SVG Version: 6.00 Build 0)  -->
<svg version="1.1" xmlns="http://www.w3.org/2000/svg" xmlns:xlink="http://www.w3.org/1999/xlink" x="0px" y="0px"
	 viewBox="0 0 50 50" style="enable-background:new 0 0 50 50;" xml:space="preserve">
<style type="text/css">
	.st0{fill:#FFFFFF;}
</style>
<symbol  id="Help" viewBox="-32 -32 64 64">
	<path d="M22.63,22.63C16.38,28.88,8.19,32,0,32s-16.38-3.13-22.63-9.37c-12.5-12.5-12.5-32.76,0-45.25C-16.38-28.88-8.19-32,0-32
		s16.38,3.13,22.63,9.37C35.12-10.13,35.12,10.13,22.63,22.63z M19.09-19.09C13.99-24.19,7.21-27,0-27s-13.99,2.81-19.09,7.91
		c-10.53,10.53-10.53,27.66,0,38.18C-13.99,24.19-7.21,27,0,27c7.21,0,13.99-2.81,19.09-7.91C29.62,8.56,29.62-8.56,19.09-19.09z"/>
	<path d="M9.24,16.43c-2.21,1.5-5.16,2.26-8.79,2.26c-4.65,0-8.13-1.09-10.35-3.22c-2.14-2.06-3.42-4.79-3.81-8.14l9.09-1.12
		c0.26,1.88,0.78,3.21,1.6,4.03c0.88,0.89,2,1.34,3.33,1.34c1.24,0,2.19-0.3,2.83-0.9C3.78,10.06,4.1,9.21,4.1,8.15
		c0-1.09-0.73-2.22-2.24-3.45C-0.71,2.57-2.38,1.07-3.1,0.23c-0.71-0.81-1.24-1.71-1.6-2.7c-0.36-0.98-0.54-2.29-0.54-3.89v-0.53
		h8.88c0.05,1.21,0.29,2.22,0.72,3.02c0.48,0.89,1.59,2.01,3.39,3.43c2.43,1.91,4.05,3.53,4.82,4.83c0.76,1.28,1.14,2.62,1.14,3.98
		C13.72,11.76,12.25,14.4,9.24,16.43z"/>
	<path d="M-0.49-10.16c-2.7,0-4.89-2.19-4.89-4.89c0-2.7,2.19-4.89,4.89-4.89c2.7,0,4.89,2.19,4.89,4.89
		C4.4-12.35,2.21-10.16-0.49-10.16z"/>
</symbol>
<g id="Layer_1">
	<rect x="0" y="0" class="st0" width="50" height="50"/>
	
		<use xlink:href="#Help"  width="64" height="64" x="-32" y="-32" transform="matrix(0.7813 0 0 -0.7813 25 25)" style="overflow:visible;"/>
</g>
<g id="Layer_2">
</g>
</svg>
