<?xml version="1.0" encoding="UTF-8" standalone="no"?>
<!DOCTYPE svg PUBLIC "-//W3C//DTD SVG 1.1//EN" "http://www.w3.org/Graphics/SVG/1.1/DTD/svg11.dtd">
<svg width="100px" height="100px" viewBox="0 0 1024 1024" version="1.1" xmlns="http://www.w3.org/2000/svg" xmlns:xlink="http://www.w3.org/1999/xlink" xml:space="preserve" xmlns:serif="http://www.serif.com/" style="fill-rule:evenodd;clip-rule:evenodd;stroke-linejoin:round;stroke-miterlimit:2;">
    <rect x="0" y="0" width="1024" height="1024" style="fill:rgb(20,20,20);fill-opacity:0;"/>
    <g id="Reach" transform="matrix(2.9397,0,0,2.9397,-288.61,-423.041)">
        <g id="Person-M" serif:id="Person M" transform="matrix(0.891821,0,0,0.891821,44.8213,12.6224)">
            <path d="M165.683,372.224C166.048,372.192 166.419,372.176 166.796,372.176L343.248,372.223C343.664,372.223 344.072,372.243 344.472,372.282L344.611,372.296L344.621,372.297L344.754,372.313L344.768,372.314L344.897,372.331L344.915,372.333L345.041,372.351L345.06,372.353L345.185,372.372L345.203,372.375L345.329,372.396L345.344,372.399L345.473,372.421L345.482,372.423C345.898,372.499 346.302,372.597 346.695,372.714L346.709,372.718L346.822,372.753L346.845,372.76L346.952,372.794L346.98,372.804L347.082,372.838L347.113,372.848L347.213,372.883L347.246,372.895L347.344,372.93L347.377,372.942L347.474,372.979L347.506,372.991L347.603,373.029L347.633,373.041L347.732,373.081L347.758,373.092L347.86,373.135L347.879,373.143L347.987,373.19L347.99,373.192C348.19,373.28 348.387,373.375 348.578,373.474L348.593,373.482L348.687,373.531L348.715,373.546L348.801,373.593L348.835,373.612L348.916,373.658L348.954,373.679L349.032,373.724L349.072,373.747L349.147,373.793L349.188,373.817L349.262,373.863L349.303,373.888L349.376,373.934L349.417,373.961L349.489,374.007L349.53,374.034L349.602,374.082L349.641,374.109L349.713,374.158L349.75,374.184L349.823,374.236L349.856,374.26L349.932,374.314L349.956,374.333C350.08,374.424 350.202,374.518 350.32,374.615L350.349,374.638L350.415,374.693L350.452,374.723L350.514,374.776L350.554,374.81L350.613,374.862L350.654,374.899L350.711,374.95L350.754,374.988L350.809,375.039L350.852,375.079L350.906,375.13L350.949,375.171L351.002,375.222L351.044,375.264L351.096,375.316L351.138,375.358L351.189,375.41L351.231,375.454L351.281,375.506L351.323,375.55L351.372,375.604L351.413,375.648L351.461,375.702L351.501,375.747L351.549,375.802L351.587,375.846L351.636,375.902L351.719,376.002L351.764,376.057L351.803,376.104L351.846,376.158L351.885,376.209L351.927,376.263L351.967,376.314L352.007,376.368L352.047,376.421L352.086,376.475L352.125,376.529L352.164,376.583L352.202,376.637L352.24,376.693L352.278,376.747L352.315,376.803L352.352,376.859L352.388,376.914L352.425,376.971L352.46,377.026L352.496,377.084L352.531,377.14L352.566,377.199L352.6,377.254L352.635,377.315L352.667,377.37L352.702,377.432L352.733,377.486L352.77,377.553L352.797,377.604L352.84,377.685L352.86,377.722L352.921,377.84L352.944,377.887L352.981,377.961L353.006,378.013L353.039,378.082L353.065,378.137L353.096,378.204L353.121,378.261L353.151,378.328L353.176,378.386L353.204,378.452L353.229,378.511L353.257,378.577L353.28,378.636L353.307,378.704L353.33,378.763L353.356,378.831L353.378,378.89L353.403,378.959L353.425,379.019L353.449,379.088L353.469,379.148L353.493,379.219L353.512,379.277L353.536,379.351L353.554,379.408L353.577,379.486L353.594,379.54L353.619,379.628L353.632,379.672L353.668,379.804L353.703,379.938L353.715,379.987L353.736,380.073L353.749,380.129L353.767,380.209L353.78,380.268L353.797,380.345L353.809,380.406L353.824,380.482L353.836,380.544L353.85,380.62L353.862,380.683L353.875,380.758L353.885,380.822L353.897,380.898L353.907,380.962L353.918,381.038L353.927,381.102L353.937,381.179L353.945,381.243L353.955,381.321L353.962,381.384L353.97,381.465L353.976,381.527L353.984,381.61L353.989,381.669L353.996,381.76L354,381.813L354.007,381.924L354.009,381.957L354.017,382.102L354.018,382.141L354.022,382.247L354.023,382.302L354.025,382.393L354.026,382.454L354.027,382.539L354.027,382.603L354.027,382.686L354.026,382.752L354.025,382.834L354.023,382.901L354.021,382.982L354.018,383.05L354.015,383.131L354.011,383.199L354.007,383.281L354.003,383.349L353.997,383.431L353.992,383.499L353.985,383.583L353.979,383.65L353.971,383.735L353.965,383.801L353.955,383.888L353.948,383.953L353.937,384.044L353.93,384.104L353.916,384.206L353.909,384.257L353.887,384.41L340.631,470.825C339.607,477.499 333.257,482.926 326.414,483.011L326.252,483.012L183.791,482.965C176.888,482.965 170.445,477.504 169.413,470.778L156.157,384.363L156.134,384.21L156.128,384.159L156.114,384.057L156.106,383.997L156.095,383.905L156.088,383.84L156.079,383.753L156.072,383.687L156.064,383.602L156.059,383.534L156.052,383.451L156.047,383.383L156.041,383.301L156.037,383.233L156.032,383.151L156.029,383.083L156.026,383.001L156.023,382.934L156.021,382.852L156.019,382.785L156.018,382.703L156.017,382.637L156.017,382.555L156.017,382.49L156.018,382.406L156.018,382.343L156.02,382.256L156.022,382.197L156.025,382.104L156.027,382.052L156.033,381.934L156.035,381.907L156.044,381.762L156.047,381.721L156.055,381.619L156.06,381.564L156.068,381.476L156.074,381.417L156.082,381.334L156.089,381.272L156.099,381.192L156.107,381.129L156.117,381.051L156.126,380.988L156.137,380.91L156.147,380.847L156.159,380.77L156.17,380.707L156.183,380.631L156.194,380.568L156.208,380.493L156.22,380.43L156.236,380.355L156.248,380.293L156.265,380.217L156.278,380.157L156.296,380.079L156.309,380.021L156.329,379.942L156.342,379.886L156.364,379.802L156.377,379.752L156.404,379.654L156.414,379.619L156.452,379.486L156.46,379.461L156.492,379.355L156.507,379.308L156.534,379.224L156.551,379.171L156.577,379.094L156.596,379.039L156.622,378.965L156.642,378.908L156.668,378.836L156.69,378.779L156.717,378.709L156.739,378.652L156.766,378.582L156.789,378.525L156.818,378.456L156.842,378.399L156.871,378.331L156.896,378.275L156.926,378.206L156.951,378.151L156.983,378.083L157.008,378.029L157.041,377.96L157.066,377.907L157.101,377.837L157.126,377.786L157.164,377.713L157.188,377.667L157.231,377.585L157.251,377.548L157.316,377.43L157.382,377.314L157.404,377.275L157.45,377.198L157.477,377.153L157.519,377.083L157.549,377.035L157.59,376.97L157.621,376.92L157.662,376.857L157.695,376.807L157.736,376.745L157.769,376.695L157.811,376.635L157.846,376.585L157.887,376.525L157.923,376.476L157.966,376.417L158.002,376.367L158.045,376.309L158.082,376.261L158.126,376.203L158.164,376.155L158.209,376.097L158.247,376.05L158.294,375.992L158.331,375.947L158.38,375.888L158.417,375.844L158.47,375.783L158.504,375.743L158.57,375.668L158.593,375.643L158.682,375.546L158.715,375.51L158.773,375.448L158.813,375.407L158.865,375.352L158.908,375.308L158.959,375.257L159.004,375.213L159.054,375.163L159.1,375.119L159.151,375.071L159.198,375.026L159.248,374.979L159.297,374.935L159.347,374.889L159.397,374.845L159.447,374.8L159.498,374.757L159.549,374.713L159.6,374.669L159.652,374.627L159.704,374.584L159.756,374.542L159.809,374.499L159.861,374.458L159.915,374.416L159.967,374.377L160.022,374.334L160.073,374.296L160.131,374.254L160.179,374.219C160.257,374.162 160.336,374.107 160.416,374.052L160.459,374.024L160.525,373.98L160.572,373.949L160.637,373.907L160.686,373.875L160.751,373.834L160.801,373.803L160.867,373.763L160.917,373.733L160.984,373.693L161.034,373.664L161.102,373.625L161.153,373.596L161.222,373.558L161.272,373.53L161.342,373.492L161.392,373.466L161.464,373.428L161.513,373.403L161.587,373.365L161.634,373.342L161.711,373.304L161.755,373.282L161.836,373.244L161.876,373.225L161.962,373.185L161.993,373.172L162.089,373.129L162.098,373.125C162.259,373.054 162.424,372.987 162.59,372.924L162.594,372.922L162.704,372.882L162.725,372.874L162.829,372.837L162.858,372.826L162.958,372.792L162.991,372.781L163.09,372.748L163.124,372.737L163.224,372.705L163.259,372.694L163.359,372.664L163.394,372.654L163.496,372.624L163.529,372.615L163.634,372.586L163.664,372.578L163.773,372.549L163.799,372.543L163.913,372.514L163.932,372.51L164.054,372.481L164.062,372.479C164.566,372.363 165.086,372.28 165.622,372.23L165.683,372.224ZM166.325,365.882C170.664,340.584 192.715,321.319 219.247,321.319L223.116,321.319C232.859,325.98 243.579,328.777 255.045,328.777C266.512,328.777 277.279,325.98 286.975,321.319L290.843,321.319C317.376,321.319 339.427,340.584 343.766,365.882L166.325,365.882ZM255.045,306.403C283.898,306.403 307.251,283.05 307.251,254.197C307.251,225.345 283.898,201.992 255.045,201.992C226.193,201.992 202.84,225.345 202.84,254.197C202.84,283.05 226.193,306.403 255.045,306.403Z" style="fill:white;fill-rule:nonzero;"/>
        </g>
        <g id="Logo-M" serif:id="Logo M" transform="matrix(1,0,0,1,35.7523,53.6284)">
            <circle cx="236.524" cy="339.749" r="7.483" style="fill:rgb(20,20,20);"/>
        </g>
        <g id="Person-R" serif:id="Person R" transform="matrix(0.891821,0,0,0.891821,44.8213,12.6224)">
            <path d="M344.447,345.738L444.21,345.764C444.479,345.764 444.743,345.777 445.002,345.802L445.092,345.811L445.098,345.812L445.184,345.822L445.193,345.823L445.277,345.834L445.288,345.835L445.37,345.847L445.382,345.848L445.463,345.861L445.474,345.863L445.556,345.876L445.566,345.878L445.648,345.892L445.655,345.894C445.923,345.943 446.184,346.006 446.438,346.082L446.448,346.084L446.521,346.107L446.536,346.111L446.604,346.133L446.623,346.139L446.689,346.162L446.709,346.168L446.773,346.191L446.794,346.198L446.858,346.221L446.879,346.229L446.942,346.253L446.963,346.261L447.026,346.285L447.045,346.293L447.109,346.319L447.126,346.326L447.191,346.354L447.204,346.359L447.273,346.389L447.276,346.39C447.405,346.448 447.532,346.509 447.656,346.573L447.666,346.578L447.726,346.61L447.744,346.619L447.799,346.65L447.822,346.662L447.874,346.691L447.898,346.705L447.949,346.734L447.975,346.749L448.024,346.779L448.05,346.795L448.098,346.824L448.124,346.84L448.172,346.87L448.198,346.887L448.245,346.917L448.271,346.935L448.317,346.966L448.343,346.983L448.389,347.015L448.413,347.032L448.46,347.065L448.482,347.081L448.53,347.116L448.546,347.128C448.626,347.187 448.705,347.248 448.782,347.31L448.8,347.325L448.843,347.36L448.867,347.38L448.907,347.414L448.933,347.436L448.971,347.47L448.998,347.493L449.035,347.527L449.062,347.551L449.098,347.584L449.125,347.61L449.16,347.643L449.188,347.669L449.222,347.703L449.25,347.73L449.283,347.763L449.31,347.791L449.343,347.824L449.37,347.852L449.403,347.886L449.43,347.915L449.462,347.949L449.488,347.978L449.519,348.013L449.545,348.042L449.576,348.077L449.632,348.142L449.686,348.206L449.74,348.273L449.768,348.308L449.793,348.34L449.82,348.375L449.846,348.408L449.872,348.443L449.897,348.477L449.923,348.513L449.948,348.547L449.973,348.582L449.998,348.617L450.023,348.653L450.047,348.689L450.071,348.724L450.095,348.76L450.118,348.796L450.142,348.833L450.165,348.869L450.188,348.906L450.21,348.942L450.233,348.98L450.255,349.016L450.278,349.055L450.298,349.091L450.321,349.131L450.341,349.166L450.365,349.209L450.383,349.242L450.423,349.318L450.462,349.395L450.501,349.473L450.518,349.507L450.539,349.551L450.556,349.587L450.576,349.63L450.592,349.667L450.611,349.71L450.627,349.747L450.646,349.79L450.662,349.828L450.679,349.871L450.695,349.909L450.712,349.953L450.727,349.991L450.744,350.035L450.758,350.074L450.774,350.118L450.788,350.156L450.804,350.202L450.817,350.24L450.832,350.286L450.845,350.324L450.86,350.371L450.872,350.408L450.887,350.459L450.897,350.493L450.922,350.579L450.945,350.664L450.968,350.751L450.976,350.783L450.989,350.838L450.998,350.874L451.009,350.925L451.018,350.964L451.028,351.014L451.037,351.053L451.046,351.102L451.054,351.142L451.063,351.191L451.071,351.232L451.079,351.281L451.086,351.322L451.094,351.371L451.1,351.412L451.107,351.462L451.113,351.503L451.12,351.553L451.125,351.594L451.131,351.645L451.135,351.686L451.141,351.738L451.145,351.777L451.15,351.832L451.153,351.87L451.158,351.928L451.16,351.962L451.166,352.056L451.171,352.149L451.174,352.243L451.175,352.279L451.176,352.337L451.177,352.377L451.178,352.432L451.178,352.473L451.177,352.527L451.177,352.569L451.176,352.622L451.175,352.666L451.173,352.718L451.172,352.762L451.17,352.815L451.167,352.858L451.164,352.911L451.162,352.955L451.158,353.009L451.155,353.052L451.15,353.106L451.147,353.15L451.142,353.205L451.137,353.247L451.131,353.304L451.127,353.345L451.119,353.405L451.115,353.444L451.106,353.509L451.101,353.542L451.087,353.641L442.519,409.494C441.857,413.807 437.753,417.315 433.33,417.37L433.226,417.371L356.506,417.345C358.148,406.669 359.768,395.99 361.336,385.303C362.314,378.061 358.891,370.843 352.885,367.289C352.344,366.969 352.18,366.855 351.151,366.39L351.154,364.594C351.154,364.594 350.918,363.261 350.707,362.264C349.466,356.417 347.321,350.861 344.447,345.738ZM333.37,331.365C339.192,320.363 350.756,312.863 364.065,312.863L366.565,312.863C372.862,315.876 379.791,317.683 387.202,317.683C394.613,317.683 401.573,315.876 407.839,312.863L410.34,312.863C427.488,312.863 441.74,325.315 444.545,341.666L341.951,341.666C339.462,337.937 336.576,334.483 333.37,331.365ZM387.202,303.222C405.851,303.222 420.944,288.129 420.944,269.48C420.944,250.832 405.851,235.738 387.202,235.738C368.554,235.738 353.46,250.832 353.46,269.48C353.46,288.129 368.554,303.222 387.202,303.222Z" style="fill:rgb(170,170,170);fill-rule:nonzero;"/>
        </g>
        <g id="Logo-R" serif:id="Logo R" transform="matrix(0.646334,0,0,0.646334,245.21,131.59)">
            <circle cx="236.524" cy="339.749" r="7.483" style="fill:white;"/>
        </g>
        <g id="Person-L" serif:id="Person L" transform="matrix(-0.891821,0,0,0.891821,499.866,12.6224)">
            <path d="M344.447,345.738L444.21,345.764C444.479,345.764 444.743,345.777 445.002,345.802L445.092,345.811L445.098,345.812L445.184,345.822L445.193,345.823L445.277,345.834L445.288,345.835L445.37,345.847L445.382,345.848L445.463,345.861L445.474,345.863L445.556,345.876L445.566,345.878L445.648,345.892L445.655,345.894C445.923,345.943 446.184,346.006 446.438,346.082L446.448,346.084L446.521,346.107L446.536,346.111L446.604,346.133L446.623,346.139L446.689,346.162L446.709,346.168L446.773,346.191L446.794,346.198L446.858,346.221L446.879,346.229L446.942,346.253L446.963,346.261L447.026,346.285L447.045,346.293L447.109,346.319L447.126,346.326L447.191,346.354L447.204,346.359L447.273,346.389L447.276,346.39C447.405,346.448 447.532,346.509 447.656,346.573L447.666,346.578L447.726,346.61L447.744,346.619L447.799,346.65L447.822,346.662L447.874,346.691L447.898,346.705L447.949,346.734L447.975,346.749L448.024,346.779L448.05,346.795L448.098,346.824L448.124,346.84L448.172,346.87L448.198,346.887L448.245,346.917L448.271,346.935L448.317,346.966L448.343,346.983L448.389,347.015L448.413,347.032L448.46,347.065L448.482,347.081L448.53,347.116L448.546,347.128C448.626,347.187 448.705,347.248 448.782,347.31L448.8,347.325L448.843,347.36L448.867,347.38L448.907,347.414L448.933,347.436L448.971,347.47L448.998,347.493L449.035,347.527L449.062,347.551L449.098,347.584L449.125,347.61L449.16,347.643L449.188,347.669L449.222,347.703L449.25,347.73L449.283,347.763L449.31,347.791L449.343,347.824L449.37,347.852L449.403,347.886L449.43,347.915L449.462,347.949L449.488,347.978L449.519,348.013L449.545,348.042L449.576,348.077L449.632,348.142L449.686,348.206L449.74,348.273L449.768,348.308L449.793,348.34L449.82,348.375L449.846,348.408L449.872,348.443L449.897,348.477L449.923,348.513L449.948,348.547L449.973,348.582L449.998,348.617L450.023,348.653L450.047,348.689L450.071,348.724L450.095,348.76L450.118,348.796L450.142,348.833L450.165,348.869L450.188,348.906L450.21,348.942L450.233,348.98L450.255,349.016L450.278,349.055L450.298,349.091L450.321,349.131L450.341,349.166L450.365,349.209L450.383,349.242L450.423,349.318L450.462,349.395L450.501,349.473L450.518,349.507L450.539,349.551L450.556,349.587L450.576,349.63L450.592,349.667L450.611,349.71L450.627,349.747L450.646,349.79L450.662,349.828L450.679,349.871L450.695,349.909L450.712,349.953L450.727,349.991L450.744,350.035L450.758,350.074L450.774,350.118L450.788,350.156L450.804,350.202L450.817,350.24L450.832,350.286L450.845,350.324L450.86,350.371L450.872,350.408L450.887,350.459L450.897,350.493L450.922,350.579L450.945,350.664L450.968,350.751L450.976,350.783L450.989,350.838L450.998,350.874L451.009,350.925L451.018,350.964L451.028,351.014L451.037,351.053L451.046,351.102L451.054,351.142L451.063,351.191L451.071,351.232L451.079,351.281L451.086,351.322L451.094,351.371L451.1,351.412L451.107,351.462L451.113,351.503L451.12,351.553L451.125,351.594L451.131,351.645L451.135,351.686L451.141,351.738L451.145,351.777L451.15,351.832L451.153,351.87L451.158,351.928L451.16,351.962L451.166,352.056L451.171,352.149L451.174,352.243L451.175,352.279L451.176,352.337L451.177,352.377L451.178,352.432L451.178,352.473L451.177,352.527L451.177,352.569L451.176,352.622L451.175,352.666L451.173,352.718L451.172,352.762L451.17,352.815L451.167,352.858L451.164,352.911L451.162,352.955L451.158,353.009L451.155,353.052L451.15,353.106L451.147,353.15L451.142,353.205L451.137,353.247L451.131,353.304L451.127,353.345L451.119,353.405L451.115,353.444L451.106,353.509L451.101,353.542L451.087,353.641L442.519,409.494C441.857,413.807 437.753,417.315 433.33,417.37L433.226,417.371L356.506,417.345C358.148,406.669 359.768,395.99 361.336,385.303C362.314,378.061 358.891,370.843 352.885,367.289C352.344,366.969 352.18,366.855 351.151,366.39L351.154,364.594C351.154,364.594 350.918,363.261 350.707,362.264C349.466,356.417 347.321,350.861 344.447,345.738ZM333.37,331.365C339.192,320.363 350.756,312.863 364.065,312.863L366.565,312.863C372.862,315.876 379.791,317.683 387.202,317.683C394.613,317.683 401.573,315.876 407.839,312.863L410.34,312.863C427.488,312.863 441.74,325.315 444.545,341.666L341.951,341.666C339.462,337.937 336.576,334.483 333.37,331.365ZM387.202,303.222C405.851,303.222 420.944,288.129 420.944,269.48C420.944,250.832 405.851,235.738 387.202,235.738C368.554,235.738 353.46,250.832 353.46,269.48C353.46,288.129 368.554,303.222 387.202,303.222Z" style="fill:rgb(170,170,170);fill-rule:nonzero;"/>
        </g>
        <g id="Logo-L" serif:id="Logo L" transform="matrix(0.646334,0,0,0.646334,-6.49897,131.59)">
            <circle cx="236.524" cy="339.749" r="7.483" style="fill:white;"/>
        </g>
    </g>
</svg>
