<?xml version="1.0" encoding="UTF-8" standalone="no"?>
<!DOCTYPE svg PUBLIC "-//W3C//DTD SVG 1.1//EN" "http://www.w3.org/Graphics/SVG/1.1/DTD/svg11.dtd">
<svg width="100px" height="100px" viewBox="0 0 1024 1024" version="1.1" xmlns="http://www.w3.org/2000/svg" xmlns:xlink="http://www.w3.org/1999/xlink" xml:space="preserve" xmlns:serif="http://www.serif.com/" style="fill-rule:evenodd;clip-rule:evenodd;stroke-linejoin:round;stroke-miterlimit:2;">
    <rect x="0" y="0" width="1024" height="1024" style="fill:rgb(20,20,20);fill-opacity:0;"/>
    <g id="Versatility" transform="matrix(3.60602,0,0,3.60602,-5188.76,-947.251)">
        <g id="Shadow" transform="matrix(0.989079,0,0,1,17.2657,1.52051)">
            <path d="M1580.9,484.7L1580.9,492.6L1442.36,492.628L1438.36,488.628L1438.36,484.7L1580.9,484.7ZM1580.9,484.7L1723.44,484.7L1723.44,488.628L1719.44,492.628L1580.9,492.6L1580.9,484.7Z" style="fill-opacity:0.25;"/>
        </g>
        <g transform="matrix(0.751243,0,0,0.751243,824.804,-119.093)">
            <path d="M1161.55,792.644L851.368,792.644L846.574,787.85L846.574,592.473C846.574,584.535 853.018,578.091 860.957,578.091L1151.96,578.091C1159.9,578.091 1166.35,584.535 1166.35,592.473L1166.35,787.85L1161.55,792.644ZM1006.46,777.064L1006.46,593.225L861.709,593.225L861.709,777.064L1006.46,777.064ZM1151.21,777.064L1151.21,593.225L1006.46,593.225L1006.46,777.064L1151.21,777.064Z" style="fill:white;"/>
        </g>
        <path d="M1580.9,476.375L1580.9,484.7L1438.36,484.7L1464.42,476.375L1580.9,476.375ZM1723.44,484.7L1580.9,484.7L1580.9,476.375L1697.38,476.375L1723.44,484.7Z" style="fill:rgb(170,170,170);"/>
        <path d="M1683.18,481.651L1478.62,481.651L1484.91,478.35L1580.9,478.212L1676.89,478.35L1683.18,481.651Z" style="fill:rgb(20,20,20);"/>
        <path d="M1580.9,484.7L1580.9,492.6L1442.36,492.628L1438.36,488.628L1438.36,484.7L1580.9,484.7ZM1580.9,484.7L1723.44,484.7L1723.44,488.628L1719.44,492.628L1580.9,492.6L1580.9,484.7Z" style="fill:white;"/>
        <g id="Code" transform="matrix(0.277314,0,0,0.277314,1438.92,262.853)">
            <g transform="matrix(1.08442,0,0,1,-88.9256,-36.2171)">
                <rect x="241.707" y="307.623" width="179.071" height="16.521" style="fill:rgb(170,170,170);"/>
            </g>
            <g transform="matrix(0.981139,0,0,1,2.21136,2.68812)">
                <rect x="241.707" y="307.623" width="179.071" height="16.521" style="fill:rgb(170,170,170);"/>
            </g>
            <g transform="matrix(0.480887,0,0,1,189.011,41.5933)">
                <rect x="241.707" y="307.623" width="179.071" height="16.521" style="fill:rgb(170,170,170);"/>
            </g>
            <g transform="matrix(0.828307,0,0,1,214.845,41.5933)">
                <rect x="241.707" y="307.623" width="179.071" height="16.521" style="fill:rgb(170,170,170);"/>
            </g>
            <g transform="matrix(2.35744,0,0,1,-198.68,82.6304)">
                <rect x="241.707" y="307.623" width="179.071" height="16.521" style="fill:rgb(170,170,170);"/>
            </g>
            <g transform="matrix(0.480887,0,0,1,254.896,122.601)">
                <rect x="241.707" y="307.623" width="179.071" height="16.521" style="fill:rgb(170,170,170);"/>
            </g>
            <g transform="matrix(1.38888,0,0,1,145.815,122.601)">
                <rect x="241.707" y="307.623" width="179.071" height="16.521" style="fill:rgb(170,170,170);"/>
            </g>
            <g transform="matrix(2.11826,0,0,1,-140.868,162.23)">
                <rect x="241.707" y="307.623" width="179.071" height="16.521" style="fill:rgb(170,170,170);"/>
            </g>
            <g transform="matrix(1.54665,0,0,1,-68.5906,202.202)">
                <rect x="241.707" y="307.623" width="179.071" height="16.521" style="fill:rgb(170,170,170);"/>
            </g>
            <g transform="matrix(0.828307,0,0,1,39.1522,284.276)">
                <rect x="241.707" y="307.623" width="179.071" height="16.521" style="fill:rgb(170,170,170);"/>
            </g>
            <g transform="matrix(0.7294,0,0,1,63.0587,323.714)">
                <rect x="241.707" y="307.623" width="179.071" height="16.521" style="fill:rgb(170,170,170);"/>
            </g>
            <g transform="matrix(0.448613,0,0,1,64.753,363.152)">
                <rect x="241.707" y="307.623" width="179.071" height="16.521" style="fill:rgb(170,170,170);"/>
            </g>
            <g transform="matrix(0.480887,0,0,1,189.011,243.239)">
                <rect x="241.707" y="307.623" width="179.071" height="16.521" style="fill:rgb(170,170,170);"/>
            </g>
            <g transform="matrix(0.7083,0,0,1,242.118,243.239)">
                <rect x="241.707" y="307.623" width="179.071" height="16.521" style="fill:rgb(170,170,170);"/>
            </g>
        </g>
    </g>
</svg>
