<?xml version="1.0" encoding="UTF-8" standalone="no"?>
<!DOCTYPE svg PUBLIC "-//W3C//DTD SVG 1.1//EN" "http://www.w3.org/Graphics/SVG/1.1/DTD/svg11.dtd">
<svg width="100px" height="100px" viewBox="0 0 1024 1024" version="1.1" xmlns="http://www.w3.org/2000/svg" xmlns:xlink="http://www.w3.org/1999/xlink" xml:space="preserve" xmlns:serif="http://www.serif.com/" style="fill-rule:evenodd;clip-rule:evenodd;stroke-linejoin:round;stroke-miterlimit:2;">
    <rect x="0" y="0" width="1024" height="1024" style="fill:rgb(20,20,20);fill-opacity:0;"/>
    <g id="Power" transform="matrix(18.1392,0,0,18.1392,-1290.01,-1804.47)">
        <g transform="matrix(0.140625,0,0,0.140625,63.5001,91.4648)">
            <path d="M254.886,93.054C345.761,93.054 419.539,166.832 419.539,257.706C419.539,348.58 345.761,422.359 254.886,422.359C164.012,422.359 90.234,348.58 90.234,257.706C90.234,166.832 164.012,93.054 254.886,93.054ZM254.886,108.66C337.147,108.66 403.932,175.446 403.932,257.706C403.932,339.967 337.147,406.752 254.886,406.752C172.626,406.752 105.841,339.967 105.841,257.706C105.841,175.446 172.626,108.66 254.886,108.66Z" style="fill:white;"/>
        </g>
        <g transform="matrix(0.140625,0,0,0.140625,63.5001,91.4648)">
            <path d="M369.99,341.323C344.195,376.997 302.232,400.226 254.886,400.226C252.585,400.226 250.297,400.171 248.023,400.062L325.963,265.065L369.99,341.323ZM284.336,322.882L240.12,399.465C191.349,394.415 149.875,364.628 128.477,322.882L284.336,322.882ZM374.455,334.772L296.853,200.26L384.462,200.26C392.414,217.975 396.838,237.612 396.838,258.274C396.838,286.434 388.621,312.69 374.455,334.772ZM215.515,315.74L125.066,315.74C117.268,298.168 112.934,278.723 112.934,258.274C112.934,229.123 121.74,202.013 136.835,179.462L215.515,315.74ZM141.383,173.056C167.293,138.612 208.507,116.322 254.886,116.322C257.712,116.322 260.519,116.405 263.304,116.568L186.037,250.399L141.383,173.056ZM271.16,117.246C319.065,122.724 359.757,152.088 381.013,193.118L227.355,193.118L271.16,117.246Z" style="fill:rgb(170,170,170);"/>
        </g>
    </g>
</svg>
