<?xml version="1.0" encoding="UTF-8" standalone="no"?>
<!DOCTYPE svg PUBLIC "-//W3C//DTD SVG 1.1//EN" "http://www.w3.org/Graphics/SVG/1.1/DTD/svg11.dtd">
<svg width="200px" height="100%" viewBox="0 0 789 220" version="1.1" xmlns="http://www.w3.org/2000/svg" xmlns:xlink="http://www.w3.org/1999/xlink" xml:space="preserve" xmlns:serif="http://www.serif.com/" style="fill-rule:evenodd;clip-rule:evenodd;stroke-linejoin:round;stroke-miterlimit:2;">
    <g id="Layer-1" serif:id="Layer 1" transform="matrix(4.16667,0,0,4.16667,-196.224,-480.93)">
        <g transform="matrix(1,0,0,1,159.455,129.109)">
            <path d="M0,25.306L-35.309,25.306L-35.309,0L-6.305,0L-6.305,6.284L-30.049,6.284L-30.049,12.276C-30.049,16.473 -26.646,19.875 -22.449,19.875L7.321,19.875L7.323,-6.135C7.323,-10.272 3.97,-13.625 -0.167,-13.626L-41.638,-13.627C-45.774,-13.627 -49.128,-10.274 -49.128,-6.137L-49.129,31.442C-49.129,35.578 -45.776,38.931 -41.64,38.932L7.489,38.933L7.489,32.796C7.489,28.66 4.136,25.306 0,25.306" style="fill:rgb(249,206,3);fill-rule:nonzero;"/>
        </g>
        <g transform="matrix(1,0,0,1,230.966,129.075)">
            <path d="M0,25.314L0,-5.032C0,-9.787 -3.854,-13.643 -8.609,-13.644L-45.856,-13.652C-50.613,-13.653 -54.47,-9.797 -54.47,-5.04L-54.47,30.338C-54.47,35.092 -50.618,38.947 -45.864,38.951L-18.935,38.967L-18.935,32.949C-18.935,28.741 -22.346,25.329 -26.555,25.329L-40.636,25.328L-40.636,-0.003L-13.639,-0.003L-13.639,31.262C-13.639,35.517 -10.189,38.967 -5.935,38.967L5.405,38.967L5.405,29.282C5.405,27.09 3.629,25.314 1.437,25.314L0,25.314Z" style="fill:rgb(249,206,3);fill-rule:nonzero;"/>
        </g>
        <g transform="matrix(1,0,0,1,69.5968,129.035)">
            <path d="M0,25.455L27.636,0.617C29.238,-0.823 30.153,-2.876 30.153,-5.03L30.153,-13.553L-13.422,-13.553C-17.542,-13.553 -20.881,-10.213 -20.881,-6.094L-20.881,-0.009L7.586,-0.008L-19.993,24.844C-21.591,26.284 -22.503,28.334 -22.503,30.484L-22.503,39.008L24.316,39.008C28.436,39.008 31.775,35.668 31.775,31.549L31.775,25.465L0,25.455Z" style="fill:rgb(249,206,3);fill-rule:nonzero;"/>
        </g>
    </g>
</svg>
