<?xml version="1.0" encoding="utf-8"?>
<!-- Generator: Adobe Illustrator 23.1.0, SVG Export Plug-In . SVG Version: 6.00 Build 0)  -->
<svg version="1.1" id="Layer_1" xmlns="http://www.w3.org/2000/svg" xmlns:xlink="http://www.w3.org/1999/xlink" x="0px" y="0px"
	 viewBox="0 0 50 50" style="enable-background:new 0 0 50 50;" xml:space="preserve">
<style type="text/css">
	.st0{fill:#FFFFFF;}
</style>
<symbol  id="Info" viewBox="-32 -32 64 64">
	<path d="M22.63,22.63C16.38,28.88,8.19,32,0,32s-16.38-3.12-22.63-9.37c-12.5-12.5-12.5-32.76,0-45.25C-16.38-28.88-8.19-32,0-32
		s16.38,3.12,22.63,9.37C35.12-10.13,35.12,10.13,22.63,22.63z M19.09-19.09C13.99-24.19,7.21-27,0-27s-13.99,2.81-19.09,7.91
		c-10.53,10.53-10.53,27.66,0,38.18C-13.99,24.19-7.21,27,0,27s13.99-2.81,19.09-7.91v0C24.19,13.99,27,7.21,27,0
		C27-7.21,24.19-13.99,19.09-19.09z"/>
	<path d="M0,17c-2.58,0-4.68-2.09-4.68-4.68c0-2.58,2.09-4.68,4.68-4.68c2.58,0,4.68,2.09,4.68,4.68C4.68,14.91,2.58,17,0,17z"/>
	<rect x="-4.27" y="-17" width="8.54" height="21.12"/>
</symbol>
<rect x="0" y="0" class="st0" width="50" height="50"/>
<use xlink:href="#Info"  width="64" height="64" x="-32" y="-32" transform="matrix(0.7813 0 0 -0.7813 25 25)" style="overflow:visible;"/>
</svg>
