<?xml version="1.0" standalone="no"?>
<!DOCTYPE svg PUBLIC "-//W3C//DTD SVG 20010904//EN"
 "http://www.w3.org/TR/2001/REC-SVG-20010904/DTD/svg10.dtd">
<svg version="1.0" xmlns="http://www.w3.org/2000/svg"
 width="320.000000pt" height="320.000000pt" viewBox="0 0 320.000000 320.000000"
 preserveAspectRatio="xMidYMid meet">

<g transform="translate(0.000000,320.000000) scale(0.100000,-0.100000)"
fill="#000000" stroke="none">
<path d="M1780 1663 c-30 -32 -78 -84 -108 -116 l-55 -58 -101 105 c-85 89
-105 105 -124 100 -27 -8 -45 -38 -37 -63 3 -10 51 -60 106 -111 88 -82 98
-94 87 -110 -7 -10 -49 -59 -93 -110 -104 -119 -111 -134 -90 -166 12 -18 24
-24 42 -22 21 2 45 29 115 128 49 69 93 126 97 128 5 1 58 -40 119 -93 61 -52
113 -95 117 -95 3 0 18 -12 32 -27 45 -49 1 9 -102 132 -55 66 -106 128 -113
137 -11 14 -2 34 70 145 46 70 87 134 92 141 15 25 -3 10 -54 -45z"/>
</g>
</svg>
