<?xml version="1.0" encoding="UTF-8" standalone="no"?>
<!DOCTYPE svg PUBLIC "-//W3C//DTD SVG 1.1//EN" "http://www.w3.org/Graphics/SVG/1.1/DTD/svg11.dtd">
<svg width="100%" height="100%" viewBox="0 0 32 32" version="1.1" xmlns="http://www.w3.org/2000/svg" xmlns:xlink="http://www.w3.org/1999/xlink" xml:space="preserve" xmlns:serif="http://www.serif.com/" style="fill-rule:evenodd;clip-rule:evenodd;stroke-linecap:round;stroke-linejoin:round;stroke-miterlimit:1.5;">
    <g transform="matrix(0.740741,0,0,0.769231,3.77778,4.46154)">
        <path d="M30,7.2C30,4.33 27.58,2 24.6,2L8.4,2C5.42,2 3,4.33 3,7.2L3,22.8C3,25.67 5.42,28 8.4,28L24.6,28C27.58,28 30,25.67 30,22.8L30,7.2Z" style="fill:rgb(236,102,0);stroke:rgb(236,83,0);stroke-width:1.32px;"/>
    </g>
    <g transform="matrix(-0.885412,-0.0025536,0.00240478,-0.833811,31.8773,32.3067)">
        <path d="M26,25L10,25L11.879,10L24.121,10L26,25Z" style="fill:white;"/>
    </g>
    <g transform="matrix(0.833333,0,0,1.25547,2.66667,-1.12711)">
        <path d="M26,8.494C26,8.221 25.667,8 25.256,8L6.744,8C6.333,8 6,8.221 6,8.494L6,9.481C6,9.753 6.333,9.974 6.744,9.974L25.256,9.974C25.667,9.974 26,9.753 26,9.481L26,8.494Z" style="fill:white;"/>
    </g>
    <g transform="matrix(0.833333,0,0,0.833333,1.83333,2.2608)">
        <path d="M17,6C19.208,6 21,6.89 21,7.987C21,9.084 19.208,9.974 17,9.974C14.792,9.974 13,9.084 13,7.987C13,6.89 14.792,6 17,6ZM17,6.994C18.104,6.994 19,7.439 19,7.987C19,8.535 18.104,8.981 17,8.981C15.896,8.981 15,8.535 15,7.987C15,7.439 15.896,6.994 17,6.994Z" style="fill:white;"/>
    </g>
    <g transform="matrix(0.261767,0.215338,-0.449691,0.57929,19.1767,6.30682)">
        <path d="M13.5,8.987C13.5,8.987 12,16.211 12,19.306C12,19.689 12.672,20 13.5,20C14.328,20 15,19.689 15,19.306C15,16.211 13.5,8.987 13.5,8.987Z"/>
    </g>
    <g transform="matrix(-0.23472,0.246173,-0.514083,-0.519435,27.1221,22.2577)">
        <path d="M13.5,8.987C13.5,8.987 12,16.207 12,19.302C12,19.687 12.672,20 13.5,20C14.328,20 15,19.687 15,19.302C15,16.207 13.5,8.987 13.5,8.987Z"/>
    </g>
</svg>
