<?xml version="1.0" encoding="UTF-8" standalone="no"?>
<!DOCTYPE svg PUBLIC "-//W3C//DTD SVG 1.1//EN" "http://www.w3.org/Graphics/SVG/1.1/DTD/svg11.dtd">
<svg width="100%" height="100%" viewBox="0 0 32 32" version="1.1" xmlns="http://www.w3.org/2000/svg" xmlns:xlink="http://www.w3.org/1999/xlink" xml:space="preserve" xmlns:serif="http://www.serif.com/" style="fill-rule:evenodd;clip-rule:evenodd;stroke-linecap:round;stroke-linejoin:round;stroke-miterlimit:1.5;">
    <g transform="matrix(0.888889,0,0,0.923077,1.33333,2.15385)">
        <path d="M30,6.333C30,3.942 27.984,2 25.5,2L7.5,2C5.016,2 3,3.942 3,6.333L3,23.667C3,26.058 5.016,28 7.5,28L25.5,28C27.984,28 30,26.058 30,23.667L30,6.333Z" style="fill:rgb(236,102,0);stroke:rgb(236,83,0);stroke-width:1.1px;"/>
    </g>
    <g transform="matrix(-1.06249,-0.00306432,0.00288574,-1.00057,35.0528,35.5681)">
        <path d="M26,25L10,25L11.879,10L24.121,10L26,25Z" style="fill:white;"/>
    </g>
    <g transform="matrix(1,0,0,1.50657,-3.55271e-15,-4.55253)">
        <path d="M26,8.494C26,8.221 25.667,8 25.256,8L6.744,8C6.333,8 6,8.221 6,8.494L6,9.481C6,9.753 6.333,9.974 6.744,9.974L25.256,9.974C25.667,9.974 26,9.753 26,9.481L26,8.494Z" style="fill:white;"/>
    </g>
    <g transform="matrix(1,0,0,1,-1,-0.487037)">
        <path d="M17,6C19.208,6 21,6.89 21,7.987C21,9.084 19.208,9.974 17,9.974C14.792,9.974 13,9.084 13,7.987C13,6.89 14.792,6 17,6ZM17,6.994C18.104,6.994 19,7.439 19,7.987C19,8.535 18.104,8.981 17,8.981C15.896,8.981 15,8.535 15,7.987C15,7.439 15.896,6.994 17,6.994Z" style="fill:white;"/>
    </g>
    <g transform="matrix(0.314121,0.258406,-0.53963,0.695148,19.812,4.36819)">
        <path d="M13.5,8.987C13.5,8.987 12,16.211 12,19.306C12,19.689 12.672,20 13.5,20C14.328,20 15,19.689 15,19.306C15,16.211 13.5,8.987 13.5,8.987Z"/>
    </g>
    <g transform="matrix(-0.281664,0.295407,-0.616899,-0.623322,29.3466,23.5092)">
        <path d="M13.5,8.987C13.5,8.987 12,16.207 12,19.302C12,19.687 12.672,20 13.5,20C14.328,20 15,19.687 15,19.302C15,16.207 13.5,8.987 13.5,8.987Z"/>
    </g>
</svg>
