<?xml version="1.0" encoding="UTF-8" standalone="no"?>
<!DOCTYPE svg PUBLIC "-//W3C//DTD SVG 1.1//EN" "http://www.w3.org/Graphics/SVG/1.1/DTD/svg11.dtd">
<svg width="100%" height="100%" viewBox="0 0 32 32" version="1.1" xmlns="http://www.w3.org/2000/svg" xmlns:xlink="http://www.w3.org/1999/xlink" xml:space="preserve" xmlns:serif="http://www.serif.com/" style="fill-rule:evenodd;clip-rule:evenodd;stroke-linejoin:round;stroke-miterlimit:2;">
    <g transform="matrix(1,0,0,1,-1,0)">
        <path d="M17,16L8,12L8,21L17,25L17,16Z" style="fill:white;"/>
    </g>
    <g transform="matrix(1,0,0,1,-1,0)">
        <path d="M26,12L18,16L18,25L24.958,22.391L26,21L26,19.371L26,12Z" style="fill:white;"/>
    </g>
    <g transform="matrix(1,0,0,1,-1,0)">
        <path d="M26,11L17,7L8,11L18,15L26,11Z" style="fill:white;fill-opacity:0.8;"/>
    </g>
    <g transform="matrix(1,0,0,1,-1,0)">
        <path d="M26,11L17,7L8,11L18,15L26,11Z" style="fill:rgb(236,102,10);fill-opacity:0.6;"/>
    </g>
</svg>
