<?xml version="1.0" encoding="UTF-8" standalone="no"?>
<!-- Generated by IcoMoon.io -->

<svg
   xmlns:inkscape="http://www.inkscape.org/namespaces/inkscape"
   xmlns:sodipodi="http://sodipodi.sourceforge.net/DTD/sodipodi-0.dtd"
   xmlns:svg="http://www.w3.org/2000/svg"
   xmlns:rdf="http://www.w3.org/1999/02/22-rdf-syntax-ns#"
   xmlns:cc="http://creativecommons.org/ns#"
   xmlns:dc="http://purl.org/dc/elements/1.1/"
   version="1.1"
   width="32"
   height="32"
   viewBox="0 0 32 32"
   id="svg1166"
   sodipodi:docname="user2.svg"
   inkscape:version="1.1.2 (b8e25be833, 2022-02-05)"
   inkscape:export-filename="C:\Users\Acer\Downloads\icomoon\SVG\user2.png"
   inkscape:export-xdpi="1473.0439"
   inkscape:export-ydpi="1473.0439"
   xmlns="http://www.w3.org/2000/svg">
  <defs
     id="defs1170" />
  <sodipodi:namedview
     id="namedview1168"
     pagecolor="#505050"
     bordercolor="#ffffff"
     borderopacity="1"
     inkscape:pageshadow="0"
     inkscape:pageopacity="0"
     inkscape:pagecheckerboard="1"
     showgrid="false"
     inkscape:zoom="24.34375"
     inkscape:cx="16"
     inkscape:cy="16"
     inkscape:window-width="1920"
     inkscape:window-height="1001"
     inkscape:window-x="-9"
     inkscape:window-y="-9"
     inkscape:window-maximized="1"
     inkscape:current-layer="svg1166" />
  <title
     id="title1162">user</title>
  <path
     d="m 16.244219,2.3140005 q 2.892955,0 4.946908,2.05289 2.053952,2.0528901 2.052806,4.9471098 v 5.8331417 q 0,1.072868 -0.723239,2.286721 -0.723238,1.213852 -1.610381,1.212706 v 1.750287 q 0,0.232683 0.139833,0.502047 0.139834,0.269363 0.349585,0.408055 l 8.353351,5.366629 q 0.20975,0.116915 0.349584,0.385132 0.139834,0.268217 0.139834,0.502047 v 2.169805 q 0,0.232684 -0.175366,0.408056 Q 29.891769,30.314 29.659095,30.314 H 2.8259052 q -0.2338205,0 -0.4080397,-0.175373 -0.1742191,-0.175372 -0.1753653,-0.408056 v -2.169805 q 0,-0.232684 0.1398338,-0.502047 0.1398338,-0.269363 0.3495845,-0.385132 l 8.3533505,-5.366629 q 0.209751,-0.139839 0.349585,-0.408055 0.139833,-0.268217 0.139833,-0.502047 v -1.750287 q -0.887142,0 -1.6103808,-1.212706 Q 9.2410674,16.221156 9.2410674,15.147142 V 9.3140003 q 0,-2.8930735 2.0528056,-4.9471098 2.052807,-2.0540362 4.946908,-2.05289 z"
     id="path1164"
     style="fill:#777777;fill-opacity:1;stroke-width:1.1462" />
  <metadata
     id="metadata1191">
    <rdf:RDF>
      <cc:Work
         rdf:about="">
        <dc:title>user</dc:title>
      </cc:Work>
    </rdf:RDF>
  </metadata>
</svg>
