<?xml version="1.0" encoding="UTF-8" standalone="no"?>
<!-- Generated by IcoMoon.io -->

<svg
   xmlns:inkscape="http://www.inkscape.org/namespaces/inkscape"
   xmlns:sodipodi="http://sodipodi.sourceforge.net/DTD/sodipodi-0.dtd"
   xmlns:svg="http://www.w3.org/2000/svg"
   xmlns:rdf="http://www.w3.org/1999/02/22-rdf-syntax-ns#"
   xmlns:cc="http://creativecommons.org/ns#"
   xmlns:dc="http://purl.org/dc/elements/1.1/"
   version="1.1"
   width="32"
   height="32"
   viewBox="0 0 32 32"
   id="svg1555"
   sodipodi:docname="wrench2.svg"
   inkscape:version="1.1.2 (b8e25be833, 2022-02-05)"
   inkscape:export-filename="C:\Users\Acer\Downloads\icomoon\SVG\wrench.png"
   inkscape:export-xdpi="96"
   inkscape:export-ydpi="96"
   xmlns="http://www.w3.org/2000/svg">
  <defs
     id="defs1559" />
  <sodipodi:namedview
     id="namedview1557"
     pagecolor="#505050"
     bordercolor="#ffffff"
     borderopacity="1"
     inkscape:pageshadow="0"
     inkscape:pageopacity="0"
     inkscape:pagecheckerboard="1"
     showgrid="false"
     inkscape:zoom="25.25"
     inkscape:cx="15.980198"
     inkscape:cy="15.029703"
     inkscape:window-width="2400"
     inkscape:window-height="1271"
     inkscape:window-x="-9"
     inkscape:window-y="-1359"
     inkscape:window-maximized="1"
     inkscape:current-layer="svg1555" />
  <title
     id="title1551">wrench</title>
  <path
     d="m 19.726609,3.0568709 q 3.827576,-2.14865025 7.141599,0.2099322 l -6.044567,3.223549 3.383949,5.4180859 5.857716,-2.942492 q 0.139852,2.078673 -0.793256,3.654885 -0.933108,1.576212 -2.730544,2.581134 -1.400808,0.793842 -2.964394,0.922325 -1.563586,0.128483 -2.940321,-0.385449 L 6.727294,29.658607 q -0.3496288,0.373978 -0.8517188,0.373978 -0.50209,0 -0.8517188,-0.373978 L 2.4331639,27.088945 q -0.3496288,-0.349887 -0.3496288,-0.852348 0,-0.50246 0.3496288,-0.875291 L 16.436659,11.371563 Q 15.643403,9.01298 16.565047,6.6658692 17.486692,4.3187584 19.727756,3.0568709 Z"
     id="path1553"
     style="stroke-width:1.14675;fill:#777777;fill-opacity:1" />
  <metadata
     id="metadata1561">
    <rdf:RDF>
      <cc:Work
         rdf:about="">
        <dc:title>wrench</dc:title>
      </cc:Work>
    </rdf:RDF>
  </metadata>
</svg>
